<svg height="512" viewBox="0 0 512 512" width="512" xmlns="http://www.w3.org/2000/svg"><g id="filled_outline" data-name="filled outline"><path d="m296 341.859 147.7 73.853a60 60 0 0 1 32.612 45.488l3.688 26.8h-448l3.688-26.8a60 60 0 0 1 32.612-45.488l147.7-73.853z" fill="#eaeae8"/><path d="m312 349.859-16-8v-32h-80v32l-16 8 56 26.141z" fill="#fdc9a6"/><path d="m152 192v-59.156a53.9 53.9 0 0 1 24-44.844l6.535-13.07a53.892 53.892 0 0 1 29.282-26.361l9.06-3.4a93.417 93.417 0 0 1 69.6 1.605 93.419 93.419 0 0 1 36.149 27.508l15.508 19.385a53.831 53.831 0 0 0 3.976 4.442 47.421 47.421 0 0 1 13.89 33.533v60.358z" fill="#5f4623"/><path d="m224 120a8 8 0 0 1 -8-8v-32a8 8 0 0 1 16 0v32a8 8 0 0 1 -8 8z" fill="#48351b"/><path d="m256 120a8 8 0 0 1 -8-8v-40a8 8 0 0 1 16 0v40a8 8 0 0 1 -8 8z" fill="#48351b"/><path d="m288 120a8 8 0 0 1 -8-8v-32a8 8 0 0 1 16 0v32a8 8 0 0 1 -8 8z" fill="#48351b"/><path d="m256 328a70.9 70.9 0 0 1 -65.827-44.567 198.156 198.156 0 0 1 -14.173-73.596v-57.837l24-40h112l24 40v57.837a198.156 198.156 0 0 1 -14.173 73.6 70.9 70.9 0 0 1 -65.827 44.563z" fill="#fdc9a6"/><path d="m232 448v-56l24-16 24 16v56z" fill="#fbfdff"/><circle cx="256" cy="408" fill="#cbcbcb" r="8"/><path d="m304 184h-24a8 8 0 0 1 0-16h24a8 8 0 0 1 0 16z" fill="#48351b"/><circle cx="290" cy="199.859" fill="#48351b" r="10"/><path d="m232 184h-24a8 8 0 0 1 0-16h24a8 8 0 0 1 0 16z" fill="#48351b"/><circle cx="222" cy="199.859" fill="#48351b" r="10"/><path d="m264 245.859h-16a8 8 0 0 1 -8-8v-21.859a8 8 0 0 1 16 0v13.859h8a8 8 0 0 1 0 16z" fill="#f6bb92"/><path d="m176 173.859h-11.056a20.944 20.944 0 0 0 -20.944 20.941v14.111a20.948 20.948 0 0 0 2.211 9.367 20.945 20.945 0 0 0 18.733 11.577h12.056z" fill="#fdc9a6"/><path d="m336 173.859h11.056a20.944 20.944 0 0 1 20.944 20.941v14.111a20.948 20.948 0 0 1 -2.211 9.367 20.945 20.945 0 0 1 -18.733 11.577h-12.056z" fill="#fdc9a6"/><path d="m72 488v-34.141a8 8 0 1 1 16 0v34.141z" fill="#cbcbcb"/><path d="m424 488v-34.141a8 8 0 1 1 16 0v34.141z" fill="#cbcbcb"/><path d="m144 373.859v74.141h-32v-58.141z" fill="#48351b"/><path d="m368 373.859v74.141h32v-58.141z" fill="#48351b"/><g fill="#5f4623"><path d="m296 248-40-16-32 16-48-24v33.837a80 80 0 0 0 50.289 74.278 80 80 0 0 0 59.422 0 80 80 0 0 0 50.289-74.278v-33.837z"/><path d="m232 304v30.15c-1.92-.6-3.83-1.28-5.71-2.03a79.536 79.536 0 0 1 -10.29-5v-23.12a8 8 0 0 1 16 0z"/><path d="m264 312v25.43a78.254 78.254 0 0 1 -16 0v-25.43a8 8 0 0 1 16 0z"/><path d="m296 304v23.12a79.536 79.536 0 0 1 -10.29 5c-1.88.75-3.79 1.43-5.71 2.03v-30.15a8 8 0 0 1 16 0z"/></g><path d="m400 448 8 40h-304l8-40z" fill="#8f6934"/><path d="m232 304v30.15c-1.92-.6-3.83-1.28-5.71-2.03a79.536 79.536 0 0 1 -10.29-5v-23.12a8 8 0 0 1 16 0z" fill="#48351b"/><path d="m264 312v25.43a78.254 78.254 0 0 1 -16 0v-25.43a8 8 0 0 1 16 0z" fill="#48351b"/><path d="m296 304v23.12a79.536 79.536 0 0 1 -10.29 5c-1.88.75-3.79 1.43-5.71 2.03v-30.15a8 8 0 0 1 16 0z" fill="#48351b"/><path d="m272 280h-32a8 8 0 0 1 0-16h32a8 8 0 0 1 0 16z" fill="#f6bb92"/><path d="m208 344 48 32-56 40-16.535-57.873z" fill="#cbcbcb"/><path d="m304 344-48 32 56 40 16.535-57.873z" fill="#cbcbcb"/><circle cx="256" cy="408" r="8"/><path d="m280 168a8 8 0 0 0 0 16h24a8 8 0 0 0 0-16z"/><circle cx="290" cy="199.859" r="10"/><path d="m232 168h-24a8 8 0 0 0 0 16h24a8 8 0 0 0 0-16z"/><circle cx="222" cy="199.859" r="10"/><path d="m32 496h448a8 8 0 0 0 7.926-9.09l-3.689-26.8a67.966 67.966 0 0 0 -36.954-51.551l-.107-.053-39.192-18.871a7.992 7.992 0 0 0 -4.406-6.929l-32-16a7.877 7.877 0 0 0 -8.837 1.144l-30.769-14.815-23.534-15.689a7.992 7.992 0 0 0 -4.438-1.346v-4.382a87.508 87.508 0 0 0 40-73.781v-19.978h3.056a28.784 28.784 0 0 0 25.888-16 29.092 29.092 0 0 0 3.056-12.944v-14.115a28.836 28.836 0 0 0 -8-19.947v-43.21a55.058 55.058 0 0 0 -16.23-39.187 45.978 45.978 0 0 1 -3.387-3.785l-15.509-19.385a101.418 101.418 0 0 0 -114.807-31.605l-9.058 3.4a61.709 61.709 0 0 0 -33.629 30.272l-5.62 11.238a61.769 61.769 0 0 0 -25.76 50.253v42.013a28.836 28.836 0 0 0 -8 19.947v14.111a29.092 29.092 0 0 0 3.056 12.944 28.784 28.784 0 0 0 25.888 16h3.056v19.978a87.508 87.508 0 0 0 40 73.781v4.382a7.992 7.992 0 0 0 -4.438 1.344l-24 16c-.2.136-.381.3-.568.449l-30.594 13.407c-.068-.045-.128-.1-.2-.141a8 8 0 0 0 -7.784-.35l-32 16a7.992 7.992 0 0 0 -4.353 6.177l-39.346 19.671a67.97 67.97 0 0 0 -36.955 51.551l-3.688 26.8a8 8 0 0 0 7.926 9.092zm376-88.6 32.179 15.494a51.976 51.976 0 0 1 28.208 39.4l2.437 17.706h-30.824v-26.141a8 8 0 1 0 -16 0v26.141h-9.441l-6.559-32.792zm-32-20.6 16 8v45.2h-16zm-42.916-15.477 26.916 12.964v55.713h-72v-31.311l19.35 13.821a8 8 0 0 0 12.342-4.312zm-14.381-7.91-11.28 39.487-37.341-26.672 33.918-22.613zm-30.165-18.723-32.538 21.695-32.538-21.691a7.978 7.978 0 0 0 .538-2.835v-2.059a87.4 87.4 0 0 0 64 0v2.062a7.978 7.978 0 0 0 .538 2.832zm-16.538 52.57v42.74h-32v-42.74l16-11.429zm55.74-177.633-32.453 19.473-36.316-14.527a7.991 7.991 0 0 0 -2.971-.563v-8.01a8 8 0 0 0 -16 0v15.056l-16 8-39.765-19.883c-.152-3.114-.235-64.957-.235-64.957l20.529-34.216h102.942l20.529 34.216s-.092 62.144-.26 65.411zm32.26-24.827v14.111a13.018 13.018 0 0 1 -1.366 5.789 12.874 12.874 0 0 1 -11.578 7.155h-3.35c-.017-.06-.043-.118-.061-.178.227-3.95.355-7.911.355-11.844v-27.974h3.056a12.959 12.959 0 0 1 12.944 12.941zm-191.7 27.059h-3.354a12.874 12.874 0 0 1 -11.578-7.155 13.018 13.018 0 0 1 -1.368-5.789v-14.115a12.959 12.959 0 0 1 12.944-12.945h3.056v27.978c0 3.938.121 7.918.348 11.872-.015.054-.035.103-.048.154zm-.3-69.859v13.859h-3.056a28.987 28.987 0 0 0 -4.944.432v-33.447a45.807 45.807 0 0 1 20.438-38.188 7.994 7.994 0 0 0 2.717-3.078l6.535-13.07a45.756 45.756 0 0 1 24.937-22.448l9.059-3.4a85.417 85.417 0 0 1 96.694 26.621l15.509 19.386a62.622 62.622 0 0 0 4.565 5.1 39.164 39.164 0 0 1 11.546 27.876v34.648a28.987 28.987 0 0 0 -4.944-.432h-3.056v-13.859a8.009 8.009 0 0 0 -1.14-4.116l-24-40a8 8 0 0 0 -6.86-3.884h-16v-24a8 8 0 0 0 -16 0v24h-16v-32a8 8 0 0 0 -16 0v32h-16v-24a8 8 0 0 0 -16 0v24h-16a8 8 0 0 0 -6.86 3.884l-24 40a8.009 8.009 0 0 0 -1.14 4.116zm16 105.837v-20.893l36.422 18.211a8 8 0 0 0 7.156 0l28.786-14.393 36.665 14.666a8.007 8.007 0 0 0 7.087-.568l27.884-16.731v19.708a71.6 71.6 0 0 1 -32 59.884v-13.721a8 8 0 0 0 -16 0v21.709a72.031 72.031 0 0 1 -16 3.684v-17.393a8 8 0 0 0 -16 0v17.393a72.056 72.056 0 0 1 -16-3.684v-21.709a8 8 0 0 0 -16 0v13.721a71.6 71.6 0 0 1 -32-59.884zm24 95.778 33.918 22.612-37.341 26.673-11.277-39.483zm-56 29.474 26.908-11.79 13.4 46.9a8 8 0 0 0 12.342 4.312l19.35-13.822v31.311h-72zm-32 11.711 16-8v53.2h-16zm-1.441 61.2h274.882l4.8 24h-284.482zm-74.947 6.29a51.981 51.981 0 0 1 28.261-39.423l32.127-16.067v40.4l-6.559 32.8h-9.441v-26.141a8 8 0 1 0 -16 0v26.141h-30.824z"/><path d="m240 280h32a8 8 0 0 0 0-16h-32a8 8 0 0 0 0 16z"/></g></svg>