<svg height="512" viewBox="0 0 512 512" width="512" xmlns="http://www.w3.org/2000/svg"><g id="filled_outline" data-name="filled outline"><path d="m296 341.859 147.7 73.853a60 60 0 0 1 32.612 45.488l3.688 26.8h-448l3.688-26.8a60 60 0 0 1 32.612-45.488l147.7-73.853z" fill="#d32b39"/><path d="m256 325.859a70.9 70.9 0 0 1 -65.827-44.566 198.16 198.16 0 0 1 -14.173-73.593v-63.7a80 80 0 0 1 80-80 80 80 0 0 1 80 80v63.7a198.16 198.16 0 0 1 -14.173 73.6 70.9 70.9 0 0 1 -65.827 44.559z" fill="#fdc9a6"/><path d="m312 349.859-16-8v-32h-80v32l-16 8 56 34.141z" fill="#fdc9a6"/><g fill="#55300b"><path d="m279.991 184a8 8 0 0 1 -.7-15.968l24-2.141a8 8 0 0 1 1.422 15.937l-24 2.14c-.244.022-.484.032-.722.032z"/><circle cx="290" cy="199.859" r="10"/><path d="m232.009 184c-.238 0-.478-.01-.72-.032l-24-2.14a8 8 0 0 1 1.422-15.937l24 2.141a8 8 0 0 1 -.7 15.968z"/><circle cx="222" cy="199.859" r="10"/></g><path d="m264 245.859h-16a8 8 0 0 1 -8-8v-13.859a8 8 0 0 1 16 0v5.859h8a8 8 0 0 1 0 16z" fill="#e6af89"/><path d="m176 173.859h-11.056a20.944 20.944 0 0 0 -20.944 20.941v14.111a20.948 20.948 0 0 0 2.211 9.367 20.945 20.945 0 0 0 18.733 11.577h19.056z" fill="#fdc9a6"/><path d="m336 173.859h11.056a20.944 20.944 0 0 1 20.944 20.941v14.111a20.948 20.948 0 0 1 -2.211 9.367 20.945 20.945 0 0 1 -18.733 11.577h-19.056z" fill="#fdc9a6"/><path d="m72 488v-34.141a8 8 0 1 1 16 0v34.141z" fill="#961b20"/><path d="m424 488v-34.141a8 8 0 1 1 16 0v34.141z" fill="#961b20"/><path d="m208 341.859 48 32-18.184 25.867a24.71 24.71 0 0 1 -15.764 10.1 24.712 24.712 0 0 1 -28.211-17.526l-9.841-34.441z" fill="#961b20"/><path d="m304 341.859-48 32 18.184 25.867a24.71 24.71 0 0 0 15.764 10.1 24.712 24.712 0 0 0 28.211-17.526l9.841-34.441z" fill="#961b20"/><path d="m144 373.859v74.141h-32v-58.141z" fill="#533222"/><path d="m368 373.859v74.141h32v-58.141z" fill="#533222"/><path d="m272 272h-32a8 8 0 0 1 0-16h32a8 8 0 0 1 0 16z" fill="#e6af89"/><path d="m299.335 264.653-.667 4.671a21.752 21.752 0 0 1 -21.533 18.676 21.757 21.757 0 0 1 -9.728-2.3l-11.407-5.7-11.407 5.7a21.757 21.757 0 0 1 -9.728 2.3 21.752 21.752 0 0 1 -21.533-18.676l-.667-4.671a49.056 49.056 0 0 0 -36.665-40.653v33.837a80 80 0 0 0 50.289 74.278 80 80 0 0 0 59.422 0 80 80 0 0 0 50.289-74.278v-33.837a49.056 49.056 0 0 0 -36.665 40.653z" fill="#55300b"/><path d="m264 373.86v74.14a8 8 0 0 1 -16 0v-74.14a7.966 7.966 0 0 1 1.35-4.44l6.65 4.44 6.65-4.43a7.933 7.933 0 0 1 1.35 4.43z" fill="#961b20"/><path d="m400 448 8 40h-304l8-40z" fill="#b26643"/><path d="m279.991 184c.238 0 .478-.01.72-.032l24-2.14a8 8 0 0 0 -1.422-15.937l-24 2.141a8 8 0 0 0 .7 15.968z"/><circle cx="290" cy="199.859" r="10"/><path d="m207.289 181.828 24 2.14c.242.022.482.032.72.032a8 8 0 0 0 .7-15.968l-24-2.141a8 8 0 0 0 -1.422 15.937z"/><circle cx="222" cy="199.859" r="10"/><path d="m32 496h448a8 8 0 0 0 7.925-9.09l-3.688-26.8a67.966 67.966 0 0 0 -36.954-51.551l-39.352-19.676a7.992 7.992 0 0 0 -4.353-6.177l-32-16a7.99 7.99 0 0 0 -7.55.225l-32-16-23.59-15.731a7.992 7.992 0 0 0 -4.438-1.341v-2.241a87.507 87.507 0 0 0 40-73.781v-19.978h3.056a28.784 28.784 0 0 0 25.888-16 29.092 29.092 0 0 0 3.056-12.944v-14.115a28.977 28.977 0 0 0 -28.944-28.945h-3.056v-21.855a88 88 0 0 0 -176 0v21.859h-3.056a28.977 28.977 0 0 0 -28.944 28.941v14.111a29.092 29.092 0 0 0 3.056 12.944 28.784 28.784 0 0 0 25.888 16h3.056v19.978a87.51 87.51 0 0 0 40 73.782v2.24a7.992 7.992 0 0 0 -4.438 1.344l-23.585 15.724-32 16a7.993 7.993 0 0 0 -7.55-.225l-32 16a7.992 7.992 0 0 0 -4.353 6.177l-39.357 19.682a67.966 67.966 0 0 0 -36.954 51.551l-3.688 26.8a8 8 0 0 0 7.925 9.092zm376-89.2 32.127 16.064a51.98 51.98 0 0 1 28.26 39.422l2.437 17.714h-30.824v-26.141a8 8 0 1 0 -16 0v26.141h-9.442l-6.558-32.792zm-32-20 16 8v45.2h-16zm-42.956-17.478 26.956 13.478v57.2h-96v-40.849l3.639 5.176a32.522 32.522 0 0 0 20.868 13.364 33.243 33.243 0 0 0 5.987.546 32.58 32.58 0 0 0 31.357-23.737zm-44.973-26.462-32.071 21.385-32.071-21.381a7.964 7.964 0 0 0 .071-1v-2.064a87.4 87.4 0 0 0 64 0v2.062a7.964 7.964 0 0 0 .071 1.002zm30.629 18.416-8.238 28.83a16.709 16.709 0 0 1 -29.737 5.019l-13.468-19.158 36.743-24.493zm25.3-179.417h3.056a12.959 12.959 0 0 1 12.944 12.941v14.111a13.018 13.018 0 0 1 -1.366 5.789 12.874 12.874 0 0 1 -11.578 7.155h-3.356c-.049-.177-.094-.356-.155-.529.296-4.526.455-39.467.455-39.467zm-88-109.859a72.081 72.081 0 0 1 72 72s-.106 70.718-.3 74.226a56.8 56.8 0 0 0 -36.283 45.3l-.667 4.671a13.752 13.752 0 0 1 -19.764 10.355l-11.407-5.7a8 8 0 0 0 -7.156 0l-11.407 5.7a13.752 13.752 0 0 1 -19.764-10.355l-.667-4.671a56.8 56.8 0 0 0 -36.283-45.3c-.196-3.508-.302-74.226-.302-74.226a72.081 72.081 0 0 1 72-72zm-87.7 149.859h-3.36a12.874 12.874 0 0 1 -11.578-7.155 13.018 13.018 0 0 1 -1.362-5.789v-14.115a12.959 12.959 0 0 1 12.944-12.945h3.056s.159 34.938.459 39.471c-.059.174-.106.356-.159.533zm15.7 35.978v-22.177a40.881 40.881 0 0 1 20.745 30.125l.668 4.671a29.751 29.751 0 0 0 42.757 22.4l7.83-3.915 7.83 3.915a29.751 29.751 0 0 0 42.757-22.4l.668-4.672a40.881 40.881 0 0 1 20.745-30.124v22.177a71.6 71.6 0 0 1 -34.334 61.371 7.973 7.973 0 0 0 -3.108 1.8 73.37 73.37 0 0 1 -7.818 3.681 71.7 71.7 0 0 1 -53.48 0 73.09 73.09 0 0 1 -9.124-4.414c-.166-.1-.335-.2-.508-.286a71.6 71.6 0 0 1 -35.628-62.152zm24 93.637 36.739 24.493-13.468 19.158a16.709 16.709 0 0 1 -29.737-5.019l-8.238-28.83zm-56 31.326 26.956-13.477 7.193 25.175a32.577 32.577 0 0 0 31.357 23.736 33.243 33.243 0 0 0 5.987-.546 32.522 32.522 0 0 0 20.868-13.364l3.639-5.173v40.849h-96zm-32 12 16-8v53.2h-16zm-1.441 61.2h274.882l4.8 24h-284.483zm-74.946 6.289a51.98 51.98 0 0 1 28.26-39.422l32.127-16.067v40.4l-6.558 32.8h-9.442v-26.141a8 8 0 1 0 -16 0v26.141h-30.824z"/><path d="m248 245.859h16a8 8 0 0 0 0-16h-8v-5.859a8 8 0 0 0 -16 0v13.859a8 8 0 0 0 8 8z"/><path d="m232 264a8 8 0 0 0 8 8h32a8 8 0 0 0 0-16h-32a8 8 0 0 0 -8 8z"/></g></svg>