<svg height="512" viewBox="0 0 512 512" width="512" xmlns="http://www.w3.org/2000/svg"><g id="filled_outline" data-name="filled outline"><path d="m296 344 147.882 73.941a60 60 0 0 1 32.564 45.18l3.554 24.879h-448l3.554-24.879a60 60 0 0 1 32.564-45.18l147.882-73.941z" fill="#0a9acd"/><path d="m336 176h11.056a20.944 20.944 0 0 1 20.944 20.944v14.112a20.944 20.944 0 0 1 -2.211 9.366 20.944 20.944 0 0 1 -18.733 11.578h-16.056z" fill="#fdc9a6"/><path d="m152 128v58h53.931l-2.599-58z" fill="#683b0d"/><path d="m312 352-16-8v-32h-80v32l-16 8 56 24z" fill="#fdc9a6"/><path d="m296 312v19.62a70.858 70.858 0 0 1 -80 .02v-19.64z" fill="#e6af89"/><path d="m256 328a70.894 70.894 0 0 1 -65.824-44.567 198.192 198.192 0 0 1 -14.176-73.603v-49.83a35.1 35.1 0 0 0 24-33.3v-14.7l10.25 8.542a135.728 135.728 0 0 0 86.889 31.458 42.717 42.717 0 0 1 35.542 19.021l3.319 4.979.026 34.842a191.831 191.831 0 0 1 -13.721 71.4l-.406 1.015a70.966 70.966 0 0 1 -65.899 44.743z" fill="#fdc9a6"/><g fill="#683b0d"><circle cx="290" cy="202" r="10"/><path d="m240.006 192a8 8 0 0 1 -1.946-.241l-32-8a8 8 0 0 1 3.88-15.522l32 8a8 8 0 0 1 -1.934 15.763z"/><circle cx="222" cy="202" r="10"/><path d="m271.992 192a8.015 8.015 0 0 0 1.947-.241l32-8a8 8 0 0 0 -3.881-15.522l-32 8a8 8 0 0 0 1.934 15.763z"/></g><path d="m264 304h-16a8 8 0 0 1 0-16h16a8 8 0 0 1 0 16z" fill="#e6af89"/><path d="m264 248h-16a8 8 0 0 1 -8-8v-16a8 8 0 0 1 16 0v8h8a8 8 0 0 1 0 16z" fill="#e6af89"/><path d="m176 176h-11.056a20.944 20.944 0 0 0 -20.944 20.944v14.112a20.944 20.944 0 0 0 2.211 9.366 20.944 20.944 0 0 0 18.733 11.578h14.056z" fill="#fdc9a6"/><path d="m72 488v-32a8 8 0 0 1 16 0v32z" fill="#026ca2"/><path d="m424 488v-32a8 8 0 0 1 16 0v32z" fill="#026ca2"/><path d="m248 240h16a32 32 0 0 1 32 32 0 0 0 0 1 0 0h-80a0 0 0 0 1 0 0 32 32 0 0 1 32-32z" fill="#683b0d"/><path d="m256 448a7.988 7.988 0 0 1 -4.8-1.6l-12.8-9.6a56.268 56.268 0 0 1 -22.4-44.8 8 8 0 0 1 16 0 40.191 40.191 0 0 0 16 32l8 6 8-6a40.191 40.191 0 0 0 16-32 8 8 0 0 1 16 0 56.268 56.268 0 0 1 -22.4 44.8l-12.8 9.6a7.988 7.988 0 0 1 -4.8 1.6z" fill="#a8a8a8"/><path d="m264 440h-8a24 24 0 1 0 24 24l32-8v-16z" fill="#fbb540"/><path d="m207 128 56.59 44.472a89.116 89.116 0 0 0 55.67 19.528 24 24 0 0 0 15.433-5.62 23.507 23.507 0 0 1 26.49-2.57l9.4 5.194a24 24 0 0 0 11.611 3h1.806a24 24 0 0 0 24-24l-48-40-24-32.004h-80z" fill="#026ca2"/><path d="m360 128-.395-.2a148 148 0 0 0 -99.466-11.835l-52.139 12.035h-56a104 104 0 0 1 104-104 104 104 0 0 1 104 104z" fill="#eaeae8"/><path d="m256 24-8.4 8.4a135.182 135.182 0 0 0 -39.6 95.6h-56a104 104 0 0 1 104-104z" fill="#0a9acd"/><path d="m208 344 48 32-56 40-16-56z" fill="#cbcbcb"/><path d="m304 344-48 32 56 40 16-56z" fill="#cbcbcb"/><path d="m240.02 192a8 8 0 0 0 1.934-15.763l-32-8a8 8 0 0 0 -3.881 15.522l32 8a8.015 8.015 0 0 0 1.947.241z"/><circle cx="222.013" cy="202.002" r="10"/><path d="m264.014 288h-16a8 8 0 0 0 0 16h16a8 8 0 0 0 0-16z"/><path d="m484.379 461.992a68.012 68.012 0 0 0 -36.906-51.2l-115.438-57.72-23.584-15.722a7.989 7.989 0 0 0 -4.437-1.35v-16.24a79.259 79.259 0 0 0 25.241-33.323c1.064-2.314 7.562-17.3 11.827-46.437h5.987a28.786 28.786 0 0 0 25.888-16 29.085 29.085 0 0 0 3.057-12.944v-11.666a31.956 31.956 0 0 0 6.191.612h1.809a32.037 32.037 0 0 0 32-32 8 8 0 0 0 -2.879-6.146l-45.193-37.656a112.131 112.131 0 0 0 -111.929-108.2 112.126 112.126 0 0 0 -112 112v49a28.834 28.834 0 0 0 -8 19.946v14.112a29.091 29.091 0 0 0 3.056 12.942 28.788 28.788 0 0 0 25.888 16h5.269a205.478 205.478 0 0 0 12.533 46.4 78.833 78.833 0 0 0 25.255 33.4v16.2a7.992 7.992 0 0 0 -4.438 1.344l-23.584 15.722-115.438 57.722a68.015 68.015 0 0 0 -36.907 51.2l-3.553 24.879a8 8 0 0 0 7.92 9.133h448a8 8 0 0 0 7.92-9.131zm-165.662-98.573-11.28 39.481-37.337-26.671 33.918-22.612zm-46.703 100.581a16 16 0 1 1 -16-16h48v1.754l-25.941 6.485a8 8 0 0 0 -6.059 7.761zm-8-40-8 6-8-6a40.187 40.187 0 0 1 -14.69-21.961l22.691-16.208 22.685 16.209a40.185 40.185 0 0 1 -14.687 21.96zm96-212.944a13.005 13.005 0 0 1 -1.368 5.789 12.873 12.873 0 0 1 -11.577 7.155h-4.052q.584-6.027 1.007-12.659c.011-.17.016-.34.016-.51l-.02-18.84a7.963 7.963 0 0 0 -.234-1.878 15.606 15.606 0 0 1 13.54.7l2.591 1.432c.066 2.248.1 4.133.1 4.7zm24-27.056h-1.809a16.037 16.037 0 0 1 -7.741-2l-9.4-5.195a31.7 31.7 0 0 0 -35.5 3.445 16.026 16.026 0 0 1 -10.291 3.75 81.411 81.411 0 0 1 -50.673-17.773l-42.682-34.147 36.032-8.315a140.316 140.316 0 0 1 93.675 10.993l44.017 36.681a16.03 16.03 0 0 1 -15.628 12.561zm-210.531-31.587a8 8 0 0 0 -5.469 7.587v8h-3.057a28.966 28.966 0 0 0 -4.943.431v-32.431h30.346a27.043 27.043 0 0 1 -16.877 16.413zm177.689-37.15a156.413 156.413 0 0 0 -92.819-7.088l-41.936 9.678a126.234 126.234 0 0 1 36.852-79.792l5.982-5.984a96.142 96.142 0 0 1 91.921 83.186zm-116.3-80.911a141.957 141.957 0 0 0 -34.632 85.648h-39.9a96.218 96.218 0 0 1 74.535-85.648zm-69.915 189.648a12.873 12.873 0 0 1 -11.577-7.155 13.011 13.011 0 0 1 -1.366-5.789v-14.11a12.958 12.958 0 0 1 12.943-12.946h3.057v25.83q0 7.116.487 14.17zm32.657 56.462a189.373 189.373 0 0 1 -13.6-70.632v-44.487a43.005 43.005 0 0 0 22.462-27.222 8.149 8.149 0 0 0 .194-.949l51.935 41.549c1.784 1.427 3.626 2.771 5.5 4.063a7.994 7.994 0 0 0 9.848 8.979l4.047-1.011q3.272 1.534 6.646 2.823a10 10 0 1 0 14.466 4.291 96.7 96.7 0 0 0 20.161 2.134 31.964 31.964 0 0 0 8.754-1.231l.013 11.823c-2.969 46.782-13.245 69-13.336 69.191-.079.163-.152.33-.22.5a62.9 62.9 0 0 1 -116.87.18zm58.4 55.538a78.94 78.94 0 0 0 32-6.736v14.736a7.977 7.977 0 0 0 .07 1l-32.07 21.38-32.07-21.38a8.127 8.127 0 0 0 .07-1v-14.712a79.124 79.124 0 0 0 32 6.712zm-48 17.615 33.918 22.612-37.341 26.673-11.28-39.482zm-164.527 110.639a52.008 52.008 0 0 1 28.223-39.154l107.259-53.63 13.352 46.73a8 8 0 0 0 12.343 4.312l15.008-10.72a56.161 56.161 0 0 0 18.742 25.01l.4.237a31.937 31.937 0 0 0 -10.495 42.961h-140.305v-24a8 8 0 1 0 -16 0v24h-30.777zm396.527 15.746v-24a8 8 0 0 0 -16 0v24h-140.3a31.764 31.764 0 0 0 3.658-9.593l26.585-6.646a8 8 0 0 0 6.06-7.761v-16a8 8 0 0 0 -8-8h-32.84a56.367 56.367 0 0 0 13.18-20.211l15.009 10.721a8 8 0 0 0 12.343-4.312l13.352-46.731 107.255 53.633a52.008 52.008 0 0 1 28.223 39.156l2.25 15.744z"/><path d="m296.014 280a8 8 0 0 0 8-8 40.046 40.046 0 0 0 -40-40h-8v-8a8 8 0 0 0 -16 0v8.8a40.067 40.067 0 0 0 -32 39.2 8 8 0 0 0 8 8zm-48-32h16a24.042 24.042 0 0 1 22.629 16h-61.258a24.041 24.041 0 0 1 22.629-16z"/></g></svg>