<svg height="512" viewBox="0 0 512 512" width="512" xmlns="http://www.w3.org/2000/svg"><g id="filled_outline" data-name="filled outline"><path d="m352 120 2.577 15.464a158.585 158.585 0 0 1 -2.577 64.536l-16 48-128 120-10.593-4.237a83.3 83.3 0 0 1 -43.571-40.092 83.3 83.3 0 0 1 -8.68-41.634l5.992-113.848a168.021 168.021 0 0 1 4.784-31.916l4.068-16.273" fill="#0296e5"/><path d="m360 120h-208a90.508 90.508 0 0 1 70.156-88.19 150.518 150.518 0 0 1 67.688 0 90.508 90.508 0 0 1 70.156 88.19z" fill="#cbcbcb"/><path d="m184 176h-19.56a20.944 20.944 0 0 0 -20.94 20.944v14.112a20.944 20.944 0 0 0 2.211 9.366 20.944 20.944 0 0 0 18.729 11.578h19.56z" fill="#fdc9a6"/><path d="m224 120v-14a18 18 0 0 1 18-18h28a18 18 0 0 1 18 18v14z" fill="#0296e5"/><path d="m406.7 411.186-110.7-51.186h-80l-110.695 51.186a60.005 60.005 0 0 0 -30.128 31.2l-19.177 45.614h400l-19.177-45.61a60.005 60.005 0 0 0 -30.123-31.204z" fill="#5d70b3"/><path d="m215.5 312v6.7a155.912 155.912 0 0 1 -8 49.3l.808.4a106.424 106.424 0 0 0 95.192-.4 155.883 155.883 0 0 1 -8-49.3v-6.7z" fill="#fdc9a6"/><path d="m295.93 330.1a62.761 62.761 0 0 1 -5.96 4.2 64.333 64.333 0 0 1 -67.94 0 63.515 63.515 0 0 1 -6.91-4.96c.26-3.54.38-7.09.38-10.64v-6.7h80v6.7q0 5.715.43 11.4z" fill="#e6af89"/><path d="m198.293 292.133a210.874 210.874 0 0 1 -21.793-93.351v-30.782a96.87 96.87 0 0 0 51.8-33.375l11.7-14.625 56 40 39.5 8v30.782a210.874 210.874 0 0 1 -21.789 93.351 64.356 64.356 0 0 1 -57.711 35.867 64.356 64.356 0 0 1 -57.707-35.867z" fill="#fdc9a6"/><g fill="#683b0d"><path d="m303.5 184h-24a8 8 0 0 1 0-16h24a8 8 0 0 1 0 16z"/><circle cx="289.496" cy="202" r="11"/><path d="m231.5 184h-23.5a8 8 0 0 1 0-16h23.5a8 8 0 0 1 0 16z"/><circle cx="221.496" cy="202" r="11"/></g><path d="m261.611 280h-13.611a8 8 0 0 1 0-16h13.611a20.866 20.866 0 0 0 13.285-4.788 8 8 0 0 1 10.204 12.322 36.909 36.909 0 0 1 -23.489 8.466z" fill="#e6af89"/><path d="m264 248h-16a8 8 0 0 1 -8-8v-16a8 8 0 0 1 16 0v8h8a8 8 0 0 1 0 16z" fill="#e6af89"/><path d="m96 488v-32a8 8 0 0 1 16 0v32z" fill="#4e5d95"/><path d="m400 488v-32a8 8 0 0 1 16 0v32z" fill="#4e5d95"/><path d="m240 120 43.567 32.676a91.083 91.083 0 0 1 29.919 39.038 91.086 91.086 0 0 1 6.514 33.827v102.459a80 80 0 0 0 32-64v-40.317a97.647 97.647 0 0 0 -4.911-30.577l-2.437-7.394a93.831 93.831 0 0 0 -29.047-42.707l-.616-.514a96.8 96.8 0 0 0 -62.146-22.5c-7.303.009-12.843.009-12.843.009z" fill="#d32b39"/><path d="m256 464a8 8 0 0 1 -6.749-3.7l-56-88a8 8 0 0 1 13.5-8.59l49.249 77.39 49.251-77.394a8 8 0 1 1 13.5 8.59l-56 88a8 8 0 0 1 -6.751 3.704z" fill="#ea9d2d"/><path d="m233.366 488a24 24 0 1 1 45.268 0z" fill="#fbb540"/><path d="m216 112h80v8h-80z" fill="#cbcbcb"/><path d="m49.337 492.427a8 8 0 0 0 6.663 3.573h400a8 8 0 0 0 7.375-11.1l-19.175-45.611a67.854 67.854 0 0 0 -34.144-35.364l-101.52-46.942a147.57 147.57 0 0 1 -5.036-38.283c0-.128-.013-.253-.019-.38a71.927 71.927 0 0 0 8.519-8.82v18.5a8 8 0 0 0 12.8 6.4 88.42 88.42 0 0 0 35.2-70.4v-40.317a105.51 105.51 0 0 0 -1.7-18.756 7.954 7.954 0 0 0 1.458-2.987 165.62 165.62 0 0 0 2.708-67.792l-1.047-6.282a8 8 0 0 0 6.581-7.866 98.507 98.507 0 0 0 -76.357-95.984 159.385 159.385 0 0 0 -71.286 0 98.507 98.507 0 0 0 -76.357 95.984 8 8 0 0 0 5.831 7.694l-1.66 6.638a176.487 176.487 0 0 0 -5.012 33.436l-.536 10.188a28.814 28.814 0 0 0 -7.127 18.988v14.112a28.485 28.485 0 0 0 4.565 15.575l-2.894 54.985a91.279 91.279 0 0 0 46.6 84.473l-81.824 37.836a67.854 67.854 0 0 0 -34.143 35.364l-19.175 45.611a8 8 0 0 0 .712 7.527zm190.663-12.427a16 16 0 0 1 32 0zm15.494-92.626a115.011 115.011 0 0 0 39.03-6.812l-38.524 60.538-38.237-60.086a114.939 114.939 0 0 0 37.731 6.36zm-38.29-23.7a163.48 163.48 0 0 0 6-35.468 73.022 73.022 0 0 0 64.62.5 163.411 163.411 0 0 0 5.969 34.971 99.024 99.024 0 0 1 -76.593.002zm98.084 14.054 88.05 40.715a51.88 51.88 0 0 1 26.109 27.042l14.511 34.515h-27.958v-24a8 8 0 0 0 -16 0v24h-112a32.042 32.042 0 0 0 -19.147-29.3zm-3.288-101.204c-1.69 4.073-3.521 8.126-5.467 12.068a56.355 56.355 0 0 1 -101.066 0 203.959 203.959 0 0 1 -20.963-89.81v-24.758a105.583 105.583 0 0 0 50.043-34.4l6.856-8.57 37.365 28.023a83.068 83.068 0 0 1 10.068 8.923h-9.336a8 8 0 0 0 0 16h21.365a82.9 82.9 0 0 1 11.135 41.541zm-80-164.524v-6a10.011 10.011 0 0 1 10-10h28a10.011 10.011 0 0 1 10 10v6zm112 152a72.365 72.365 0 0 1 -16 45.217v-83.676a99.083 99.083 0 0 0 -39.633-79.266l-23.261-17.445a89.191 89.191 0 0 1 44.761 19.806l.617.514a85.745 85.745 0 0 1 26.57 39.068l2.438 7.392a89.515 89.515 0 0 1 4.508 28.073zm4.3-90.92a101.723 101.723 0 0 0 -27.57-36.22l-.618-.514a104.994 104.994 0 0 0 -11.541-8.346h36.651l1.464 8.779a150.025 150.025 0 0 1 1.614 36.301zm-170.362-104.445a82.833 82.833 0 0 1 46.017-29.035 143.345 143.345 0 0 1 64.09 0 82.491 82.491 0 0 1 63.561 72.4h-55.606v-6a26.029 26.029 0 0 0 -26-26h-28a26.029 26.029 0 0 0 -26 26v6h-55.606a82.863 82.863 0 0 1 17.544-43.365zm-14.246 69.578 2.554-10.213h57.108l-1.3 1.627a89.4 89.4 0 0 1 -47.519 30.619 8 8 0 0 0 -6.035 7.754h-4.06a28.97 28.97 0 0 0 -5.295.494 160.331 160.331 0 0 1 4.547-30.281zm-12.2 72.843v-14.112a12.959 12.959 0 0 1 12.948-12.944h4.06v14.781a217.236 217.236 0 0 0 1.482 25.219h-5.542a12.875 12.875 0 0 1 -11.578-7.156 13.017 13.017 0 0 1 -1.362-5.788zm9.5 109.037a75.428 75.428 0 0 1 -7.845-37.636l2.309-43.885a29.122 29.122 0 0 0 8.984 1.428h8.032a219.583 219.583 0 0 0 18.647 55.674 72.708 72.708 0 0 0 16.377 21.74v1.286a147.612 147.612 0 0 1 -5.086 38.446l-2.032-.813a75.228 75.228 0 0 1 -39.387-36.24zm-78.439 125.397a51.88 51.88 0 0 1 26.109-27.042l88.05-40.715 46.435 72.967a32.042 32.042 0 0 0 -19.147 29.3h-112v-24a8 8 0 0 0 -16 0v24h-27.958z"/><circle cx="289.496" cy="202" r="11"/><path d="m231.5 168h-23.5a8 8 0 0 0 0 16h23.5a8 8 0 0 0 0-16z"/><circle cx="221.496" cy="202" r="11"/><path d="m274.9 259.212a20.866 20.866 0 0 1 -13.289 4.788h-13.611a8 8 0 0 0 0 16h13.611a36.909 36.909 0 0 0 23.493-8.466 8 8 0 0 0 -10.204-12.322z"/><path d="m248 248h16a8 8 0 0 0 0-16h-8v-8a8 8 0 0 0 -16 0v16a8 8 0 0 0 8 8z"/></g></svg>