<svg height="512" viewBox="0 0 512 512" width="512" xmlns="http://www.w3.org/2000/svg"><g id="filled_outline" data-name="filled outline"><path d="m304 312h18.131a52.54 52.54 0 0 0 49.844-35.925 52.55 52.55 0 0 0 2.078-24.653l-16.528-106.767a100.194 100.194 0 0 0 -99.525-88.655 100.194 100.194 0 0 0 -99.786 91.154l-18.9 99.411a52.532 52.532 0 0 0 4.623 33.308l1.541 3.084a52.542 52.542 0 0 0 46.994 29.043z" fill="#026ca2"/><path d="m176.5 184h-12.06a20.944 20.944 0 0 0 -20.94 20.944v14.112a20.944 20.944 0 0 0 2.211 9.366 20.944 20.944 0 0 0 18.729 11.578h19.56z" fill="#fdc9a6"/><path d="m406.7 411.186-110.7-51.186h-80l-110.695 51.186a60.005 60.005 0 0 0 -30.128 31.2l-19.177 45.614h400l-19.177-45.61a60.005 60.005 0 0 0 -30.123-31.204z" fill="#eaeae8"/><path d="m315.02 368.8-13.18-6.1a155.9 155.9 0 0 1 -6.344-44v-6.7h-80v6.7a155.872 155.872 0 0 1 -6.507 44.542l-12.009 5.558-29.06 13.43c.222.512.471 1.01.7 1.518l-.62.252.935.425a96.009 96.009 0 0 0 175.145-2.195z" fill="#fdc9a6"/><path d="m344.08 382.23a96.047 96.047 0 0 1 -176.16 0l29.06-13.43a64.033 64.033 0 0 0 118.04 0z" fill="#e82f3e"/><path d="m96 488v-32a8 8 0 0 1 16 0v32z" fill="#cbcbcb"/><path d="m400 488v-32a8 8 0 0 1 16 0v32z" fill="#cbcbcb"/><path d="m180 288c-15.439 0-28-14.355-28-32s12.561-32 28-32 28 14.355 28 32-12.561 32-28 32zm0-48c-6.5 0-12 7.327-12 16s5.5 16 12 16 12-7.327 12-16-5.495-16-12-16z" fill="#a8a8a8"/><path d="m334.5 184h12.055a20.944 20.944 0 0 1 20.945 20.944v14.112a20.944 20.944 0 0 1 -2.211 9.366 20.944 20.944 0 0 1 -18.738 11.578h-18.551z" fill="#fdc9a6"/><path d="m295.93 330.1a62.761 62.761 0 0 1 -5.96 4.2 64.333 64.333 0 0 1 -67.94 0 63.515 63.515 0 0 1 -6.91-4.96c.26-3.54.38-7.09.38-10.64v-6.7h80v6.7q0 5.715.43 11.4z" fill="#e6af89"/><path d="m198.293 292.133a210.874 210.874 0 0 1 -21.793-93.351v-17.148a15.46 15.46 0 0 1 13.532-15.334 80 80 0 0 0 65.894-54.075l.074-.225.074.221a80 80 0 0 0 65.894 54.079 15.46 15.46 0 0 1 13.532 15.334v17.148a210.874 210.874 0 0 1 -21.789 93.351 64.356 64.356 0 0 1 -57.711 35.867 64.356 64.356 0 0 1 -57.707-35.867z" fill="#fdc9a6"/><g fill="#683b0d"><path d="m303.5 192h-24a8 8 0 0 1 0-16h24a8 8 0 0 1 0 16z"/><circle cx="289.496" cy="210" r="11"/><path d="m231.5 192h-23.5a8 8 0 0 1 0-16h23.5a8 8 0 0 1 0 16z"/><circle cx="221.496" cy="210" r="11"/></g><path d="m256 284.582a49.753 49.753 0 0 1 -19.062-3.817 8 8 0 0 1 6.124-14.784 33.577 33.577 0 0 0 25.876 0 8 8 0 0 1 6.124 14.784 49.753 49.753 0 0 1 -19.062 3.817z" fill="#e6af89"/><path d="m264 256h-16a8 8 0 0 1 -8-8v-16a8 8 0 0 1 16 0v8h8a8 8 0 0 1 0 16z" fill="#e6af89"/><path d="m444.2 439.289a67.854 67.854 0 0 0 -34.144-35.364l-91.677-42.387c-.1-.046-10.617-7.09-11.815-12.885a148.161 148.161 0 0 1 -3.049-28.677c.163.009.323.024.488.024h18.131a60.54 60.54 0 0 0 59.828-69.8l-6.086-39.311a7.961 7.961 0 0 0 -.377-1.47v-4.473a28.778 28.778 0 0 0 -2.288-11.277l-7.754-50.088a108.2 108.2 0 0 0 -215.174 2.456l-7.569 39.819a28.818 28.818 0 0 0 -7.215 19.09v14.112a28.921 28.921 0 0 0 .285 3.953 8.05 8.05 0 0 0 -.388 1.348l-3.938 20.714a60.878 60.878 0 0 0 5.326 38.38l1.542 3.084a60.211 60.211 0 0 0 54.146 33.463h15.007a148.2 148.2 0 0 1 -3.128 29.04c-1.18 5.631-10.45 12.385-10.522 12.416s-91.882 42.469-91.882 42.469a67.854 67.854 0 0 0 -34.147 35.364l-19.175 45.611a8 8 0 0 0 7.375 11.1h400a8 8 0 0 0 7.375-11.1zm-139.864-67a56.014 56.014 0 0 1 -96.84-.285 32.945 32.945 0 0 0 12.518-19.683 164.187 164.187 0 0 0 3.2-24.106 73.022 73.022 0 0 0 64.608.5 163.912 163.912 0 0 0 3.077 23.184 32.7 32.7 0 0 0 13.434 20.391zm61.813-119.644a44.538 44.538 0 0 1 -44.018 51.355h-6.066a73.755 73.755 0 0 0 4.816-8.325 219.246 219.246 0 0 0 16.97-47.675h8.7a28.817 28.817 0 0 0 17.916-6.2zm-6.65-47.7v14.112a13.014 13.014 0 0 1 -1.367 5.788 12.874 12.874 0 0 1 -11.58 7.155h-5.636a217.9 217.9 0 0 0 2.58-33.219v-6.781h3.056a12.959 12.959 0 0 1 12.948 12.944zm-193.426-56.3c.049-.255.085-.513.109-.772a92.195 92.195 0 0 1 183.4-2.3c.012.1.025.2.04.3l4.834 31.226a28.871 28.871 0 0 0 -7.9-1.1h-3.766a23.5 23.5 0 0 0 -19.818-17.642 72.372 72.372 0 0 1 -59.308-48.676l-.074-.222a8 8 0 0 0 -15.172 0l-.078.231a72.366 72.366 0 0 1 -59.3 48.667 23.5 23.5 0 0 0 -19.825 17.643h-4.775a28.924 28.924 0 0 0 -3.613.234zm15.044 123.271a8.8 8.8 0 0 1 -1.117.084c-6.5 0-12-7.327-12-16a18.108 18.108 0 0 1 5.057-13 220.815 220.815 0 0 0 8.057 28.918zm-29.617-66.972a12.959 12.959 0 0 1 12.94-12.944h4.06v6.781a217.428 217.428 0 0 0 1.741 27.23 27.26 27.26 0 0 0 -8.507 5.708 12.864 12.864 0 0 1 -8.876-6.875 13.017 13.017 0 0 1 -1.366-5.788zm40.972 99.056a44.3 44.3 0 0 1 -39.838-24.621l-1.542-3.084a44.774 44.774 0 0 1 -3.918-28.235l.964-5.073a28.649 28.649 0 0 0 5.307 2.851 36.4 36.4 0 0 0 -1.445 10.162c0 17.645 12.561 32 28 32a24.93 24.93 0 0 0 7.084-1.034c1.288 2.93 2.619 5.841 4.035 8.709a73.624 73.624 0 0 0 4.817 8.325zm13-15.408a203.959 203.959 0 0 1 -20.963-89.81v-17.147a7.474 7.474 0 0 1 6.528-7.4 88.534 88.534 0 0 0 64.963-42.945 88.531 88.531 0 0 0 64.967 42.943 7.474 7.474 0 0 1 6.528 7.4v17.146a203.967 203.967 0 0 1 -20.963 89.811 56.356 56.356 0 0 1 -101.066 0zm-12.221 90.747a72.046 72.046 0 0 0 125.507 0l14.561 6.73a88.07 88.07 0 0 1 -154.631 0zm222.749 100.661v-24a8 8 0 0 0 -16 0v24h-288v-24a8 8 0 0 0 -16 0v24h-27.958l14.511-34.51a51.88 51.88 0 0 1 26.109-27.042l55.5-25.661a104.007 104.007 0 0 0 183.7.006l55.482 25.655a51.88 51.88 0 0 1 26.109 27.042l14.505 34.51z"/><path d="m279.5 192h24a8 8 0 0 0 0-16h-24a8 8 0 0 0 0 16z"/><circle cx="289.496" cy="210" r="11"/><path d="m239.5 184a8 8 0 0 0 -8-8h-23.5a8 8 0 0 0 0 16h23.5a8 8 0 0 0 8-8z"/><circle cx="221.496" cy="210" r="11"/><path d="m232.608 270.312a8 8 0 0 0 4.33 10.453 49.506 49.506 0 0 0 38.124 0 8 8 0 0 0 -6.124-14.784 33.577 33.577 0 0 1 -25.876 0 8 8 0 0 0 -10.454 4.331z"/><path d="m248 256h16a8 8 0 0 0 0-16h-8v-8a8 8 0 0 0 -16 0v16a8 8 0 0 0 8 8z"/></g></svg>