<svg height="512" viewBox="0 0 512 512" width="512" xmlns="http://www.w3.org/2000/svg"><g id="filled_outline" data-name="filled outline"><g fill="#683b0d"><path d="m296 344 146.1 68.187a60 60 0 0 1 34.13 46.675l3.77 29.138h-448l3.768-29.138a60 60 0 0 1 34.132-46.675l146.1-68.187z"/><path d="m80 408v80h-48l3.77-29.14a59.987 59.987 0 0 1 34.13-46.67l8.35-3.9z"/><path d="m480 488h-48v-80l1.45.15 8.65 4.04a59.987 59.987 0 0 1 34.13 46.67z"/></g><path d="m152 181.671-11.406-19.96a77.56 77.56 0 0 1 -2.031-73.166 77.559 77.559 0 0 1 69.371-42.874h49.418a82.392 82.392 0 0 1 70.648 40 30.739 30.739 0 0 1 29.821 23.284l2.179 8.716a131.927 131.927 0 0 1 0 64z" fill="#fbb540"/><path d="m312 352-16-8v-40h-80v40l-16 8 56 11z" fill="#fdc9a6"/><path d="m80 408v80h-48l3.77-29.14a59.987 59.987 0 0 1 34.13-46.67l8.35-3.9z" fill="#96b4e7"/><path d="m480 488h-48v-80l1.45.15 8.65 4.04a59.987 59.987 0 0 1 34.13 46.67z" fill="#96b4e7"/><path d="m321.522 281.941-2.272 3.181a77.728 77.728 0 0 1 -63.25 32.549 77.728 77.728 0 0 1 -63.25-32.549l-2.272-3.181a77.73 77.73 0 0 1 -14.478-45.179v-103.091l40 24v-24l40 24v-24l40 24v-24a40.985 40.985 0 0 1 39.761 31.045l.239.955v71.091a77.73 77.73 0 0 1 -14.478 45.179z" fill="#fdc9a6"/><path d="m248 285.674a8 8 0 0 1 -2.529-15.592l24-8a8 8 0 0 1 5.06 15.18l-24 8a8.015 8.015 0 0 1 -2.531.412z" fill="#e6af89"/><path d="m264 248h-16a8 8 0 0 1 -8-8v-42.328a8 8 0 0 1 16 0v34.328h8a8 8 0 0 1 0 16z" fill="#e6af89"/><path d="m176 176h-11.056a20.944 20.944 0 0 0 -20.944 20.944v14.112a20.944 20.944 0 0 0 2.211 9.366 20.944 20.944 0 0 0 18.733 11.578h11.056z" fill="#fdc9a6"/><path d="m336 176h11.056a20.944 20.944 0 0 1 20.944 20.944v14.112a20.944 20.944 0 0 1 -2.211 9.366 20.944 20.944 0 0 1 -18.733 11.578h-11.056z" fill="#fdc9a6"/><path d="m288 368-24-8h-16l-24 8-8 16a77.748 77.748 0 0 0 80 0z" fill="#96b4e7"/><path d="m176 184h160v16h-160z" fill="#0296e5"/><circle cx="216" cy="197.671" fill="#fbfdff" r="32"/><circle cx="296" cy="197.671" fill="#fbfdff" r="32"/><path d="m192 320 56 40-24 8-20.685 42.706-35.315-50.706z" fill="#cbcbcb"/><path d="m320 320-56 40 24 8 20.44 40.919 35.56-48.919z" fill="#cbcbcb"/><path d="m487.934 486.974-3.768-29.139a67.667 67.667 0 0 0 -38.681-52.9l-93.585-43.675a7.994 7.994 0 0 0 -1.037-5.376l-24-40a8 8 0 0 0 -11.51-2.394l-11.353 8.11v-9.6a8.05 8.05 0 0 0 -.069-1 85.571 85.571 0 0 0 21.828-21.228l2.273-3.181a85.2 85.2 0 0 0 15.906-46.591h3.118a28.785 28.785 0 0 0 25.888-16 29.1 29.1 0 0 0 3.056-12.944v-14.112a28.8 28.8 0 0 0 -7-18.843c.046-.167.092-.333.127-.5a140.792 140.792 0 0 0 -1.364-61.866l-2.179-8.716a38.681 38.681 0 0 0 -33.014-29.081 90.89 90.89 0 0 0 -75.217-40.266h-49.419a85.559 85.559 0 0 0 -74.286 128.009l8.036 14.061a28.783 28.783 0 0 0 -5.684 17.2v14.112a29.1 29.1 0 0 0 3.056 12.946 28.785 28.785 0 0 0 25.888 16h3.118a85.2 85.2 0 0 0 15.906 46.59l2.273 3.181a85.551 85.551 0 0 0 21.828 21.229 8.079 8.079 0 0 0 -.069 1v9.6l-11.35-8.108a8 8 0 0 0 -11.51 2.394l-24 40a7.994 7.994 0 0 0 -1.037 5.376l-93.588 43.676a67.667 67.667 0 0 0 -38.681 52.9l-3.768 29.139a8 8 0 0 0 7.934 9.023h448a8 8 0 0 0 7.934-9.026zm-399.934-74.407 80.411-37.528 24.933 37.4a8 8 0 0 0 6.656 3.561h.19a8 8 0 0 0 6.67-3.882l10.84-18.074a85.463 85.463 0 0 0 76.594 0l10.843 18.072a8 8 0 0 0 6.673 3.884h.19a8 8 0 0 0 6.656-3.562l24.933-37.4 80.411 37.529v67.433h-336zm161.3-44.567h13.4l19.962 6.653 3.373 5.622a69.567 69.567 0 0 1 -60.072 0l3.373-5.622zm68.3-36.453 16.936 28.227-22.179 33.27-17.5-29.16a8.008 8.008 0 0 0 -4.33-3.474l-9.1-3.031zm-101.6-157.875a24 24 0 1 1 -24 24 24.027 24.027 0 0 1 24-24zm-32 .028v-25.9l19.693 11.815a40.158 40.158 0 0 0 -19.693 14.085zm69.592 10.3a40.148 40.148 0 0 0 -29.645-25.533c.026-.263.053-.527.053-.8v-9.867l27.884 16.73a8 8 0 0 0 12.116-6.858v-9.872l19.693 11.815a40.19 40.19 0 0 0 -25.285 24.385zm42.408-10.328a24 24 0 1 1 -24 24 24.027 24.027 0 0 1 24-24zm7.947-15.2c.026-.263.053-.527.053-.8v-15.024a32.937 32.937 0 0 1 24 24.006v7.046a40.076 40.076 0 0 0 -24.053-15.233zm56.053 52.584a13.017 13.017 0 0 1 -1.366 5.788 12.875 12.875 0 0 1 -11.578 7.156h-3.056v-40h3.056a12.959 12.959 0 0 1 12.944 12.944zm-214.282-118.933a69.181 69.181 0 0 1 62.216-38.451h49.419a74.763 74.763 0 0 1 63.787 36.116 8 8 0 0 0 6.86 3.884 22.707 22.707 0 0 1 22.06 17.228l2.179 8.716a124.788 124.788 0 0 1 2.178 49.339 28.926 28.926 0 0 0 -7.361-.951h-3.056v-2.328a8.024 8.024 0 0 0 -.238-1.939l-.24-.958a48.914 48.914 0 0 0 -47.522-37.107 8 8 0 0 0 -8 8v9.87l-27.884-16.73a8 8 0 0 0 -12.116 6.86v9.87l-27.884-16.73a8 8 0 0 0 -12.116 6.86v9.87l-27.884-16.73a8 8 0 0 0 -12.116 6.86v34.328h-3.056a28.788 28.788 0 0 0 -10.427 1.951l-6.977-12.209a69.423 69.423 0 0 1 -1.822-65.619zm7.648 124.721a13.017 13.017 0 0 1 -1.366-5.788v-14.112a12.959 12.959 0 0 1 12.944-12.944h3.056v40h-3.056a12.875 12.875 0 0 1 -11.578-7.156zm45.895 63.629-2.273-3.182a69.338 69.338 0 0 1 -12.988-40.528v-15.119a39.94 39.94 0 0 0 56 8.006v10.35a8 8 0 0 0 8 8h16a8 8 0 0 0 0-16h-8v-32h.073a39.982 39.982 0 0 0 71.927 21.644v15.119a69.338 69.338 0 0 1 -12.988 40.528l-2.272 3.182a69.728 69.728 0 0 1 -113.479 0zm24.739 38.977a85.4 85.4 0 0 0 64 0v13.576l-26.564 18.974h-10.872l-26.564-18.974zm-29.6 12.1 36.165 25.832-9.1 3.031a8.008 8.008 0 0 0 -4.33 3.474l-17.5 29.16-22.179-33.27zm-150.7 128.338a51.717 51.717 0 0 1 28.3-39.8v59.912h-30.9zm396.3 20.112v-59.916a51.717 51.717 0 0 1 28.3 39.8l2.6 20.116z"/><path d="m279.589 267.142a8 8 0 0 0 -10.119-5.06l-24 8a8 8 0 1 0 5.06 15.18l24-8a8 8 0 0 0 5.059-10.12z"/></g></svg>