<svg height="512" viewBox="0 0 512 512" width="512" xmlns="http://www.w3.org/2000/svg"><g id="filled_outline" data-name="filled outline"><path d="m304 368 123.807 52.948a37.263 37.263 0 0 1 22.8 29.319l5.393 37.733h-400l5.39-37.733a37.263 37.263 0 0 1 22.8-29.319l123.81-52.948z" fill="#683b0d"/><path d="m208 416h96v72h-96z" fill="#fbb540"/><path d="m360 296a24 24 0 0 0 -24-24h-24l-24 56 64-8z" fill="#961b20"/><path d="m320 280 31.227-13.383a34 34 0 0 0 20.089-37.159l-19.316-109.458-2.007-7.55a46.9 46.9 0 0 0 -30.493-32.45 56.721 56.721 0 0 0 -51.05-32 99.8 99.8 0 0 0 -74.178 33.036l-10.162 11.286a125.086 125.086 0 0 0 -32.11 83.678v144l128 16z" fill="#683b0d"/><path d="m215.5 312v6.7a155.912 155.912 0 0 1 -8 49.3l.808.4a106.424 106.424 0 0 0 95.192-.4 155.883 155.883 0 0 1 -8-49.3v-6.7z" fill="#e6af89"/><path d="m256.279 328h-1a62.852 62.852 0 0 1 -56.2-34.42l-.539-1.065c-14.819-29.266-22.54-83.715-22.54-116.515l32.9-5.036a94.486 94.486 0 0 0 79.6-82.964l47.5 88v24.34a204.207 204.207 0 0 1 -21.1 90.4l-.591 1.2a64.716 64.716 0 0 1 -58.03 36.06z" fill="#fdc9a6"/><path d="m96 488v-32a8 8 0 0 1 16 0v32z" fill="#55300b"/><path d="m400 488v-32a8 8 0 0 1 16 0v32z" fill="#55300b"/><path d="m360 292.627a170.571 170.571 0 0 1 -208 0v24.042a48 48 0 0 0 5.068 21.466l2.932 5.865-2.933 5.865a48 48 0 0 0 -5.067 21.466v20.669a170.571 170.571 0 0 0 208 0v-20.669a48 48 0 0 0 -5.067-21.466l-2.933-5.865 2.932-5.865a48 48 0 0 0 5.068-21.466z" fill="#ff6268"/><path d="m184 176h-19.56a20.944 20.944 0 0 0 -20.94 20.944v14.112a20.944 20.944 0 0 0 2.211 9.366 20.944 20.944 0 0 0 18.729 11.578h19.56z" fill="#fdc9a6"/><path d="m335.5 176h11.055a20.944 20.944 0 0 1 20.945 20.944v14.112a20.944 20.944 0 0 1 -2.211 9.366 20.944 20.944 0 0 1 -18.738 11.578h-18.551z" fill="#fdc9a6"/><path d="m208 368v120h-40l-8-40 16-8-24-24z" fill="#55300b"/><path d="m304 368v120h40l8-40-16-8 24-24z" fill="#55300b"/><g fill="#ff6268"><path d="m360 292.627a170.571 170.571 0 0 1 -208 0v24.042a48 48 0 0 0 5.068 21.466l2.932 5.865-2.933 5.865a48 48 0 0 0 -5.067 21.466v20.669a170.571 170.571 0 0 0 208 0v-20.669a48 48 0 0 0 -5.067-21.466l-2.933-5.865 2.932-5.865a48 48 0 0 0 5.068-21.466z"/><path d="m256 368a8 8 0 0 1 -8 8 163.014 163.014 0 0 1 -64.56-13.25l-26.59-11.4c-.14-.06-.28-.11-.41-.18.21-.44.41-.87.63-1.3l2.93-5.87-2.93-5.86a46.036 46.036 0 0 1 -2.42-5.77l8.72 4.37 26.37 11.3a146.95 146.95 0 0 0 58.26 11.96 8 8 0 0 1 8 8z"/><path d="m360 371.33v5.37l-23.44 10.05a163.014 163.014 0 0 1 -64.56 13.25 8 8 0 0 1 0-16 146.95 146.95 0 0 0 58.26-11.96l26.59-11.39a8.218 8.218 0 0 1 1.82-.54 48.022 48.022 0 0 1 1.33 11.22z"/></g><path d="m360 371.33v5.37l-23.44 10.05a163.014 163.014 0 0 1 -64.56 13.25 8 8 0 0 1 0-16 146.95 146.95 0 0 0 58.26-11.96l26.59-11.39a8.218 8.218 0 0 1 1.82-.54 48.022 48.022 0 0 1 1.33 11.22z" fill="#cf5252"/><path d="m256 283.753a43.8 43.8 0 0 1 -19.578-4.6 8 8 0 1 1 7.156-14.31 27.917 27.917 0 0 0 24.844 0 8 8 0 1 1 7.156 14.31 43.8 43.8 0 0 1 -19.578 4.6z" fill="#e6af89"/><path d="m256 248h-8a8 8 0 0 1 -8-8v-40a8 8 0 0 1 16 0v32a8 8 0 0 1 0 16z" fill="#e6af89"/><path d="m256 368a8 8 0 0 1 -8 8 163.014 163.014 0 0 1 -64.56-13.25l-26.59-11.4c-.14-.06-.28-.11-.41-.18.21-.44.41-.87.63-1.3l2.93-5.87-2.93-5.86a46.036 46.036 0 0 1 -2.42-5.77l8.72 4.37 26.37 11.3a146.95 146.95 0 0 0 58.26 11.96 8 8 0 0 1 8 8z" fill="#cf5252"/><circle cx="216" cy="200" fill="#eaeae8" r="32"/><circle cx="216" cy="200" fill="#683b0d" r="8"/><circle cx="296" cy="200" fill="#eaeae8" r="32"/><circle cx="296" cy="200" fill="#683b0d" r="8"/><path d="m236.422 279.155a43.98 43.98 0 0 0 39.156 0 8 8 0 1 0 -7.156-14.31 27.917 27.917 0 0 1 -24.844 0 8 8 0 1 0 -7.156 14.31z"/><circle cx="216" cy="200" r="8"/><circle cx="296" cy="200" r="8"/><path d="m144 371.331v15.339l-62.953 26.923a45.258 45.258 0 0 0 -27.576 35.542l-5.39 37.733a8 8 0 0 0 7.919 9.132h400a8 8 0 0 0 7.919-9.132l-5.39-37.732a45.257 45.257 0 0 0 -27.576-35.543l-62.953-26.923s-.008-19.736-.287-20.763a56.312 56.312 0 0 0 -5.625-19.62l-1.144-2.287 1.144-2.287a56.282 56.282 0 0 0 5.912-25.044v-24.042a7.993 7.993 0 0 0 -.7-3.264 32 32 0 0 0 -9.694-16.941 41.813 41.813 0 0 0 21.585-44.356l-3.7-20.959v-10.163a28.755 28.755 0 0 0 -4.533-15.52l-11.085-62.815c-.039-.223-.088-.445-.147-.664l-2.006-7.55a54.732 54.732 0 0 0 -32.553-36.829 65.125 65.125 0 0 0 -56.722-33.566 107.955 107.955 0 0 0 -80.124 35.685l-10.157 11.286a132.874 132.874 0 0 0 -34.164 89.029c0 .152.014.3.023.449a28.854 28.854 0 0 0 -8.527 20.495v14.112a28.977 28.977 0 0 0 8.525 20.519c-.007.142-.021.282-.021.425v84.669a56.282 56.282 0 0 0 5.912 25.044l1.144 2.287-1.144 2.287a56.282 56.282 0 0 0 -5.912 25.044zm56 108.669h-25.441l-5.516-27.577 10.535-5.268a8 8 0 0 0 2.079-12.812l-17.891-17.891 4.685-4.016a177.839 177.839 0 0 0 31.549 13.91zm96 0h-80v-49.2a179.174 179.174 0 0 0 80 0zm7.05-67.6a7.95 7.95 0 0 0 -2.491.725 163.215 163.215 0 0 1 -89.118 0 7.95 7.95 0 0 0 -2.491-.725 161.959 161.959 0 0 1 -48.95-24.4v-16.669a40.192 40.192 0 0 1 3.809-17l19.627 8.412a162.993 162.993 0 0 0 64.564 13.257 8 8 0 0 0 0-16 147.056 147.056 0 0 1 -58.261-11.959l-23.894-10.241-1.622-3.244a40.194 40.194 0 0 1 -4.223-17.887v-8.669a178.334 178.334 0 0 0 90.9 27.857c1.452.088 8.191.09 9.585.011a178.335 178.335 0 0 0 91.515-27.868v8.666a40.194 40.194 0 0 1 -4.223 17.888l-2.932 5.865a8 8 0 0 0 0 7.156l2.932 5.865a40.1 40.1 0 0 1 3.345 9.658l-20.861 8.94a147.056 147.056 0 0 1 -58.261 11.962 8 8 0 0 0 0 16 162.993 162.993 0 0 0 64.564-13.252l15.436-6.615v7.867q-5.13 3.754-10.478 7.056a7.933 7.933 0 0 0 -2.529 1.531 161.873 161.873 0 0 1 -35.943 15.813zm-87.05-172.4a39.788 39.788 0 0 0 24-8.022v8.022a8 8 0 0 0 8 8h8a8 8 0 0 0 0-16v-24h.805a39.972 39.972 0 0 0 69.456 18.114 197.2 197.2 0 0 1 -18.53 61.074l-.594 1.2a56.337 56.337 0 0 1 -48.1 31.535q-3.411.063-6.824-.018a54.62 54.62 0 0 1 -46-29.943l-.539-1.065c-7.455-14.724-13.258-36.952-16.977-59.706a39.847 39.847 0 0 0 27.303 10.809zm-24-40a24 24 0 1 1 24 24 24.028 24.028 0 0 1 -24-24zm104-40a40.068 40.068 0 0 0 -39.195 32h-1.605a40.04 40.04 0 0 0 -14.067-23.091 101.949 101.949 0 0 0 50.5-58.271l33.407 61.895a39.883 39.883 0 0 0 -29.04-12.533zm24 40a24 24 0 1 1 -24-24 24.028 24.028 0 0 1 24 24zm19.426 80.379a16.05 16.05 0 0 1 11.226 9.215 161.917 161.917 0 0 1 -38.63 20.433 73.573 73.573 0 0 0 9.461-14.55l.591-1.2c1.313-2.659 2.549-5.355 3.748-8.069zm-148.026 15.742.543 1.072a71.228 71.228 0 0 0 8.473 13 161.927 161.927 0 0 1 -40.416-21.569v-48.97c1.454.222 14.431.346 14.431.346 3.829 20.741 9.429 41.233 16.969 56.121zm138.943 138.222a8 8 0 0 0 2.079 12.812l10.535 5.268-5.516 27.577h-25.441v-53.654a177.839 177.839 0 0 0 31.549-13.91l4.685 4.016zm34.864-24.417-7.454-6.389q1.7-1.18 3.381-2.4l63.527 27.163a29.794 29.794 0 0 1 15.882 15.465c1.049 2.435 6.233 36.235 6.233 36.235h-30.776v-24a8 8 0 0 0 -16 0v24h-46.241l6.086-30.431a8 8 0 0 0 -4.267-8.724l-6.073-3.036 16.152-16.152a8 8 0 0 0 -.45-11.731zm-1.413-175.6a25.866 25.866 0 0 1 -15.719 24.942l-11.109 4.76c-.321-.009-.642-.024-.966-.024h-1.821a214.332 214.332 0 0 0 6.031-24h6.341a28.835 28.835 0 0 0 17.243-5.682zm-4.3-37.378v14.112a13 13 0 0 1 -1.367 5.788 12.874 12.874 0 0 1 -11.576 7.152h-3.9a210.3 210.3 0 0 0 1.349-23.66v-16.34h2.551a12.959 12.959 0 0 1 12.949 12.944zm-169.437-99.274 10.157-11.286a91.931 91.931 0 0 1 68.232-30.388 49 49 0 0 1 43.854 27.486 8 8 0 0 0 4.671 4.1 38.792 38.792 0 0 1 25.3 26.914l1.919 7.222 8.273 46.881a28.922 28.922 0 0 0 -5.9-.607h-5.778l-45.241-83.796a8 8 0 0 0 -14.991 2.916 86.159 86.159 0 0 1 -60.484 73.09 40.222 40.222 0 0 0 -4.069-.206 39.745 39.745 0 0 0 -18.674 4.642l-21.937 3.358h-10.949a29.02 29.02 0 0 0 -4.184.306 116.87 116.87 0 0 1 29.801-70.632zm-38.557 99.27a12.958 12.958 0 0 1 12.94-12.944h3.71a384.645 384.645 0 0 0 3.672 40h-7.382a12.875 12.875 0 0 1 -11.578-7.156 13.01 13.01 0 0 1 -1.366-5.788zm2.751 206.593-7.454 6.389a8 8 0 0 0 -.45 11.731l16.153 16.152-6.073 3.036a8 8 0 0 0 -4.267 8.724l6.081 30.431h-46.241v-24a8 8 0 0 0 -16 0v24h-30.776s5.184-33.8 6.233-36.231a29.794 29.794 0 0 1 15.882-15.469l63.527-27.169q1.68 1.228 3.381 2.406z"/></g></svg>