<svg height="512" viewBox="0 0 512 512" width="512" xmlns="http://www.w3.org/2000/svg"><g id="filled_outline" data-name="filled outline"><path d="m296 341.859 147.7 73.853a60 60 0 0 1 32.612 45.488l3.688 26.8h-448l3.688-26.8a60 60 0 0 1 32.612-45.488l147.7-73.853z" fill="#683b0d"/><path d="m192 344h128v144h-128z" fill="#026ca2"/><path d="m152 190v-63.479a102.521 102.521 0 0 1 35.01-77.155 102.521 102.521 0 0 1 67.511-25.366h2.958a102.521 102.521 0 0 1 67.511 25.366 102.521 102.521 0 0 1 35.01 77.155v62.479z" fill="#027e2a"/><path d="m200 41v107a8 8 0 0 1 -16 0v-95.88c.98-.94 1.99-1.86 3.01-2.75a102.085 102.085 0 0 1 12.9-9.61 8.417 8.417 0 0 1 .09 1.24z" fill="#027e2a"/><path d="m232 26.51v86.49a8 8 0 0 1 -16 0v-81.49q1.23-.5 2.46-.96a100.824 100.824 0 0 1 13.54-4.04z" fill="#027e2a"/><path d="m265.04 24.29-1.04 71.83a8 8 0 0 1 -8 7.88h-.12a8.012 8.012 0 0 1 -7.88-8.12l1.04-71.72c1.82-.11 3.65-.16 5.48-.16h2.96c2.53 0 5.05.09 7.56.29z" fill="#027e2a"/><path d="m297.09 31.97v78.03a8 8 0 0 1 -16 0v-83.24a101 101 0 0 1 16 5.21z" fill="#027e2a"/><path d="m329.09 53.16v95.84a8 8 0 0 1 -16 0v-108.6a102.679 102.679 0 0 1 11.9 8.97c1.41 1.23 2.77 2.49 4.1 3.79z" fill="#027e2a"/><path d="m232 26.51v86.49a8 8 0 0 1 -16 0v-81.49q1.23-.5 2.46-.96a100.824 100.824 0 0 1 13.54-4.04z" fill="#026a23"/><path d="m200 41v107a8 8 0 0 1 -16 0v-95.88c.98-.94 1.99-1.86 3.01-2.75a102.085 102.085 0 0 1 12.9-9.61 8.417 8.417 0 0 1 .09 1.24z" fill="#026a23"/><path d="m265.04 24.29-1.04 71.83a8 8 0 0 1 -8 7.88h-.12a8.012 8.012 0 0 1 -7.88-8.12l1.04-71.72c1.82-.11 3.65-.16 5.48-.16h2.96c2.53 0 5.05.09 7.56.29z" fill="#026a23"/><path d="m297.09 31.97v78.03a8 8 0 0 1 -16 0v-83.24a101 101 0 0 1 16 5.21z" fill="#026a23"/><path d="m329.09 53.16v95.84a8 8 0 0 1 -16 0v-108.6a102.679 102.679 0 0 1 11.9 8.97c1.41 1.23 2.77 2.49 4.1 3.79z" fill="#026a23"/><path d="m248 216v11.122a12.878 12.878 0 0 0 12.878 12.878" fill="none" stroke="#000" stroke-linecap="round" stroke-linejoin="round" stroke-width="16"/><path d="m256 328a70.9 70.9 0 0 1 -65.827-44.567 198.156 198.156 0 0 1 -14.173-73.596v-33.837l7.595-25.315a76.734 76.734 0 0 1 73.498-54.685 76.733 76.733 0 0 1 75.244 61.686l3.663 18.314v33.837a198.156 198.156 0 0 1 -14.173 73.6 70.9 70.9 0 0 1 -65.827 44.563z" fill="#f6bb92"/><path d="m304 192a8.015 8.015 0 0 1 -2.531-.412l-24-8a8 8 0 1 1 5.06-15.18l24 8a8 8 0 0 1 -2.529 15.592z" fill="#683b0d"/><circle cx="290" cy="202" fill="#683b0d" r="10"/><path d="m208 192a8 8 0 0 1 -2.529-15.592l24-8a8 8 0 0 1 5.06 15.18l-24 8a8.019 8.019 0 0 1 -2.531.412z" fill="#683b0d"/><circle cx="222" cy="202" fill="#683b0d" r="10"/><path d="m264 280h-16a8 8 0 0 1 0-16h16a8 8 0 0 1 0 16z" fill="#e6af89"/><path d="m176 176h-11.056a20.944 20.944 0 0 0 -20.944 20.944v14.112a20.944 20.944 0 0 0 2.211 9.366 20.944 20.944 0 0 0 18.733 11.578h15.056z" fill="#f6bb92"/><path d="m336 176h11.056a20.944 20.944 0 0 1 20.944 20.944v14.112a20.944 20.944 0 0 1 -2.211 9.366 20.944 20.944 0 0 1 -18.733 11.578h-15.056z" fill="#f6bb92"/><path d="m72 488v-34.141a8 8 0 1 1 16 0v34.141z" fill="#55300b"/><path d="m424 488v-34.141a8 8 0 1 1 16 0v34.141z" fill="#55300b"/><g fill="#683b0d"><path d="m216 272a8 8 0 0 1 0-16 25.267 25.267 0 0 0 24-17.3l.41-1.229a8 8 0 0 1 15.18 5.056l-.41 1.232a41.248 41.248 0 0 1 -39.18 28.241z"/><path d="m296 272a41.246 41.246 0 0 1 -39.179-28.238l-.411-1.234a8 8 0 0 1 15.18-5.056l.41 1.228a25.267 25.267 0 0 0 24 17.3 8 8 0 0 1 0 16z"/><path d="m299.871 302.968a14.928 14.928 0 0 1 -17.9 8.44 15.2 15.2 0 0 1 -6.516-3.956l-.1-.1a27.364 27.364 0 0 0 -38.7 0 15.5 15.5 0 0 1 -7.646 4.314 14.914 14.914 0 0 1 -16.876-8.695l-20.133-46.971v95.978a64.757 64.757 0 0 0 35.8 57.92 63.069 63.069 0 0 0 56.408 0 64.756 64.756 0 0 0 35.792-57.919v-95.979z"/><path d="m232.12 411.85q-2.19-.885-4.32-1.95a64.284 64.284 0 0 1 -11.8-7.6v-26.3a8 8 0 0 1 16 0z"/><path d="m264 376v40.04a61.8 61.8 0 0 1 -16 0v-40.04a8 8 0 0 1 16 0z"/><path d="m296 376v26.3a64.284 64.284 0 0 1 -11.8 7.6c-1.38.69-2.78 1.33-4.2 1.9v-35.8a8 8 0 0 1 16 0z"/></g><path d="m192 344v144h-40l-40-64 24.412-39.06a90 90 0 0 1 42.895-35.863z" fill="#fbb540"/><path d="m320 344v144h40l40-64-24.412-39.06a90 90 0 0 0 -42.9-35.863z" fill="#fbb540"/><path d="m232.12 411.85q-2.19-.885-4.32-1.95a64.284 64.284 0 0 1 -11.8-7.6v-26.3a8 8 0 0 1 16 0z" fill="#55300b"/><path d="m264 376v40.04a61.8 61.8 0 0 1 -16 0v-40.04a8 8 0 0 1 16 0z" fill="#55300b"/><path d="m296 376v26.3a64.284 64.284 0 0 1 -11.8 7.6c-1.38.69-2.78 1.33-4.2 1.9v-35.8a8 8 0 0 1 16 0z" fill="#55300b"/><path d="m312.61 119.76c-.39.15-.61.24-.61.24l-24.06 6.87a107.346 107.346 0 0 1 -63.45-1.37l-16.49-5.5-4.73-1.97a76.751 76.751 0 0 1 109.34 1.73z" fill="#683b0d"/><path d="m487.926 486.909-3.689-26.8a67.968 67.968 0 0 0 -36.954-51.551l-69.732-34.866a97.284 97.284 0 0 0 -41.887-32.042l-7.664-3.066v-50.064a7.991 7.991 0 0 0 1.255-2.117 205.472 205.472 0 0 0 12.534-46.403h5.267a28.785 28.785 0 0 0 25.888-16 29.1 29.1 0 0 0 3.056-12.944v-14.112a28.831 28.831 0 0 0 -8.06-20.008c.037-.308.06-50.415.06-50.415a110.523 110.523 0 0 0 -110.521-110.521h-2.958a110.523 110.523 0 0 0 -110.521 110.521s.023 50.107.059 50.415a28.834 28.834 0 0 0 -8.059 20.008v14.112a29.1 29.1 0 0 0 3.056 12.944 28.785 28.785 0 0 0 25.888 16h5.268a205.525 205.525 0 0 0 12.534 46.406c.395.987.819 1.967 1.254 2.94v49.238l-7.665 3.065a97.287 97.287 0 0 0 -41.885 32.04l-69.733 34.868a67.971 67.971 0 0 0 -36.955 51.551l-3.688 26.8a8 8 0 0 0 7.926 9.092h448a8 8 0 0 0 7.926-9.091zm-230.833-382.909a68.5 68.5 0 0 1 39.023 12.218l-10.373 2.964a98.957 98.957 0 0 1 -58.727-1.277l-7.714-2.571a68.181 68.181 0 0 1 37.791-11.334zm56 5.243a85.431 85.431 0 0 0 -16.256-11.268 7.99 7.99 0 0 0 .256-1.975v-55.276a94.5 94.5 0 0 1 16 9.37zm-32-17.735a84.021 84.021 0 0 0 -16.975-3.208l.849-55.986a94.417 94.417 0 0 1 16.126 2.7zm-32.98-3.025a84.117 84.117 0 0 0 -16.113 3.302v-57.042a94.4 94.4 0 0 1 16.968-2.56zm-31.736 9.943a85.606 85.606 0 0 0 -9.864 6.327c-2.276 1.693-4.44 3.5-6.513 5.38v-60.8a94.471 94.471 0 0 1 16-9.1v55.767a7.976 7.976 0 0 0 .377 2.426zm-25.12 54.557a68.3 68.3 0 0 1 14.049-25.457c.056.02.108.045.164.064l16.485 5.5a114.927 114.927 0 0 0 68.185 1.481l19.824-5.664a68.349 68.349 0 0 1 14.528 30.353l3.508 17.532v33.046a189.8 189.8 0 0 1 -4.079 39.2 7.979 7.979 0 0 0 -11.275 3.815l-20.128 46.967a6.915 6.915 0 0 1 -8.363 3.9 7.265 7.265 0 0 1 -3.047-1.918l-.1-.1a35.363 35.363 0 0 0 -50.01 0 7.536 7.536 0 0 1 -3.658 2.148 6.888 6.888 0 0 1 -7.856-4.023l-20.128-46.967a7.979 7.979 0 0 0 -11.275-3.815 189.8 189.8 0 0 1 -4.079-39.2v-32.671zm96.743 215.017a8 8 0 0 0 -8 8v27.034a54.821 54.821 0 0 1 -16 4.89v-31.924a8 8 0 0 0 -16 0v31.924a54.793 54.793 0 0 1 -16-4.891v-27.033a8 8 0 0 0 -16 0v15.525a56.446 56.446 0 0 1 -16-39.546v-57l4.775 11.143a23 23 0 0 0 25.9 13.368 23.45 23.45 0 0 0 11.637-6.481 19.361 19.361 0 0 1 27.382 0l.105.1a22.886 22.886 0 0 0 37.429-6.991l4.772-11.142v57a56.446 56.446 0 0 1 -16 39.546v-15.522a8 8 0 0 0 -8-8zm-63.781 49.054a71.4 71.4 0 0 0 63.563 0 72.908 72.908 0 0 0 24.218-19.469v82.415h-112v-82.415a72.9 72.9 0 0 0 24.219 19.469zm135.781-205.998a13.017 13.017 0 0 1 -1.366 5.788 12.875 12.875 0 0 1 -11.578 7.156h-3.543q.48-7.049.487-14.162v-25.838h3.056a12.959 12.959 0 0 1 12.944 12.944zm-8-84.535v41.91a28.987 28.987 0 0 0 -4.944-.431h-4.5l-2.377-11.883a84.129 84.129 0 0 0 -11.1-27.988c0-.044.007-.086.007-.129v-63.161a94.514 94.514 0 0 1 22.914 61.682zm-168-62.921v64.4a8 8 0 0 0 .155 1.559 84.985 84.985 0 0 0 -8.222 18.827l-5.885 19.614h-5.1a28.987 28.987 0 0 0 -4.944.431v-41.91a94.5 94.5 0 0 1 23.996-62.921zm-19.056 160.4a12.875 12.875 0 0 1 -11.578-7.156 13.017 13.017 0 0 1 -1.366-5.788v-14.112a12.959 12.959 0 0 1 12.944-12.944h3.056v25.837q0 7.113.487 14.163zm-121.332 238.29a51.981 51.981 0 0 1 28.261-39.423l45.674-22.837-12.331 19.73a8 8 0 0 0 0 8.48l32.35 51.76h-49.566v-26.141a8 8 0 1 0 -16 0v26.141h-30.824zm112.822 17.71-35-56 21.766-34.819a81.477 81.477 0 0 1 39.081-32.676l1.723-.689v124.184zm171.566 0v-124.184l1.722.689a81.475 81.475 0 0 1 39.078 32.676l21.766 34.819-35 56zm112 0v-26.141a8 8 0 1 0 -16 0v26.141h-49.565l32.349-51.76a8 8 0 0 0 0-8.48l-12.331-19.73 45.674 22.837a51.977 51.977 0 0 1 28.26 39.423l2.437 17.71z"/><path d="m240 227.122a20.761 20.761 0 0 0 1.621 8.058 7.97 7.97 0 0 0 -1.211 2.292l-.41 1.228a25.267 25.267 0 0 1 -24 17.3 8 8 0 0 0 0 16 41.239 41.239 0 0 0 38.023-25.18 20.661 20.661 0 0 0 4.411 1.024 41.233 41.233 0 0 0 37.566 24.156 8 8 0 0 0 0-16 25.267 25.267 0 0 1 -24-17.3l-.41-1.231a8 8 0 0 0 -9.133-5.315 8.053 8.053 0 0 0 -1.579-.157 4.883 4.883 0 0 1 -4.878-4.875v-11.122a8 8 0 0 0 -16 0z"/><path d="m277.47 183.59 24 8a8 8 0 0 0 5.06-15.18l-24-8a8 8 0 1 0 -5.06 15.18z"/><circle cx="290" cy="202" r="10"/><path d="m208 192a8.019 8.019 0 0 0 2.531-.412l24-8a8 8 0 0 0 -5.06-15.18l-24 8a8 8 0 0 0 2.529 15.592z"/><circle cx="222" cy="202" r="10"/><path d="m264 264h-16a8 8 0 0 0 0 16h16a8 8 0 0 0 0-16z"/></g></svg>