<svg height="512" viewBox="0 0 512 512" width="512" xmlns="http://www.w3.org/2000/svg"><g id="filled_outline" data-name="filled outline"><path d="m410.511 410.851-114.511-66.851h-80l-114.511 66.851a60 60 0 0 0 -25.059 28.56l-20.43 48.589h400l-20.43-48.589a60 60 0 0 0 -25.059-28.56z" fill="#93b4eb"/><path d="m200 488 9.91-89.19h93.291l8.799 89.19z" fill="#eaeae8"/><path d="m295.5 344v-32h-80v32l-7.5 60.494a170.906 170.906 0 0 0 96 0z" fill="#fdc9a6"/><path d="m313.9 296h62.1l-18.475-159.345a100.194 100.194 0 0 0 -99.525-88.655 100.194 100.194 0 0 0 -99.786 91.154l-14.214 156.846h54.034" fill="#683b0d"/><path d="m295.5 312v18.45a64.341 64.341 0 0 1 -73.47 3.85 61.989 61.989 0 0 1 -6.53-4.66v-17.64z" fill="#e6af89"/><path d="m198.293 292.133a210.874 210.874 0 0 1 -21.793-93.351v-30.782l39.752-10.017a48 48 0 0 0 32.838-28.718l6.91-17.265 6.906 17.265a48 48 0 0 0 32.838 28.718l39.756 10.017v30.782a210.874 210.874 0 0 1 -21.789 93.351 64.356 64.356 0 0 1 -57.711 35.867 64.356 64.356 0 0 1 -57.707-35.867z" fill="#fdc9a6"/><g fill="#55300b"><path d="m303.5 192a8.015 8.015 0 0 1 -2.531-.412l-24-8a8 8 0 1 1 5.06-15.18l24 8a8 8 0 0 1 -2.529 15.592z"/><circle cx="289.496" cy="202" r="11"/><path d="m208 192a8 8 0 0 1 -2.577-15.575l23.5-8a8 8 0 1 1 5.156 15.146l-23.5 8a7.985 7.985 0 0 1 -2.579.429z"/><circle cx="221.496" cy="202" r="11"/></g><path d="m256 279.985a30.531 30.531 0 0 1 -21.656-8.955 8 8 0 0 1 11.312-11.314 14.646 14.646 0 0 0 20.688 0 8 8 0 1 1 11.312 11.314 30.531 30.531 0 0 1 -21.656 8.955z" fill="#e6af89"/><path d="m264 248h-16a8 8 0 0 1 -8-8v-16a8 8 0 0 1 16 0v8h8a8 8 0 0 1 0 16z" fill="#e6af89"/><path d="m96 488v-32a8 8 0 0 1 16 0v32z" fill="#5d70b3"/><path d="m400 488v-32a8 8 0 0 1 16 0v32z" fill="#5d70b3"/><path d="m179.5 176h-15.06a20.944 20.944 0 0 0 -20.94 20.944v14.112a20.944 20.944 0 0 0 2.211 9.366 20.944 20.944 0 0 0 18.729 11.578h17.06z" fill="#fdc9a6"/><path d="m330.5 176h16.055a20.944 20.944 0 0 1 20.945 20.944v14.112a20.944 20.944 0 0 1 -2.211 9.366 20.944 20.944 0 0 1 -18.738 11.578h-17.051z" fill="#fdc9a6"/><path d="m216 344-16 144-48-48z" fill="#b0d2fd"/><path d="m296 344 16 144 48-48z" fill="#b0d2fd"/><path d="m208 168a8 8 0 0 1 -7.591-10.532l16-48a8 8 0 0 1 15.18 5.06l-16 48a8 8 0 0 1 -7.589 5.472z" fill="#55300b"/><path d="m176 176a8 8 0 0 1 -7.591-10.532l16-48a8 8 0 0 1 15.18 5.06l-16 48a8 8 0 0 1 -7.589 5.472z" fill="#55300b"/><path d="m304 168a8 8 0 0 1 -7.589-5.472l-16-48a8 8 0 1 1 15.18-5.06l16 48a8 8 0 0 1 -7.591 10.532z" fill="#55300b"/><path d="m336 176a8 8 0 0 1 -7.589-5.472l-16-48a8 8 0 1 1 15.18-5.06l16 48a8 8 0 0 1 -7.591 10.532z" fill="#55300b"/><path d="m69.055 436.311-20.43 48.589a8 8 0 0 0 7.375 11.1h400a8 8 0 0 0 7.375-11.1l-20.43-48.588a68.416 68.416 0 0 0 -28.4-32.37l-110.628-64.584-.384-21.084a72.163 72.163 0 0 0 12.532-14.274h59.935a8 8 0 0 0 7.946-8.922l-9.064-78.173a28.849 28.849 0 0 0 .614-5.849v-14.112a28.768 28.768 0 0 0 -4.77-15.891l-5.254-45.32a108.2 108.2 0 0 0 -215.229 2.7l-3.208 35.4a28.916 28.916 0 0 0 -11.535 23.111v14.112a29 29 0 0 0 6.51 18.294l-5.974 65.928a8 8 0 0 0 7.964 8.722h51.936a72.188 72.188 0 0 0 11.6 13.452l.382 22-110.462 64.489a68.416 68.416 0 0 0 -28.401 32.37zm337.423-18.551a52.31 52.31 0 0 1 21.722 24.752l15.758 37.488h-27.958v-24a8 8 0 0 0 -16 0v24h-68.686l34.343-34.343a8 8 0 0 0 1-10.095l-44.8-67.206zm-56.772 21.22-31.593 31.593-10.531-94.773zm-140.768 41.02 7.238-65.137a178.043 178.043 0 0 0 79.648 0l7.238 65.137zm15.062-136.235v-.029l-.265-15.254a73.054 73.054 0 0 0 63.989.277l.28 15.387v.024c0 .063.007.126.01.188 0 .112.013.224.023.335.006.064.006.127.013.191l.006.06v.017l5.989 53.9a162.85 162.85 0 0 1 -76.093 0l6-53.983c0-.034 0-.068.007-.1.006-.059.012-.118.016-.177.006-.082.009-.164.013-.246 0-.119.007-.239.007-.358 0-.046.006-.092 0-.139zm143.019-55.765h-42.558a220.146 220.146 0 0 0 15.067-48h7.024a28.9 28.9 0 0 0 14.455-3.856zm-7.519-91.056v14.112a13.014 13.014 0 0 1 -1.367 5.788 12.874 12.874 0 0 1 -11.581 7.156h-4.534a217.236 217.236 0 0 0 1.478-25.219v-14.781h3.056a12.959 12.959 0 0 1 12.948 12.944zm-193.321-57.069a92.195 92.195 0 0 1 183.4-2.3l3.618 31.2a28.884 28.884 0 0 0 -6.645-.779h-2.552a8 8 0 0 0 -.406-2.53l-16-48a8 8 0 1 0 -15.18 5.06l11.427 34.282-13.609-3.43-14.642-43.908a8 8 0 1 0 -15.18 5.06l11.2 33.61a40.122 40.122 0 0 1 -21.279-21.847l-6.906-17.265a8 8 0 0 0 -14.856 0l-6.906 17.266a40.124 40.124 0 0 1 -21.279 21.846l11.2-33.61a8 8 0 0 0 -15.18-5.06l-14.638 43.912-13.609 3.43 11.433-34.282a8 8 0 0 0 -15.18-5.06l-16 48a8 8 0 0 0 -.41 2.53h-3.56c-.272 0-.541.013-.812.021zm-14.679 57.069a12.959 12.959 0 0 1 12.94-12.944h4.06v14.781a217.236 217.236 0 0 0 1.482 25.219h-5.542a12.872 12.872 0 0 1 -8.557-3.229c-.123-.12-.254-.233-.385-.346a13 13 0 0 1 -4-9.369zm1.258 91.056 4.433-48.925a29.2 29.2 0 0 0 7.249.925h8.032a220.146 220.146 0 0 0 15.067 48zm52.709.592a203.959 203.959 0 0 1 -20.963-89.81v-24.548l33.707-8.493a56.174 56.174 0 0 0 37.789-32.241 56.172 56.172 0 0 0 37.789 32.246l33.707 8.493v24.547a203.967 203.967 0 0 1 -20.963 89.811 56.356 56.356 0 0 1 -101.066 0zm-11.58 181.981-31.593-31.593 42.124-63.18zm-3.739-102.217-44.8 67.206a8 8 0 0 0 1 10.095l34.338 34.343h-68.686v-24a8 8 0 0 0 -16 0v24h-27.958l15.763-37.488a52.31 52.31 0 0 1 21.717-24.752z"/><path d="m276.966 183.59 24 8a8 8 0 0 0 5.06-15.18l-24-8a8 8 0 1 0 -5.06 15.18z"/><circle cx="289.496" cy="202" r="11"/><path d="m234.074 183.573a8 8 0 1 0 -5.156-15.146l-23.5 8a8 8 0 1 0 5.156 15.146z"/><circle cx="221.496" cy="202" r="11"/><path d="m266.344 259.716a14.646 14.646 0 0 1 -20.688 0 8 8 0 0 0 -11.312 11.314 30.663 30.663 0 0 0 43.312 0 8 8 0 1 0 -11.312-11.314z"/><path d="m248 248h16a8 8 0 0 0 0-16h-8v-8a8 8 0 0 0 -16 0v16a8 8 0 0 0 8 8z"/></g></svg>