<svg height="512" viewBox="0 0 512 512" width="512" xmlns="http://www.w3.org/2000/svg"><g id="filled_outline" data-name="filled outline"><path d="m296 344 126.786 73.4a60 60 0 0 1 29.334 43.44l3.88 27.16h-400l3.88-27.158a60 60 0 0 1 29.334-43.442l126.786-73.4z" fill="#d8595a"/><path d="m408 408-42.874 14.291a345.087 345.087 0 0 1 -109.126 17.709 345.087 345.087 0 0 1 -109.126-17.709l-42.874-14.291a263.153 263.153 0 0 0 40-139.472v-105.986a112 112 0 0 1 88.533-109.513 111.992 111.992 0 0 1 46.934 0c51.64 11.065 88.533 56.701 88.533 114.971v100.451a263.15 263.15 0 0 0 37.613 135.578z" fill="#fbb540"/><path d="m255.775 328a64.719 64.719 0 0 1 -57.74-35.485 209 209 0 0 1 -22.538-94.41v-38.105l19.59-13.627a106 106 0 0 1 121.576.36l18.837 13.267v39.218a209.02 209.02 0 0 1 -21.6 92.524l-.094.189a64.719 64.719 0 0 1 -58.031 36.069z" fill="#fdc9a6"/><g fill="#683b0d"><path d="m303.5 192a7.988 7.988 0 0 1 -2.531-.413l-24-8a8 8 0 1 1 5.06-15.178l24 8a8 8 0 0 1 -2.529 15.591z"/><circle cx="289.496" cy="202" r="11"/><path d="m208 192a8 8 0 0 1 -2.577-15.575l23.5-8a8 8 0 1 1 5.156 15.146l-23.5 8a7.985 7.985 0 0 1 -2.579.429z"/><circle cx="221.496" cy="202" r="11"/></g><path d="m256 279.985a30.531 30.531 0 0 1 -21.656-8.955 8 8 0 0 1 11.312-11.315 14.646 14.646 0 0 0 20.688 0 8 8 0 0 1 11.312 11.315 30.531 30.531 0 0 1 -21.656 8.955z" fill="#e6af89"/><path d="m264 248h-16a8 8 0 0 1 -8-8v-16a8 8 0 0 1 16 0v8h8a8 8 0 0 1 0 16z" fill="#e6af89"/><path d="m96 488v-32a8 8 0 0 1 16 0v32z" fill="#cf5252"/><path d="m400 488v-32a8 8 0 0 1 16 0v32z" fill="#cf5252"/><path d="m175.5 176h-11.06a20.944 20.944 0 0 0 -20.94 20.944v14.112a20.944 20.944 0 0 0 2.211 9.366 20.944 20.944 0 0 0 18.729 11.578h14.06z" fill="#fdc9a6"/><path d="m335.5 176h11.055a20.944 20.944 0 0 1 20.945 20.944v14.112a20.944 20.944 0 0 1 -2.211 9.366 20.944 20.944 0 0 1 -18.738 11.578h-15.051z" fill="#fdc9a6"/><path d="m254.32 369.019q-3.429 0-6.84-.081a80.894 80.894 0 0 1 -67.137-38.5l-3.15-5.1a8 8 0 0 1 13.614-8.406l3.149 5.1a64.951 64.951 0 0 0 53.9 30.908c5.352.127 10.771.1 16.112-.093l15.6-.838a8 8 0 0 1 .86 15.976l-15.673.843-.146.006c-3.409.124-6.852.185-10.289.185z" fill="#ea9d2d"/><path d="m257.676 399.881c-3.437 0-6.877-.061-10.288-.182l-.144-.007-15.673-.842a8 8 0 0 1 .858-15.976l15.6.837c5.341.189 10.762.22 16.114.094a64.949 64.949 0 0 0 53.9-30.909l3.149-5.1a8 8 0 1 1 13.614 8.406l-3.15 5.1a80.892 80.892 0 0 1 -67.137 38.5q-3.408.079-6.843.079z" fill="#ea9d2d"/><path d="m288.006 104a8 8 0 0 1 -1.946-.241 124.383 124.383 0 0 0 -60.12 0 8 8 0 1 1 -3.88-15.522 140.426 140.426 0 0 1 67.88 0 8 8 0 0 1 -1.934 15.763z" fill="#ea9d2d"/><path d="m56 496h400a8 8 0 0 0 7.92-9.131l-3.88-27.158a67.609 67.609 0 0 0 -33.246-49.232l-12.225-7.079-2.1-3.5a255.185 255.185 0 0 1 -36.469-131.449v-100.451c0-30.129-9.2-57.831-26.6-80.111a116.532 116.532 0 0 0 -68.259-42.682 120 120 0 0 0 -145.141 117.335v105.986a254.882 254.882 0 0 1 -38.562 134.872l-12.231 7.082a67.607 67.607 0 0 0 -33.247 49.229l-3.88 27.158a8 8 0 0 0 7.92 9.131zm96-333.458a104 104 0 0 1 125.792-101.691c49.171 10.537 82.208 53.597 82.208 107.149v3.326a28.753 28.753 0 0 0 -13.448-3.326h-3.052v-8a8 8 0 0 0 -3.392-6.54l-18.838-13.268a114.362 114.362 0 0 0 -130.752-.387l-19.59 13.628a8 8 0 0 0 -3.428 6.567v8h-2.06a28.757 28.757 0 0 0 -13.44 3.322zm207.5 34.4v14.112a13.018 13.018 0 0 1 -1.367 5.789 12.874 12.874 0 0 1 -11.581 7.157h-4.494a215.262 215.262 0 0 0 1.438-24.782v-15.218h3.056a12.959 12.959 0 0 1 12.948 12.944zm-32-32.794v35.068a202.1 202.1 0 0 1 -20.777 89l-.085.173a56.72 56.72 0 0 1 -101.463.512 201.971 201.971 0 0 1 -21.675-90.8v-33.921l16.158-11.24a98.313 98.313 0 0 1 112.4.332zm-158.429 59.852h-3.631a12.876 12.876 0 0 1 -11.578-7.155 13.024 13.024 0 0 1 -1.366-5.789v-14.112a12.959 12.959 0 0 1 12.944-12.944h2.06v14.1a215.554 215.554 0 0 0 1.571 25.9zm-17.071 44.528v-31.81a28.952 28.952 0 0 0 13.44 3.282h6.188a217.628 217.628 0 0 0 19.272 56.128 72.721 72.721 0 0 0 130.093-.671l.085-.174a217.715 217.715 0 0 0 18.5-55.283h6.974a28.949 28.949 0 0 0 13.448-3.287v31.738a271.2 271.2 0 0 0 36.053 135.1l-33.453 11.149a337.092 337.092 0 0 1 -213.193 0l-33.419-11.14a270.849 270.849 0 0 0 36.012-135.032zm-84.2 193.446a51.69 51.69 0 0 1 25.424-37.648l12.589-7.289 38.531 12.844a353.092 353.092 0 0 0 223.312 0l38.532-12.844 12.589 7.289a51.692 51.692 0 0 1 25.423 37.648l2.575 18.026h-30.775v-24a8 8 0 0 0 -16 0v24h-288v-24a8 8 0 0 0 -16 0v24h-30.775z"/><path d="m306.026 176.411-24-8a8 8 0 1 0 -5.06 15.178l24 8a8 8 0 1 0 5.06-15.178z"/><circle cx="289.496" cy="202" r="11"/><path d="m234.074 183.573a8 8 0 1 0 -5.156-15.146l-23.5 8a8 8 0 1 0 5.156 15.146z"/><circle cx="221.496" cy="202" r="11"/><path d="m266.344 259.715a14.646 14.646 0 0 1 -20.688 0 8 8 0 0 0 -11.312 11.315 30.663 30.663 0 0 0 43.312 0 8 8 0 0 0 -11.312-11.315z"/><path d="m248 248h16a8 8 0 0 0 0-16h-8v-8a8 8 0 0 0 -16 0v16a8 8 0 0 0 8 8z"/><path d="m180.343 330.442a80.894 80.894 0 0 0 67.137 38.5q3.408.081 6.84.081c3.437 0 6.88-.061 10.291-.182l.146-.006 15.673-.843a8 8 0 0 0 -.86-15.976l-15.6.838c-5.341.189-10.76.22-16.112.093a64.951 64.951 0 0 1 -53.9-30.908l-3.149-5.1a8 8 0 0 0 -13.614 8.406z"/><path d="m248.027 383.711-15.6-.837a8 8 0 0 0 -.858 15.976l15.673.842.144.007c3.411.121 6.851.182 10.288.182q3.429 0 6.844-.081a80.892 80.892 0 0 0 67.137-38.5l3.15-5.1a8 8 0 1 0 -13.614-8.406l-3.149 5.1a64.949 64.949 0 0 1 -53.9 30.909c-5.353.128-10.774.097-16.115-.092z"/><path d="m225.94 103.761a124.383 124.383 0 0 1 60.12 0 8 8 0 0 0 3.88-15.522 140.426 140.426 0 0 0 -67.88 0 8 8 0 1 0 3.88 15.522z"/></g></svg>