<svg height="512" viewBox="0 0 512 512" width="512" xmlns="http://www.w3.org/2000/svg"><g id="filled_outline" data-name="filled outline"><path d="m128 376 3.619-10.856a47.588 47.588 0 0 0 1.021-26.585l-.909-3.634a47.578 47.578 0 0 1 1.983-29.209l4.572-11.432a47.578 47.578 0 0 0 1.983-29.209 47.576 47.576 0 0 1 3.6-32.817l8.131-16.258v-98.379a53.9 53.9 0 0 1 24-44.844l6.535-13.07a53.892 53.892 0 0 1 29.282-26.361l9.06-3.4a93.417 93.417 0 0 1 69.6 1.605 93.419 93.419 0 0 1 36.149 27.508l15.508 19.385a53.831 53.831 0 0 0 3.976 4.442 47.421 47.421 0 0 1 13.89 33.533v33.74a37.7 37.7 0 0 0 5.542 19.675l5.732 9.368a48.626 48.626 0 0 1 3.671 43.437 37.7 37.7 0 0 0 2.675 33.395l4.76 7.932a37.7 37.7 0 0 1 2.675 33.395l-2.768 6.921a37.7 37.7 0 0 0 1.284 30.859 37.7 37.7 0 0 1 0 33.718l-15.571 31.141z" fill="#a8a8a8"/><path d="m296 326.636 150.883 88.493a60 60 0 0 1 29.086 43.576l4.031 29.295h-448l4.453-40.835a60 60 0 0 1 32.814-47.165l146.733-72z" fill="#cbcbcb"/><path d="m256 312.777a70.9 70.9 0 0 1 -65.827-44.567 198.16 198.16 0 0 1 -14.173-73.596v-34.158a122.96 122.96 0 0 1 8.794-45.664 29.422 29.422 0 0 1 26.6-18.486 29.423 29.423 0 0 1 21.518 8.609l15.388 15.385a76.229 76.229 0 0 0 37.365 20.511l8.731 1.941a53.122 53.122 0 0 1 41.604 51.862 198.16 198.16 0 0 1 -14.173 73.6 70.9 70.9 0 0 1 -65.827 44.563z" fill="#fdc9a6"/><path d="m208 328.777 56 32-72 47.223-8.942-70.671z" fill="#eaeae8"/><path d="m304 328.777-56 32 72 47.223 8.708-68.822z" fill="#eaeae8"/><path d="m232 376h48v112h-48z" fill="#eaeae8"/><circle cx="256" cy="416" fill="#656666" r="8"/><circle cx="256" cy="448" fill="#656666" r="8"/><path d="m312 334.636-16-8v-32h-80v32l-16 8" fill="none" stroke="#000" stroke-linecap="round" stroke-linejoin="round" stroke-width="16"/><g fill="#a8a8a8"><path d="m304 168.777h-24a8 8 0 0 1 0-16h24a8 8 0 0 1 0 16z"/><circle cx="290" cy="184.636" r="10"/><path d="m232 168.777h-24a8 8 0 0 1 0-16h24a8 8 0 0 1 0 16z"/><circle cx="222" cy="184.636" r="10"/></g><path d="m248 232a8 8 0 0 1 -7.513-10.751l8-21.859a8 8 0 1 1 15.026 5.5l-8 21.859a8 8 0 0 1 -7.513 5.251z" fill="#e6af89"/><path d="m176 158.636h-11.056a20.944 20.944 0 0 0 -20.944 20.945v14.111a20.948 20.948 0 0 0 2.211 9.367 20.945 20.945 0 0 0 18.733 11.577h19.056z" fill="#fdc9a6"/><path d="m152 352v136h-72v-96z" fill="#961b20"/><path d="m360 352v136h72v-96z" fill="#961b20"/><path d="m280.285 234.4-6.873 2.486a25.626 25.626 0 0 0 -32.873 2.324v-7.474a29.366 29.366 0 0 1 -20.421 8.264h-.165a29.366 29.366 0 0 1 -20.508-8.348l-23.445-22.875v97.06a80 80 0 0 0 50.289 74.278 80 80 0 0 0 59.422 0 80 80 0 0 0 50.289-74.278v-97.06l-15.184 19.753a29.365 29.365 0 0 1 -23.283 11.47 29.366 29.366 0 0 1 -17.248-5.6z" fill="#b2b2b2"/><path d="m224 320v56a8.064 8.064 0 0 1 -.55 2.92 79.746 79.746 0 0 1 -15.45-9.08v-49.84a8 8 0 0 1 16 0z" fill="#b2b2b2"/><path d="m264 320v65.43a78.254 78.254 0 0 1 -16 0v-65.43a8 8 0 0 1 16 0z" fill="#b2b2b2"/><path d="m304 320v49.84a79.619 79.619 0 0 1 -16 9.32v-59.16a8 8 0 0 1 16 0z" fill="#b2b2b2"/><path d="m272 264.777h-32a8 8 0 0 1 0-16h32a8 8 0 0 1 0 16z" fill="#e6af89"/><path d="m264 288h-16a8 8 0 0 1 0-16h16a8 8 0 0 1 0 16z" fill="#e6af89"/><path d="m200 236 2.664 7.991a29.262 29.262 0 0 0 27.761 20.009 29.271 29.271 0 0 0 13.087-3.089l12.488-6.244 12.488 6.244a29.271 29.271 0 0 0 13.087 3.089 29.262 29.262 0 0 0 27.761-20.009l2.664-7.991h-7.13a88.406 88.406 0 0 1 -39.537-9.333 33.97 33.97 0 0 0 -18.666 0 88.406 88.406 0 0 1 -39.537 9.333z" fill="#cbcbcb"/><path d="m224 320v56a8.064 8.064 0 0 1 -.55 2.92 79.746 79.746 0 0 1 -15.45-9.08v-49.84a8 8 0 0 1 16 0z" fill="#a8a8a8"/><path d="m264 320v65.43a78.254 78.254 0 0 1 -16 0v-65.43a8 8 0 0 1 16 0z" fill="#a8a8a8"/><path d="m304 320v49.84a79.619 79.619 0 0 1 -16 9.32v-59.16a8 8 0 0 1 16 0z" fill="#a8a8a8"/><circle cx="256" cy="416" r="8"/><circle cx="256" cy="448" r="8"/><circle cx="290" cy="184.636" r="10"/><path d="m232 152.777h-24a8 8 0 0 0 0 16h24a8 8 0 0 0 0-16z"/><circle cx="222" cy="184.636" r="10"/><path d="m483.9 457.614a67.608 67.608 0 0 0 -32.964-49.385l-10.936-6.412v-9.817a8 8 0 0 0 -4.115-6.993l-41.451-23.028a46.019 46.019 0 0 0 -3.708-30.416 29.717 29.717 0 0 1 -1.011-24.309l2.768-6.922a45.949 45.949 0 0 0 -3.244-40.482l-4.759-7.932a29.865 29.865 0 0 1 -2.108-26.308 56.875 56.875 0 0 0 -4.274-50.583l-5.732-9.369a29.686 29.686 0 0 1 -4.366-15.5v-33.74a55.065 55.065 0 0 0 -16.232-39.188 45.932 45.932 0 0 1 -3.386-3.781l-15.508-19.387a101.419 101.419 0 0 0 -114.806-31.6l-9.06 3.4a61.705 61.705 0 0 0 -33.628 30.267l-5.62 11.239a61.763 61.763 0 0 0 -25.76 50.253v42.014a28.832 28.832 0 0 0 -8 19.946v14.111a28.963 28.963 0 0 0 8.144 20.131l-7.428 14.857a55.62 55.62 0 0 0 -4.209 38.336 39.331 39.331 0 0 1 -1.649 24.3l-4.572 11.431a55.243 55.243 0 0 0 -2.316 34.12l.908 3.635a39.336 39.336 0 0 1 .623 16.226 8.146 8.146 0 0 0 -.1.9l-49.286 27.379a7.98 7.98 0 0 0 -3.69 4.473l-6.737 3.368a67.731 67.731 0 0 0 -37.188 53.452l-4.453 40.835a8 8 0 0 0 7.953 8.865h448a8 8 0 0 0 7.925-9.091zm-411.9 22.386h-31.08l3.486-31.968a51.774 51.774 0 0 1 27.594-40.418zm80-300.419a12.958 12.958 0 0 1 12.944-12.944h3.056v27.977c0 3.931.12 7.9.346 11.836-.018.061-.025.126-.042.187h-3.36a12.874 12.874 0 0 1 -11.578-7.157 13.017 13.017 0 0 1 -1.366-5.788zm-8 300.419h-56v-81.923a8.055 8.055 0 0 0 .741-1.782l55.259-30.695zm12.057-134.895a8 8 0 0 0 -7.942-.1l-6.083 3.379a55.489 55.489 0 0 0 -1.631-11.767l-.908-3.635a39.331 39.331 0 0 1 1.649-24.3l4.572-11.431a55.246 55.246 0 0 0 2.316-34.121 39.6 39.6 0 0 1 3-27.3l7.019-14.037a29.218 29.218 0 0 0 6.9.838h3.051v83.2a88.366 88.366 0 0 0 6.247 32.73l-16.272 8.137a7.964 7.964 0 0 0 -1.918-1.593zm67.943 134.895h-64v-116.419l17.226-8.613 6.837 54.032a8 8 0 0 0 12.325 5.685l27.612-18.106zm-28.8-110.463a87.915 87.915 0 0 0 19.5 14.008l-16.37 10.737zm76.8 110.463h-32v-87.623a86.68 86.68 0 0 0 32 0zm.145-104h-.145v.031a71.476 71.476 0 0 1 -8 1.362v-57.393a8 8 0 0 0 -16 0v57.393a72.169 72.169 0 0 1 -18.74-4.7c-1.906-.763-3.759-1.6-5.568-2.51a7.986 7.986 0 0 0 .308-2.183v-48a8 8 0 0 0 -16 0v39.559a71.643 71.643 0 0 1 -24-53.721v-78.078l8.018 7.823a7.971 7.971 0 0 0 .393 2.947l2.663 7.99a37.26 37.26 0 0 0 52.015 21.545l8.911-4.454 8.909 4.454a37.263 37.263 0 0 0 52.017-21.544l1.68-5.041a37.121 37.121 0 0 0 8.553-8.075l.841-1.093v73.526a71.643 71.643 0 0 1 -24 53.721v-39.559a8 8 0 0 0 -16 0v48a7.986 7.986 0 0 0 .308 2.178c-1.809.905-3.662 1.747-5.568 2.51a72.636 72.636 0 0 1 -10.595 3.312zm7.855-207.223h24a8 8 0 0 0 8-8c0-.248-.015-.494-.037-.736a44.877 44.877 0 0 1 16.037 34.573c0 3.969-.134 7.977-.383 11.943l-13.143 17.1a21.267 21.267 0 0 1 -4.5 4.346h-5.104a80.834 80.834 0 0 1 -35.959-8.488 7.991 7.991 0 0 0 -3.578-.845h-6.863l5.043-13.777a8 8 0 1 0 -15.026-5.5l-7.779 21.256a80.863 80.863 0 0 1 -33.208 7.351 21.532 21.532 0 0 1 -2.469-2.068l-20.7-20.2c-.216-3.7-.331-45.273-.331-45.273a114.448 114.448 0 0 1 8.222-42.693 21.422 21.422 0 0 1 35.036-7.192l15.389 15.39a84.094 84.094 0 0 0 41.287 22.664l8.731 1.94a46.162 46.162 0 0 1 7.144 2.212h-19.809a8 8 0 0 0 0 16zm20.759 75.134a21.266 21.266 0 0 1 -28.694 9.844l-12.488-6.243a7.993 7.993 0 0 0 -7.154 0l-12.489 6.243a21.265 21.265 0 0 1 -28.693-9.844 97 97 0 0 0 37.27-9.244h14.978a97 97 0 0 0 37.27 9.244zm16.041 125.626-3.131 24.745-16.369-10.737a87.915 87.915 0 0 0 19.5-14.008zm35.2 110.463h-64v-83.421l27.612 18.11a8 8 0 0 0 12.325-5.689l6.4-50.607 17.663 10.361zm3.943-134.895a7.99 7.99 0 0 0 -3.749 5.215l-15.537-9.112a88.255 88.255 0 0 0 7.343-35.37v-97.061a7.963 7.963 0 0 0 -.348-2.293c.227-3.948.348-7.927.348-11.87a61.124 61.124 0 0 0 -47.864-59.668l-8.731-1.94a68.115 68.115 0 0 1 -33.444-18.36l-15.39-15.389a37.421 37.421 0 0 0 -61.2 12.564 130.35 130.35 0 0 0 -9 38.816h-3.425a28.987 28.987 0 0 0 -4.944.431v-33.447a45.8 45.8 0 0 1 20.438-38.187 8 8 0 0 0 2.717-3.079l6.536-13.071a45.757 45.757 0 0 1 24.935-22.448l9.06-3.4a85.421 85.421 0 0 1 96.694 26.62l15.508 19.386a61.96 61.96 0 0 0 4.566 5.1 39.168 39.168 0 0 1 11.544 27.877v33.74a45.685 45.685 0 0 0 6.718 23.851l5.732 9.368a40.809 40.809 0 0 1 3.067 36.29 45.949 45.949 0 0 0 3.244 40.482l4.759 7.932a29.865 29.865 0 0 1 2.108 26.308l-2.769 6.922a45.733 45.733 0 0 0 1.557 37.408 29.843 29.843 0 0 1 3.066 14.952l-15.6-8.665a8 8 0 0 0 -7.939.098zm68.057 134.895h-56v-114.4l56 31.111zm16 0v-59.634l2.836 1.663a51.7 51.7 0 0 1 25.208 37.771l2.78 20.2z"/><path d="m264 272h-16a8 8 0 0 0 0 16h16a8 8 0 0 0 0-16z"/></g></svg>