<svg height="512" viewBox="0 0 512 512" width="512" xmlns="http://www.w3.org/2000/svg"><g id="filled_outline" data-name="filled outline"><path d="m304 368 123.807 52.948a37.263 37.263 0 0 1 22.8 29.319l5.393 37.733h-400l5.39-37.733a37.263 37.263 0 0 1 22.8-29.319l123.81-52.948z" fill="#0bafea"/><path d="m215.5 312v23.971a49.5 49.5 0 0 1 -2.539 15.646l-5.461 16.383.5 48h96l-.5-48-5.461-16.383a49.467 49.467 0 0 1 -2.539-15.646v-23.971z" fill="#fdc9a6"/><path d="m295.92 330.03a64.692 64.692 0 0 1 -80.82-.41q.405-5.445.4-10.92v-6.7h80v6.7c0 3.79.14 7.56.42 11.33z" fill="#fdc9a6"/><path d="m295.92 330.03a64.692 64.692 0 0 1 -80.82-.41q.405-5.445.4-10.92v-6.7h80v6.7c0 3.79.14 7.56.42 11.33z" fill="#e6af89"/><path d="m96 488v-32a8 8 0 0 1 16 0v32z" fill="#0a9acd"/><path d="m400 488v-32a8 8 0 0 1 16 0v32z" fill="#0a9acd"/><path d="m313.9 296h12.844a42.994 42.994 0 0 0 42.6-48.8l-17.344-127.2-2.007-7.55a46.9 46.9 0 0 0 -30.493-32.45 56.721 56.721 0 0 0 -51.05-32h-6.338q-1.446 0-2.887.038c-45.527 1.188-84.939 32.08-98.377 75.6a44.286 44.286 0 0 0 -1.775 8.917l-7.073 75.445-3.738 41.113a43 43 0 0 0 42.818 46.887z" fill="#683b0d"/><path d="m255.775 328a64.719 64.719 0 0 1 -57.74-35.485c-9.9-19.545-16.626-50.32-20.006-78.379a51.5 51.5 0 0 1 29.67-52.927l35.233-16.183a80.026 80.026 0 0 0 45.068-57.026l47.5 88v23.218a209.02 209.02 0 0 1 -21.6 92.524l-.094.189a64.719 64.719 0 0 1 -58.031 36.069z" fill="#fdc9a6"/><g fill="#683b0d"><path d="m303.5 192a7.983 7.983 0 0 1 -2.531-.413l-24-8a8 8 0 1 1 5.059-15.178l24 8a8 8 0 0 1 -2.528 15.591z"/><circle cx="289.496" cy="202" r="11"/><path d="m208 192a8 8 0 0 1 -2.579-15.575l23.5-8a8 8 0 1 1 5.157 15.146l-23.5 8a7.994 7.994 0 0 1 -2.578.429z"/><circle cx="221.496" cy="202" r="11"/></g><path d="m256 280a30.533 30.533 0 0 1 -21.657-8.957 8 8 0 0 1 11.314-11.313 14.644 14.644 0 0 0 20.686 0 8 8 0 0 1 11.314 11.313 30.533 30.533 0 0 1 -21.657 8.957z" fill="#e6af89"/><path d="m264 248.014h-16a8 8 0 0 1 -8-8v-16a8 8 0 0 1 16 0v8h8a8 8 0 0 1 0 16z" fill="#e6af89"/><path d="m335.5 176h11.055a20.944 20.944 0 0 1 20.945 20.944v14.112a20.944 20.944 0 0 1 -2.211 9.366 20.944 20.944 0 0 1 -18.738 11.578h-18.551z" fill="#fdc9a6"/><path d="m304 488h-96v-83.506a170.906 170.906 0 0 0 96 0z" fill="#fdfefb"/><path d="m208 368v120h-40l-8-40 16-8-24-24z" fill="#0a9acd"/><path d="m304 368v120h40l8-40-16-8 24-24z" fill="#0a9acd"/><path d="m200.911 362.331-119.864 51.262a45.257 45.257 0 0 0 -27.576 35.543l-5.39 37.733a8 8 0 0 0 7.919 9.131h400a8 8 0 0 0 7.919-9.131l-5.39-37.733a45.254 45.254 0 0 0 -27.576-35.543l-121.022-51.757a147.6 147.6 0 0 1 -6.431-43.136c0-.153-.015-.3-.023-.454a72.556 72.556 0 0 0 12.558-14.246h3.435a57.346 57.346 0 0 0 56.819-65.092l-2.475-18.15a29.1 29.1 0 0 0 1.682-9.7v-14.114a28.832 28.832 0 0 0 -7.591-19.516l-7.978-58.509a7.885 7.885 0 0 0 -.2-.974l-2.006-7.55a54.732 54.732 0 0 0 -32.553-36.829 65.126 65.126 0 0 0 -56.722-33.566h-6.339q-1.55 0-3.094.041c-48.678 1.27-91.2 33.915-105.813 81.232a52.312 52.312 0 0 0 -2.1 10.531l-7.071 75.472-3.108 34.188a57.327 57.327 0 0 0 54.554 62.469 72.558 72.558 0 0 0 12.075 13.841 7.89 7.89 0 0 0 -.058.928 147.584 147.584 0 0 1 -6.581 43.629zm-54.568 59.326 16.157 16.152-6.073 3.036a8 8 0 0 0 -4.267 8.724l6.082 30.431h-46.242v-24a8 8 0 0 0 -16 0v24h-30.776l4.086-28.6a29.26 29.26 0 0 1 18.028-23.1l75.869-32.447-16.414 14.069a8 8 0 0 0 -.45 11.731zm53.657 58.343h-25.441l-5.516-27.577 10.535-5.268a8 8 0 0 0 2.079-12.812l-17.891-17.891 36.234-31.058zm224.661-51.7a29.259 29.259 0 0 1 18.029 23.1l4.086 28.6h-30.776v-24a8 8 0 0 0 -16 0v24h-46.241l6.086-30.431a8 8 0 0 0 -4.267-8.724l-6.073-3.036 16.152-16.152a8 8 0 0 0 -.45-11.731l-16.413-14.068zm-112.661-23.643v-19.263l36.234 31.058-17.891 17.891a8 8 0 0 0 2.079 12.812l10.535 5.268-5.516 27.577h-25.441zm-16 75.343h-80v-65.169a177.871 177.871 0 0 0 80-.01zm0-81.618a162.67 162.67 0 0 1 -80-.02v-30.355c0-.094-.008-.189-.011-.283a163.465 163.465 0 0 0 7.221-39.37 73.3 73.3 0 0 0 64.587.3 163.568 163.568 0 0 0 8.109 41.879c.026.077.066.144.094.22zm63.851-161.6.585 4.285a41.322 41.322 0 0 1 -35.809 46.6 218.277 218.277 0 0 0 14.951-47.667h6.973a28.942 28.942 0 0 0 13.3-3.215zm-.355-39.841v14.112a13.012 13.012 0 0 1 -1.367 5.789 12.875 12.875 0 0 1 -11.578 7.158h-4.493a215.262 215.262 0 0 0 1.438-24.782v-15.218h3.055a12.959 12.959 0 0 1 12.949 12.944zm-191.996 77.595a40.89 40.89 0 0 1 -10.645-31.623l3.106-34.167 7.069-75.449a36.26 36.26 0 0 1 1.454-7.3c12.585-40.754 49.132-68.868 90.941-69.959q1.34-.038 2.682-.038h6.339a49 49 0 0 1 43.854 27.487 8 8 0 0 0 4.671 4.1 38.8 38.8 0 0 1 25.3 26.916l1.879 7.069 6.368 46.7a29.026 29.026 0 0 0 -3.958-.278h-6.282l-45.238-83.794a8 8 0 0 0 -14.885 2.231 72.232 72.232 0 0 1 -40.563 51.325l-35.233 16.183a59.31 59.31 0 0 0 -34.273 61.154c3.359 27.892 9.227 53.139 16.46 71.3a40.935 40.935 0 0 1 -19.046-11.857zm37.671 14.364c-8.406-16.6-15.4-44.2-19.2-75.721a43.36 43.36 0 0 1 25.066-44.7l35.234-16.179a88.321 88.321 0 0 0 43.582-44.02l37.647 69.741v21.2a202.092 202.092 0 0 1 -20.773 88.979l-.093.188a56.72 56.72 0 0 1 -101.463.512z"/><path d="m276.966 183.589 24 8a8 8 0 1 0 5.059-15.178l-24-8a8 8 0 1 0 -5.059 15.178z"/><circle cx="289.496" cy="202" r="11"/><path d="m234.074 183.573a8 8 0 1 0 -5.157-15.146l-23.5 8a8 8 0 1 0 5.158 15.146z"/><circle cx="221.496" cy="202" r="11"/><path d="m234.343 271.029a30.661 30.661 0 0 0 43.314 0 8 8 0 0 0 -11.314-11.313 14.644 14.644 0 0 1 -20.686 0 8 8 0 0 0 -11.314 11.313z"/><path d="m248 248h16a8 8 0 0 0 0-16h-8v-8a8 8 0 0 0 -16 0v16a8 8 0 0 0 8 8z"/></g></svg>