<svg height="512" viewBox="0 0 512 512" width="512" xmlns="http://www.w3.org/2000/svg"><g id="filled_outline" data-name="filled outline"><path d="m296 341.859 146.1 68.187a60 60 0 0 1 34.13 46.675l3.77 29.138h-448l3.768-29.138a60 60 0 0 1 34.132-46.675l146.1-68.187" fill="#5e8569"/><path d="m312 349.859-16-8v-32h-80v32l-16 8 56 58.141z" fill="#f6bb92"/><path d="m296 309.86v13.78c-.08.06-.17.11-.25.17a70.9 70.9 0 0 1 -79.75-.17v-13.78z" fill="#f6bb92"/><path d="m248 414.4-48-14.4v-24h-32l6.55-16.376a90.744 90.744 0 0 1 29.8-38.89l11.65-8.734v32.26a38 38 0 0 0 11.13 26.87l28.87 28.87z" fill="#85bc94"/><path d="m296 309.86v13.78c-.08.06-.17.11-.25.17a70.9 70.9 0 0 1 -79.75-.17v-13.78z" fill="#bd9070"/><g fill="#55785f"><path d="m72 485.859v-32a8 8 0 1 1 16 0v32z"/><path d="m424 485.859v-32a8 8 0 1 1 16 0v32z"/><path d="m240 486h-16v-54l16-16z"/><circle cx="256" cy="453.859" r="8"/><path d="m384 464h-64a8 8 0 0 1 0-16h64a8 8 0 0 1 0 16z"/></g><path d="m296 312v32.26a38 38 0 0 1 -11.13 26.87l-52.87 52.87 80-24v-24h32l-6.55-16.376a90.744 90.744 0 0 0 -29.805-38.89z" fill="#85bc94"/><path d="m316.64 28.071-1.442-.16a62 62 0 0 0 -56.447 24.421l-2.751 3.668-2.751-3.668a62 62 0 0 0 -56.449-24.421l-1.442.16a62 62 0 0 0 -49.809 36.44l-8.1 18.224a60 60 0 0 0 -2.092 43.342l16.643 49.923 2.871 8 199.613 5.859 5.516-13.859 16.641-49.923a60 60 0 0 0 -2.092-43.342l-8.1-18.224a62 62 0 0 0 -49.809-36.44z" fill="#48351b"/><path d="m256 328a70.9 70.9 0 0 1 -65.827-44.567 198.156 198.156 0 0 1 -14.173-73.596v-57.837l24-24h6.124a56.586 56.586 0 0 0 49.876-29.859 56.586 56.586 0 0 0 49.876 29.859h6.124l24 24v57.837a198.156 198.156 0 0 1 -14.173 73.6 70.9 70.9 0 0 1 -65.827 44.563z" fill="#f6bb92"/><path d="m304 181.859h-24a8 8 0 0 1 0-16h24a8 8 0 0 1 0 16z" fill="#48351b"/><circle cx="290" cy="199.859" fill="#48351b" r="10"/><path d="m232 181.859h-24a8 8 0 0 1 0-16h24a8 8 0 0 1 0 16z" fill="#48351b"/><circle cx="222" cy="199.859" fill="#48351b" r="10"/><path d="m264 288h-16a8 8 0 0 1 0-16h16a8 8 0 0 1 0 16z" fill="#bd9070"/><path d="m264 245.859h-16a8 8 0 0 1 -7.59-10.53l8-24a8 8 0 0 1 15.18 5.061l-4.49 13.469h4.9a8 8 0 0 1 0 16z" fill="#bd9070"/><path d="m176 173.859h-11.056a20.944 20.944 0 0 0 -20.944 20.941v14.111a20.948 20.948 0 0 0 2.211 9.367 20.945 20.945 0 0 0 18.733 11.577h12.056z" fill="#f6bb92"/><path d="m336 173.859h11.056a20.944 20.944 0 0 1 20.944 20.941v14.111a20.948 20.948 0 0 1 -2.211 9.367 20.945 20.945 0 0 1 -18.733 11.577h-15.056z" fill="#f6bb92"/><path d="m280 181.859h24a8 8 0 0 0 0-16h-24a8 8 0 0 0 0 16z"/><circle cx="290" cy="199.859" r="10"/><path d="m240 173.859a8 8 0 0 0 -8-8h-24a8 8 0 0 0 0 16h24a8 8 0 0 0 8-8z"/><circle cx="222" cy="199.859" r="10"/><path d="m264 272h-16a8 8 0 0 0 0 16h16a8 8 0 0 0 0-16z"/><path d="m484.165 455.694a67.663 67.663 0 0 0 -38.679-52.9l-101.03-47.151a98.709 98.709 0 0 0 -32.012-41.313l-1.2-.9a78.6 78.6 0 0 0 18.011-27.03 205.369 205.369 0 0 0 12.834-48.544h4.967a28.784 28.784 0 0 0 25.888-16 29.092 29.092 0 0 0 3.056-12.941v-14.115a28.829 28.829 0 0 0 -7.4-19.3l15.63-46.893a67.849 67.849 0 0 0 -2.371-49.122l-8.1-18.222a70.241 70.241 0 0 0 -56.236-41.143l-1.441-.16a70.33 70.33 0 0 0 -60.082 23.107 70.318 70.318 0 0 0 -60.082-23.107l-1.44.16a70.241 70.241 0 0 0 -56.238 41.143l-8.1 18.222a67.849 67.849 0 0 0 -2.371 49.122l15.631 46.893a28.829 28.829 0 0 0 -7.4 19.3v14.111a29.092 29.092 0 0 0 3.056 12.944 28.784 28.784 0 0 0 25.888 16h4.967a205.4 205.4 0 0 0 12.834 48.545 79.122 79.122 0 0 0 17.961 27.065l-1.15.863a98.7 98.7 0 0 0 -32.01 41.312l-101.031 47.16a67.662 67.662 0 0 0 -38.68 52.9l-3.769 29.139a8 8 0 0 0 7.934 9.02h448a8 8 0 0 0 7.934-9.026zm-154.143-93.094 2.163 5.4h-20.185a8 8 0 0 0 -8 8v18.048l-42.65 12.8 1.1-1.978 28.078-28.078a45.7 45.7 0 0 0 13.472-32.532v-16.244a82.71 82.71 0 0 1 26.022 34.584zm-74.022 26.086-23.213-23.213a29.8 29.8 0 0 1 -8.787-21.213v-14.975a79.248 79.248 0 0 0 64-.066v15.041a29.8 29.8 0 0 1 -8.787 21.213zm104-179.771a13.017 13.017 0 0 1 -1.366 5.788 12.875 12.875 0 0 1 -11.578 7.156h-3.417c.231-3.992.361-8 .361-12.022v-27.978h3.056a12.959 12.959 0 0 1 12.944 12.941zm-195.056 12.944a12.875 12.875 0 0 1 -11.578-7.156 13.017 13.017 0 0 1 -1.366-5.788v-14.115a12.959 12.959 0 0 1 12.944-12.945h3.056v27.978c0 4.022.13 8.029.361 12.022zm5.4-75.516a8 8 0 0 0 -2.344 5.657v13.859h-3.056a28.9 28.9 0 0 0 -7.556 1.007l-14.439-43.319a51.881 51.881 0 0 1 1.813-37.564l8.1-18.222a54.189 54.189 0 0 1 43.383-31.739l1.442-.16a54.217 54.217 0 0 1 49.163 21.27l2.75 3.668a8 8 0 0 0 12.8 0l2.751-3.668a54.219 54.219 0 0 1 49.163-21.27l1.443.16a54.189 54.189 0 0 1 43.382 31.739l8.1 18.222a51.883 51.883 0 0 1 1.813 37.565l-14.439 43.318a28.9 28.9 0 0 0 -7.556-1.007h-3.057v-13.859a8 8 0 0 0 -2.343-5.657l-24-24a8 8 0 0 0 -5.657-2.343h-6.124a48.509 48.509 0 0 1 -42.824-25.638 8 8 0 0 0 -14.1 0 48.509 48.509 0 0 1 -42.828 25.638h-6.124a8 8 0 0 0 -5.657 2.343zm27.256 134.119a189.333 189.333 0 0 1 -13.6-70.625v-54.524l19.313-19.313h2.811a64.47 64.47 0 0 0 49.876-23.541 64.47 64.47 0 0 0 49.876 23.541h2.811l19.313 19.313v54.524a189.333 189.333 0 0 1 -13.6 70.625 62.9 62.9 0 0 1 -116.8 0zm-15.622 82.138a82.707 82.707 0 0 1 26.022-34.584v16.244a45.7 45.7 0 0 0 13.473 32.527l23.213 23.213-3.888 3.887-32.798-9.839v-18.048a8 8 0 0 0 -8-8h-20.185zm44.365 55.747a7.976 7.976 0 0 0 -2.323 5.653h-.02v53.859h-136v-24a8 8 0 1 0 -16 0v24h-30.9l2.6-20.112a51.748 51.748 0 0 1 29.581-40.447l86.762-40.5a7.994 7.994 0 0 0 7.957 7.2h24v16a8 8 0 0 0 5.7 7.662l30.247 9.075zm213.657 59.512v-24a8 8 0 1 0 -16 0v24h-184v-47.906l74.3-22.29a8 8 0 0 0 5.7-7.663v-16h24a7.995 7.995 0 0 0 7.957-7.2l86.763 40.5a51.749 51.749 0 0 1 29.58 40.447l2.6 20.112z"/><path d="m248 245.859h16a8 8 0 0 0 0-16h-4.9l4.49-13.469a8 8 0 0 0 -15.18-5.061l-8 24a8 8 0 0 0 7.59 10.53z"/><circle cx="256" cy="453.859" r="8"/><path d="m384 448h-64a8 8 0 0 0 0 16h64a8 8 0 0 0 0-16z"/></g></svg>