<svg height="512" viewBox="0 0 512 512" width="512" xmlns="http://www.w3.org/2000/svg"><g id="filled_outline" data-name="filled outline"><path d="m452.357 457.463a60 60 0 0 0 -38.871-49.205l-92.218-33.753a39.27 39.27 0 0 1 -23.757-24.459 39.27 39.27 0 0 1 -2.015-12.419v-27.627h-80v27.816a39.27 39.27 0 0 1 -1.9 12.068l-.009.03a39.274 39.274 0 0 1 -23.818 24.79l-91.255 33.554a60 60 0 0 0 -38.871 49.205l-3.643 30.537h400z" fill="#fdc9a6"/><path d="m295.5 310v17.78a56.208 56.208 0 0 1 -80-1.01v-16.77z" fill="#f6bb92"/><path d="m295.5 310v17.78a56.208 56.208 0 0 1 -80-1.01v-16.77z" fill="#e6af89"/><path d="m232 55.284-7.1-4.262a77.338 77.338 0 0 0 -68.515-5.49 77.341 77.341 0 0 0 -48.351 65.386 146.027 146.027 0 0 0 21.693 89.521l7.863 12.582a33.128 33.128 0 0 1 4.7 22.242 133.4 133.4 0 0 1 -37.732 75.463l-8.558 8.558h1.518c38.777.871 76.57-16.979 102.482-48z" fill="#55300b"/><path d="m175.5 176h-11.06a20.944 20.944 0 0 0 -20.94 20.944v14.112a20.944 20.944 0 0 0 2.211 9.366 20.944 20.944 0 0 0 18.729 11.578h19.56z" fill="#fdc9a6"/><path d="m335.5 176h11.055a20.944 20.944 0 0 1 20.945 20.944v14.112a20.944 20.944 0 0 1 -2.211 9.366 20.944 20.944 0 0 1 -18.738 11.578h-18.551z" fill="#fdc9a6"/><path d="m312 208 19.459-12.973a59.522 59.522 0 0 0 26.388-53.261 100.048 100.048 0 0 0 -99.847-93.766 100.194 100.194 0 0 0 -99.786 91.154 81.777 81.777 0 0 0 30.6 59.891l11.186 8.955z" fill="#683b0d"/><path d="m392 488h-272a80.016 80.016 0 0 0 32-64v-35.41l37.77-13.89c.76-.28 1.5-.58 2.23-.9v18.2a64 64 0 0 0 128 0v-18c.42.18.84.34 1.27.5l38.73 14.18v35.32a80.016 80.016 0 0 0 32 64z" fill="#f6bb92"/><path d="m207.664 300.484a222.368 222.368 0 0 1 -31.164-113.521v-18.963a49.767 49.767 0 0 0 36.838-40.054l2.662-15.946a258.342 258.342 0 0 0 108.974 53.645l10.526 2.355v18.963a222.368 222.368 0 0 1 -31.16 113.521 56.212 56.212 0 0 1 -48.34 27.516 56.212 56.212 0 0 1 -48.336-27.516z" fill="#fdc9a6"/><path d="m303.5 192h-24a8 8 0 0 1 0-16h24a8 8 0 0 1 0 16z" fill="#683b0d"/><circle cx="289.496" cy="211" fill="#683b0d" r="11"/><path d="m232 192h-23.5a8 8 0 0 1 0-16h23.5a8 8 0 0 1 0 16z" fill="#683b0d"/><circle cx="221.496" cy="211" fill="#683b0d" r="11"/><g fill="#e6af89"><path d="m256 286.613a30.536 30.536 0 0 1 -21.657-8.956 8 8 0 0 1 11.314-11.314 14.628 14.628 0 0 0 20.686 0 8 8 0 0 1 11.314 11.314 30.536 30.536 0 0 1 -21.657 8.956z"/><path d="m264 256h-16a8 8 0 0 1 -8-8v-16a8 8 0 0 1 16 0v8h8a8 8 0 0 1 0 16z"/><path d="m96 488v-32a8 8 0 0 1 16 0v32z"/><path d="m400 488v-32a8 8 0 0 1 16 0v32z"/></g><path d="m313.36 162.76q-9.555-2.61-18.85-5.93l-14.1-42.3a8 8 0 1 1 15.18-5.06z" fill="#55300b"/><path d="m277.06 149.87q-4.935-2.175-9.77-4.55-5.28-2.595-10.43-5.43l-8.45-25.36a8 8 0 1 1 15.18-5.06z" fill="#55300b"/><path d="m340.15 180.46a7.973 7.973 0 0 1 -2.53.41 7.862 7.862 0 0 1 -2.12-.29v-12.58l-8.57-1.91-14.52-43.56a8 8 0 1 1 15.18-5.06l17.62 52.87a8 8 0 0 1 -5.06 10.12z" fill="#55300b"/><path d="m392 488h-272a80.016 80.016 0 0 0 32-64v-35.41l37.77-13.89c.76-.28 1.5-.58 2.23-.9v18.2a64 64 0 0 0 128 0v-18c.42.18.84.34 1.27.5l38.73 14.18v35.32a80.016 80.016 0 0 0 32 64z" fill="#f1746a"/><path d="m272 408a8 8 0 0 1 -5.657-13.657l16-16a8 8 0 0 1 11.314 11.314l-16 16a7.976 7.976 0 0 1 -5.657 2.343z" fill="#e6af89"/><path d="m240 408a7.976 7.976 0 0 1 -5.657-2.343l-16-16a8 8 0 0 1 11.314-11.314l16 16a8 8 0 0 1 -5.657 13.657z" fill="#e6af89"/><path d="m56 496h400a8 8 0 0 0 7.944-8.948l-3.644-30.537a67.7 67.7 0 0 0 -44.065-55.77l-92.217-33.753a31.266 31.266 0 0 1 -20.518-29.365v-22.656a63.653 63.653 0 0 0 7.719-10.4 230.425 230.425 0 0 0 26.081-64.571h9.252a28.788 28.788 0 0 0 25.889-16 29.092 29.092 0 0 0 3.056-12.944v-14.112a28.959 28.959 0 0 0 -14.838-25.26 67.518 67.518 0 0 0 5.173-30.42 108.1 108.1 0 0 0 -137.073-97.25 85.817 85.817 0 0 0 -75.349-5.914 84.877 84.877 0 0 0 -53.352 72.15 155.027 155.027 0 0 0 22.88 94.427l7.864 12.581a25.162 25.162 0 0 1 3.567 16.87 126.186 126.186 0 0 1 -35.469 70.942l-8.557 8.557a8 8 0 0 0 5.657 13.657h1.429c.929.02 1.851.03 2.779.03 33.745 0 66.976-13.346 92.75-37.077q3.654 7.287 7.827 14.331a63.5 63.5 0 0 0 6.711 9.266v23.982a31.319 31.319 0 0 1 -20.489 29.384l-91.253 33.549a67.7 67.7 0 0 0 -44.054 55.766l-3.644 30.537a8 8 0 0 0 7.944 8.948zm312-95.872 42.725 15.638a51.771 51.771 0 0 1 33.688 42.645l2.576 21.589h-30.989v-24a8 8 0 0 0 -16 0v24h-5.245a72.366 72.366 0 0 1 -26.755-56zm-8.5-203.184v14.112a13.012 13.012 0 0 1 -1.367 5.789 12.875 12.875 0 0 1 -11.582 7.155h-6.063a230.187 230.187 0 0 0 2.825-28.051 67.261 67.261 0 0 0 9.445-10.359 12.955 12.955 0 0 1 6.742 11.354zm-101.5-140.944a92.216 92.216 0 0 1 91.865 86.268 51.54 51.54 0 0 1 -5.215 25.97c-.225.055-.447.117-.664.191a7.953 7.953 0 0 0 -.394-2.959l-16-48a8 8 0 1 0 -15.178 5.06l11.549 34.647q-6.892-1.626-13.682-3.64l-14.692-44.067a8 8 0 1 0 -15.178 5.06l10.845 32.536c-5.994-2.319-11.888-4.89-17.688-7.66l-9.979-29.936a8 8 0 1 0 -15.178 5.06l4.63 13.89a249.376 249.376 0 0 1 -31.919-22.566 8 8 0 0 0 -13.013 4.831l-2.658 15.946a41.774 41.774 0 0 1 -30.916 33.615 7.99 7.99 0 0 0 -3.378 1.808 73.594 73.594 0 0 1 -4.927-22.735 92.194 92.194 0 0 1 91.77-83.319zm-86.488 168h-7.072a12.875 12.875 0 0 1 -11.578-7.155 13.014 13.014 0 0 1 -1.366-5.789v-14.112a12.958 12.958 0 0 1 12.944-12.944h.106q1.875 2.885 3.981 5.645a230.112 230.112 0 0 0 2.985 34.355zm-55.512-112.417a68.968 68.968 0 0 1 43.35-58.624 69.768 69.768 0 0 1 49.018-.915 108.249 108.249 0 0 0 -58.126 86.388 7.91 7.91 0 0 0 -.024 1.11 89.535 89.535 0 0 0 6.511 29.509 29 29 0 0 0 -21.14 25.65 138.948 138.948 0 0 1 -19.589-83.118zm.023 198.623a142.4 142.4 0 0 0 34.183-73.81c.006-.039.009-.078.014-.116a28.913 28.913 0 0 0 14.22 3.72h10.26a230.6 230.6 0 0 0 11.218 34.8c-19.39 19.377-44.062 31.782-69.893 35.406zm68.477-123.243v-13.1a57.785 57.785 0 0 0 36.729-44.6l.433-2.595a268.121 268.121 0 0 0 79.764 40.9c.084.028.167.055.251.081q10.646 3.348 21.546 5.805l4.269.955v12.555a214.485 214.485 0 0 1 -30.035 109.436 48.213 48.213 0 0 1 -82.914 0 214.485 214.485 0 0 1 -30.043-109.437zm15.5 191.744a47.356 47.356 0 0 0 23.5-40.891v-10.709a63.851 63.851 0 0 0 64 .585v9.935a47.243 47.243 0 0 0 24.5 41.418v12.955a56 56 0 0 1 -112 0zm-40 15.466 24-8.825v6.652a72 72 0 0 0 144 0v-6.512l24 8.784v29.728a88.447 88.447 0 0 0 20.159 56h-232.318a88.447 88.447 0 0 0 20.159-56zm-92.413 64.238a51.771 51.771 0 0 1 33.688-42.645l42.725-15.71v23.944a72.366 72.366 0 0 1 -26.755 56h-5.245v-24a8 8 0 0 0 -16 0v24h-30.989z"/><path d="m279.5 192h24a8 8 0 0 0 0-16h-24a8 8 0 0 0 0 16z"/><circle cx="289.496" cy="211" r="11"/><path d="m240 184a8 8 0 0 0 -8-8h-23.5a8 8 0 0 0 0 16h23.5a8 8 0 0 0 8-8z"/><circle cx="221.496" cy="211" r="11"/><path d="m266.343 266.343a14.628 14.628 0 0 1 -20.686 0 8 8 0 0 0 -11.314 11.314 30.663 30.663 0 0 0 43.314 0 8 8 0 0 0 -11.314-11.314z"/><path d="m240 248a8 8 0 0 0 8 8h16a8 8 0 0 0 0-16h-8v-8a8 8 0 0 0 -16 0z"/><path d="m272 408a7.976 7.976 0 0 0 5.657-2.343l16-16a8 8 0 0 0 -11.314-11.314l-16 16a8 8 0 0 0 5.657 13.657z"/><path d="m234.343 405.657a8 8 0 1 0 11.314-11.314l-16-16a8 8 0 0 0 -11.314 11.314z"/></g></svg>