<?xml version="1.0"?>
<svg xmlns="http://www.w3.org/2000/svg" viewBox="0 0 512 512" width="512" height="512"><g id="filled_outline" data-name="filled outline"><path d="M320,360l102.989,32.523a78,78,0,0,1,54.125,66.618L480,488H32l2.886-28.859a78,78,0,0,1,54.125-66.618L192,360Z" style="fill:#0bafea"/><path d="M211.06,389.18,200,392l-68.88,17.22A67.495,67.495,0,0,0,80,474.69V488H32l2.89-28.86a77.986,77.986,0,0,1,54.12-66.62L192,360h2.56Z" style="fill:#0bafea"/><path d="M211.06,389.18,200,392l-68.88,17.22A67.495,67.495,0,0,0,80,474.69V488H32l2.89-28.86a77.986,77.986,0,0,1,54.12-66.62L192,360h2.56Z" style="fill:#026ca2"/><path d="M300.94,389.18,312,392l68.88,17.22A67.495,67.495,0,0,1,432,474.69V488h48l-2.89-28.86a77.986,77.986,0,0,0-54.12-66.62L320,360h-2.56Z" style="fill:#026ca2"/><path d="M208,304v40l-16,16,2.813,9.847A63.637,63.637,0,0,0,256,416h0a63.637,63.637,0,0,0,61.187-46.153L320,360l-16-16V304Z" style="fill:#fdc9a6"/><path d="M304,304v21.28a70.9,70.9,0,0,1-96,0V304Z" style="fill:#e6af89"/><path d="M272.006,384a8,8,0,0,1-3.584-15.157l16-8a8,8,0,1,1,7.156,14.31l-16,8A7.976,7.976,0,0,1,272.006,384Z" style="fill:#e6af89"/><path d="M239.994,384a7.976,7.976,0,0,1-3.572-.847l-16-8a8,8,0,1,1,7.156-14.31l16,8A8,8,0,0,1,239.994,384Z" style="fill:#e6af89"/><path d="M304,304v21.28a70.9,70.9,0,0,1-96,0V304Z" style="fill:#e6af89"/><path d="M248,488a52.739,52.739,0,0,1,23.532-43.969l4.03-2.688a8,8,0,1,1,8.876,13.314l-4.031,2.687A36.768,36.768,0,0,0,264,488Z" style="fill:#026ca2"/><path d="M152,208V120.878a88.876,88.876,0,0,1,21.4-57.841h0A88.878,88.878,0,0,1,240.878,32h26.307a88.879,88.879,0,0,1,62.847,26.032l3.936,3.936A88.879,88.879,0,0,1,360,124.815V208Z" style="fill:#ea9d2d"/><path d="M256,328h0a70.9,70.9,0,0,1-65.827-44.567h0A198.156,198.156,0,0,1,176,209.837V152l24-40.73.253.112a138,138,0,0,0,111.494,0l.253-.112L336,152v57.837a198.156,198.156,0,0,1-14.173,73.6h0A70.9,70.9,0,0,1,256,328Z" style="fill:#fdc9a6"/><path d="M304,184H280a8,8,0,0,1,0-16h24a8,8,0,0,1,0,16Z" style="fill:#ea9d2d"/><circle cx="290" cy="202" r="10" style="fill:#ea9d2d"/><path d="M232,184H208a8,8,0,0,1,0-16h24a8,8,0,0,1,0,16Z" style="fill:#ea9d2d"/><circle cx="222" cy="202" r="10" style="fill:#ea9d2d"/><path d="M176,176H164.2c-11.154,0-20.2,9.377-20.2,20.944v14.112a21.582,21.582,0,0,0,2.132,9.366h0A20.133,20.133,0,0,0,164.2,232H184Z" style="fill:#fdc9a6"/><path d="M336,176h10.661c11.154,0,20.2,9.377,20.2,20.944v14.112a21.582,21.582,0,0,1-2.132,9.366h0A20.133,20.133,0,0,1,346.661,232H328Z" style="fill:#fdc9a6"/><path d="M264,256H248a8,8,0,0,1-8-8V216a8,8,0,0,1,16,0v24h8a8,8,0,0,1,0,16Z" style="fill:#e6af89"/><path d="M282.207,250.483h0a70.568,70.568,0,0,0-52.414,0h0a22.4,22.4,0,0,0-14.077,20.369L214.84,316.6a80,80,0,0,0,82.32,0h0l-.876-45.747A22.4,22.4,0,0,0,282.207,250.483Z" style="fill:#d18d28"/><path d="M264,280H248a8,8,0,0,1,0-16h16a8,8,0,0,1,0,16Z" style="fill:#e6af89"/><path d="M485.075,458.345A85.912,85.912,0,0,0,425.4,384.9L324.273,352.96,312,340.687V312.756A79.131,79.131,0,0,0,329.254,286.4,205.442,205.442,0,0,0,341.788,240h5.268a28.785,28.785,0,0,0,25.888-16A29.092,29.092,0,0,0,376,211.056V196.944a28.834,28.834,0,0,0-8.059-20.008A8.04,8.04,0,0,0,368,176V124.814a96.241,96.241,0,0,0-28.375-68.5l-3.937-3.937A96.241,96.241,0,0,0,267.186,24H240.878A96.879,96.879,0,0,0,144,120.878V176a8.04,8.04,0,0,0,.059.936A28.834,28.834,0,0,0,136,196.944v14.112A29.092,29.092,0,0,0,139.056,224a28.785,28.785,0,0,0,25.888,16h5.268a205.442,205.442,0,0,0,12.534,46.4A79.131,79.131,0,0,0,200,312.756v27.931L187.727,352.96,86.6,384.9a85.912,85.912,0,0,0-59.677,73.45L24.04,487.2A8,8,0,0,0,32,496H480a8,8,0,0,0,7.96-8.8ZM360,196.944v14.112a13.024,13.024,0,0,1-1.366,5.789A12.876,12.876,0,0,1,347.056,224h-3.543q.48-7.049.487-14.163V184h3.056A12.959,12.959,0,0,1,360,196.944ZM164.944,224a12.876,12.876,0,0,1-11.578-7.155A13.024,13.024,0,0,1,152,211.056V196.944A12.959,12.959,0,0,1,164.944,184H168v25.837q0,7.113.487,14.163Zm4.163-76.062A8.005,8.005,0,0,0,168,152v16h-3.056a28.987,28.987,0,0,0-4.944.431V120.878A80.879,80.879,0,0,1,240.878,40h26.308a80.351,80.351,0,0,1,57.189,23.688l3.937,3.937A80.351,80.351,0,0,1,352,124.814v43.617a28.987,28.987,0,0,0-4.944-.431H344V152a8.005,8.005,0,0,0-1.107-4.062l-24-40.73a8,8,0,0,0-10.133-3.252l-.244.107a130.27,130.27,0,0,1-105.024,0l-.252-.111a8,8,0,0,0-10.133,3.252ZM197.6,280.462A189.333,189.333,0,0,1,184,209.837V154.182l19.362-32.859a146.4,146.4,0,0,0,105.276,0L328,154.182v55.655a189.333,189.333,0,0,1-13.6,70.625,63.33,63.33,0,0,1-9.616,16.4l-.5-26.163a30.346,30.346,0,0,0-19.1-27.644A78.492,78.492,0,0,0,256,237.41V216a8,8,0,0,0-16,0v23.089a79.2,79.2,0,0,0-13.179,3.966,30.346,30.346,0,0,0-19.1,27.645l-.5,26.162A63.33,63.33,0,0,1,197.6,280.462ZM256,336.027a87.827,87.827,0,0,0,40-9.642V344a8,8,0,0,0,2.343,5.657l12.672,12.671-1.521,5.321a55.634,55.634,0,0,1-106.988,0l-1.521-5.321,12.672-12.671A8,8,0,0,0,216,344V326.385A87.827,87.827,0,0,0,256,336.027Zm-33.045-25.341.759-39.68a14.371,14.371,0,0,1,9.05-13.095,62.3,62.3,0,0,1,46.472,0,14.371,14.371,0,0,1,9.05,13.094l.759,39.681a63.277,63.277,0,0,1-66.09,0ZM72,474.693V480H40.84l2.006-20.063A69.928,69.928,0,0,1,91.42,400.152l95.147-30.047.554,1.939a70.886,70.886,0,0,0,5.445,13.568L129.18,401.459A75.487,75.487,0,0,0,72,474.693ZM424,480H264.891a36.748,36.748,0,0,1,15.516-22.656l4.031-2.687a8,8,0,1,0-8.876-13.314l-4.03,2.688A52.7,52.7,0,0,0,248.63,480H88v-5.307a59.491,59.491,0,0,1,45.06-57.712l68.88-17.22c.116-.029.225-.069.338-.1a71.452,71.452,0,0,0,107.444,0c.113.034.222.074.338.1l68.88,17.22A59.491,59.491,0,0,1,424,474.693Zm16,0v-5.307a75.488,75.488,0,0,0-57.179-73.234l-63.387-15.847a70.886,70.886,0,0,0,5.445-13.568l.554-1.939,95.147,30.047a69.928,69.928,0,0,1,48.574,59.785L471.16,480Z"/><path d="M272.006,384a7.976,7.976,0,0,0,3.572-.847l16-8a8,8,0,1,0-7.156-14.31l-16,8A8,8,0,0,0,272.006,384Z"/><path d="M220.422,375.155l16,8a8,8,0,0,0,7.156-14.31l-16-8a8,8,0,1,0-7.156,14.31Z"/><path d="M280,184h24a8,8,0,0,0,0-16H280a8,8,0,0,0,0,16Z"/><circle cx="290" cy="202" r="10"/><path d="M232,184a8,8,0,0,0,0-16H208a8,8,0,0,0,0,16Z"/><circle cx="222" cy="202" r="10"/><path d="M272,272a8,8,0,0,0-8-8H248a8,8,0,0,0,0,16h16A8,8,0,0,0,272,272Z"/></g></svg>
