<?xml version="1.0" encoding="UTF-8"?>
<!DOCTYPE svg PUBLIC "-//W3C//DTD SVG 1.1//EN" "http://www.w3.org/Graphics/SVG/1.1/DTD/svg11.dtd">
<!-- Creator: CorelDRAW X7 -->
<svg xmlns="http://www.w3.org/2000/svg" xml:space="preserve" width="148mm" height="105mm" version="1.1" style="shape-rendering:geometricPrecision; text-rendering:geometricPrecision; image-rendering:optimizeQuality; fill-rule:evenodd; clip-rule:evenodd"
viewBox="0 0 14800 10500"
 xmlns:xlink="http://www.w3.org/1999/xlink">
 <defs>
  <style type="text/css">
   <![CDATA[
    .fil23 {fill:none}
    .fil8 {fill:#FEFEFE}
    .fil4 {fill:#EEEEEF}
    .fil9 {fill:#C9CACA}
    .fil30 {fill:#B6B6B7}
    .fil17 {fill:#A1A1A1}
    .fil5 {fill:#8B8B8C}
    .fil19 {fill:#757475}
    .fil18 {fill:#5F5D5D}
    .fil15 {fill:#474443}
    .fil36 {fill:#5F5C50}
    .fil24 {fill:#FDD100}
    .fil35 {fill:#F5B193}
    .fil22 {fill:#F5B06E}
    .fil12 {fill:#E83F44}
    .fil11 {fill:#FFE562}
    .fil37 {fill:#E09E82}
    .fil25 {fill:#E3BD07}
    .fil31 {fill:#D9B115}
    .fil14 {fill:#B04B87}
    .fil32 {fill:#C574A3}
    .fil21 {fill:#C7813E}
    .fil26 {fill:#BC2E32}
    .fil2 {fill:#81BFCA}
    .fil0 {fill:#56AAB7}
    .fil1 {fill:#6BB3C0}
    .fil33 {fill:#803762}
    .fil34 {fill:#6A2F51}
    .fil3 {fill:#4495A3}
    .fil38 {fill:#3A818D}
    .fil29 {fill:#1F1919}
    .fil16 {fill:#046BA1}
    .fil27 {fill:#045B87}
    .fil20 {fill:#1B4A6C}
    .fil28 {fill:#21415A}
    .fil10 {fill:#1D1819}
    .fil13 {fill:#FEFEFE;fill-rule:nonzero}
    .fil6 {fill:url(#id0)}
    .fil7 {fill:url(#id1)}
   ]]>
  </style>
  <linearGradient id="id0" gradientUnits="userSpaceOnUse" x1="2512.46" y1="3673.7" x2="7586.72" y2="2865.86">
   <stop offset="0" style="stop-opacity:1; stop-color:#1D1819"/>
   <stop offset="1" style="stop-opacity:1; stop-color:#474443"/>
  </linearGradient>
  <linearGradient id="id1" gradientUnits="userSpaceOnUse" x1="6228.36" y1="1069.27" x2="4511.1" y2="4989.13">
   <stop offset="0" style="stop-opacity:1; stop-color:#1D1819"/>
   <stop offset="1" style="stop-opacity:1; stop-color:#332C2B"/>
  </linearGradient>
 </defs>
 <g id="Layer_x0020_1">
  <metadata id="CorelCorpID_0Corel-Layer"/>
  <g id="_451317776">
   <g>
    <polygon class="fil0" points="400,350 14400,350 14400,10150 400,10150 "/>
    <path class="fil1" d="M7400 1376c2140,0 3874,1734 3874,3874 0,2140 -1734,3874 -3874,3874 -2140,0 -3874,-1734 -3874,-3874 0,-2140 1734,-3874 3874,-3874z"/>
    <path class="fil2" d="M7400 2173c1699,0 3077,1378 3077,3077 0,1699 -1378,3077 -3077,3077 -1699,0 -3077,-1378 -3077,-3077 0,-1699 1378,-3077 3077,-3077z"/>
    <g>
     <g>
      <g>
       <path class="fil3" d="M4857 4925l1185 -137c57,496 16,938 709,1079l-1078 124 -198 23 -1079 124c648,-297 518,-717 461,-1213z"/>
       <polygon class="fil3" points="4396,6138 6751,5867 6760,5941 4405,6212 "/>
       <g>
        <path class="fil3" d="M2589 1873l4953 -570c102,-12 194,62 206,164l365 3171c12,102 -62,195 -164,206l-4952 570c-102,12 -195,-61 -206,-163l-365 -3172c-12,-101 62,-194 163,-206z"/>
        <path class="fil3" d="M3065 1818l4453 -512c115,-14 218,59 230,161l365 3171c12,102 -72,196 -187,209l-739 85 -4122 -3114z"/>
        <path class="fil3" d="M8074 4299l53 462c4,34 -86,73 -201,86l-4905 565c-115,13 -212,-4 -216,-38l-53 -462 5322 -613z"/>
        <path class="fil3" d="M8074 4299l53 462c4,34 -86,73 -201,86l-675 78c-148,-149 -337,-318 -561,-467l1384 -159zm-5070 1115c-108,9 -195,-8 -199,-40l-53 -462 993 -115c-324,229 -564,438 -741,617z"/>
        <g>
         <path class="fil3" d="M7584 4637c51,-6 88,-47 83,-93 -5,-45 -51,-77 -102,-72 -52,6 -89,48 -84,94 5,45 51,77 103,71z"/>
         <path class="fil3" d="M7283 4672c52,-6 89,-48 84,-93 -6,-46 -51,-78 -103,-72 -51,6 -88,48 -83,93 5,46 51,78 102,72z"/>
         <path class="fil3" d="M6983 4706c51,-6 89,-47 84,-93 -6,-45 -52,-77 -103,-71 -51,6 -88,47 -83,93 5,45 51,77 102,71z"/>
        </g>
       </g>
      </g>
      <path class="fil3" d="M6069 5061c4,32 8,64 12,95l-1180 138c-3,-32 -6,-65 -10,-98l0 0 1178 -135z"/>
     </g>
     <g>
      <polygon class="fil3" points="6072,5665 9640,4977 10434,9099 6866,9787 "/>
      <polygon class="fil3" points="6285,5776 9483,5160 9602,5778 6404,6395 "/>
      <path class="fil3" d="M6570 6165l-46 -237 112 -22c31,-6 55,-4 71,6 15,9 26,28 32,56l3 16c5,28 2,50 -9,65 -11,15 -32,25 -64,31l-47 10 12 63 -64 12zm41 -128l45 -9c10,-2 17,-5 19,-9 3,-5 3,-13 1,-24l-2 -14c-2,-9 -6,-15 -11,-19 -5,-3 -13,-3 -23,-1l-42 8 13 68zm234 -52l36 -7c10,-2 17,-5 20,-10 4,-4 4,-12 2,-22l-2 -9c-1,-10 -5,-16 -9,-19 -5,-3 -13,-4 -23,-2l-36 7 12 62zm-40 135l-46 -238 96 -18c37,-7 63,-7 78,0 16,7 26,22 30,47l4 19c3,16 2,29 -4,40 -6,10 -17,18 -31,23 16,-1 29,2 38,9 9,7 14,17 17,32l10 49 -65 13 -9 -43c-2,-10 -5,-17 -9,-20 -5,-3 -13,-3 -23,-1l-35 6 13 70 -64 12zm235 -45l-46 -238 179 -34 10 53 -115 22 8 41 111 -22 9 46 -111 22 8 45 118 -23 10 53 -181 35zm200 -115l61 -12 0 3c2,8 6,14 11,16 5,3 13,3 25,1l16 -3c10,-2 16,-5 20,-8 3,-4 4,-9 3,-15l-2 -11c-1,-5 -4,-9 -7,-11 -4,-2 -11,-2 -22,-1l-53 4c-20,2 -35,-2 -46,-10 -11,-8 -18,-22 -22,-42l-2 -14c-3,-11 -3,-22 -1,-31 2,-9 6,-17 11,-24 5,-6 11,-11 19,-14 8,-4 20,-7 36,-10l39 -8c23,-4 42,-3 57,4 14,7 23,20 27,38l3 16 -61 12 -1 -3c-1,-7 -4,-11 -8,-13 -4,-3 -10,-3 -19,-1l-14 3c-10,2 -17,4 -21,7 -3,4 -4,8 -3,14l2 10c2,8 11,12 29,11l0 0 48 -4c21,-2 37,1 49,9 12,8 19,20 23,37l4 23c4,20 1,37 -9,51 -10,14 -25,23 -46,27l-52 10c-28,6 -49,5 -63,-3 -15,-7 -24,-21 -28,-42l-3 -16zm226 -44l62 -11 0 2c2,9 5,14 10,17 6,2 14,2 26,0l16 -3c9,-2 16,-5 19,-8 3,-3 5,-8 3,-15l-2 -10c-1,-6 -3,-10 -7,-11 -3,-2 -11,-3 -22,-2l-52 4c-20,2 -35,-1 -46,-10 -11,-8 -18,-22 -22,-41l-3 -15c-2,-11 -2,-21 0,-31 2,-9 5,-17 11,-24 5,-6 11,-11 19,-14 8,-4 20,-7 36,-10l38 -8c24,-4 43,-3 57,4 15,8 24,20 27,38l3 17 -61 11 0 -2c-2,-7 -4,-12 -8,-14 -4,-2 -10,-2 -19,-1l-15 3c-10,2 -17,5 -20,8 -3,3 -4,7 -3,13l2 10c1,9 11,13 28,11l0 0 49 -4c20,-1 37,2 49,9 11,8 19,20 22,38l5 22c4,20 0,37 -10,51 -10,14 -25,23 -45,27l-52 10c-28,6 -49,5 -64,-2 -14,-7 -23,-21 -27,-42l-4 -17zm406 -129l36 -7c10,-2 17,-5 20,-10 4,-4 4,-11 2,-22l-2 -9c-2,-10 -5,-16 -9,-19 -5,-3 -13,-4 -23,-2l-36 7 12 62zm-40 135l-46 -238 96 -18c37,-7 63,-7 78,0 16,7 26,22 30,47l4 19c3,16 2,29 -4,40 -6,10 -17,18 -32,23 17,-1 30,3 39,9 9,7 14,17 17,32l10 49 -65 13 -9 -43c-2,-10 -5,-17 -10,-20 -4,-3 -12,-3 -22,-1l-36 6 14 70 -64 12zm235 -45l-46 -238 179 -34 10 53 -115 22 8 41 111 -21 9 45 -111 22 8 45 118 -23 10 53 -181 35zm225 -44l-46 -237 65 -13 35 183 106 -21 11 56 -171 32zm199 -38l-45 -238 178 -34 10 53 -114 22 8 41 111 -21 9 45 -112 22 9 45 117 -23 11 53 -182 35zm281 -147l52 -10 -43 -94 -4 1 -5 103zm-74 107l23 -251 98 -19 112 225 -68 13 -19 -39 -75 14 -3 44 -68 13zm233 -121l61 -12 1 3c1,8 5,14 10,16 5,3 13,3 25,1l16 -3c10,-2 16,-5 20,-8 3,-4 4,-9 3,-15l-2 -11c-1,-5 -4,-9 -7,-11 -4,-2 -11,-2 -22,-1l-53 4c-20,2 -35,-2 -46,-10 -10,-8 -18,-22 -21,-42l-3 -14c-2,-11 -3,-22 -1,-31 2,-9 6,-17 11,-24 5,-6 12,-11 19,-14 8,-4 20,-7 36,-11l39 -7c23,-4 43,-3 57,4 14,7 23,20 27,38l3 16 -61 12 -1 -3c-1,-7 -4,-11 -8,-13 -4,-3 -10,-3 -19,-1l-14 3c-10,2 -17,4 -20,7 -4,4 -5,8 -4,14l2 10c2,8 11,12 29,11l0 0 48 -4c21,-2 37,1 49,9 12,8 20,20 23,37l4 23c4,20 1,37 -9,51 -10,14 -25,23 -46,27l-52 10c-28,5 -49,5 -63,-3 -15,-7 -24,-21 -28,-42l-3 -16zm251 28l-46 -238 179 -34 10 53 -115 22 8 41 112 -21 8 45 -111 22 9 45 117 -23 10 53 -181 35z"/>
      <polygon class="fil3" points="6446,6611 9644,5994 9624,5891 6426,6508 "/>
      <polygon class="fil3" points="6462,6694 9660,6078 9652,6036 6454,6653 "/>
      <g>
       <polygon class="fil3" points="7720,6564 8591,6396 8605,6473 7735,6640 "/>
       <polygon class="fil3" points="6511,6950 8619,6543 8634,6620 6526,7026 "/>
       <polygon class="fil3" points="6540,7100 8648,6694 8663,6770 6555,7177 "/>
       <polygon class="fil3" points="6569,7247 8676,6841 8691,6917 6583,7324 "/>
       <polygon class="fil3" points="6598,7398 8705,6991 8720,7068 6612,7474 "/>
       <polygon class="fil3" points="6626,7545 8734,7139 8749,7215 6641,7622 "/>
       <polygon class="fil3" points="6655,7695 8763,7289 8778,7366 6670,7772 "/>
       <polygon class="fil3" points="6683,7843 8501,7492 8516,7569 6698,7919 "/>
      </g>
      <polygon class="fil3" points="8898,6522 9553,6396 9700,7155 9044,7281 "/>
      <polygon class="fil3" points="9161,7886 9816,7760 9963,8519 9307,8645 "/>
      <g>
       <polygon class="fil3" points="7983,7927 8854,7760 8868,7836 7998,8004 "/>
       <polygon class="fil3" points="6774,8313 8882,7907 8897,7984 6789,8390 "/>
       <polygon class="fil3" points="6803,8464 8911,8057 8926,8134 6818,8540 "/>
       <polygon class="fil3" points="6832,8611 8939,8205 8954,8281 6846,8688 "/>
       <polygon class="fil3" points="6861,8761 8968,8355 8983,8432 6875,8838 "/>
       <polygon class="fil3" points="6889,8909 8997,8502 9011,8579 6904,8985 "/>
       <polygon class="fil3" points="6918,9059 9026,8653 9040,8729 6933,9136 "/>
       <polygon class="fil3" points="6946,9206 8764,8856 8779,8933 6961,9283 "/>
      </g>
      <polygon class="fil3" points="7008,9527 10206,8911 10186,8808 6988,9424 "/>
     </g>
     <g>
      <path class="fil3" d="M3578 5650l628 172 638 173 4 3 717 196c133,37 212,176 176,309l-402 1467 -398 1462c-36,133 -175,212 -308,176l-717 -195 -5 0 -642 -176 -624 -170c-34,-9 -65,-25 -91,-46 -77,-60 -115,-164 -88,-264l402 -1465 398 -1465c28,-101 113,-171 211,-184 33,-4 67,-2 101,7z"/>
      <path class="fil3" d="M3566 5596l682 187 694 189 5 3 606 166c133,36 212,175 176,308l-401 1464 -399 1465c-36,133 -175,213 -308,177l-607 -165 -5 -1 -690 -188 -686 -187c-36,-10 -69,-28 -96,-51l0 0 -2 -2 0 0c-72,-61 -107,-161 -81,-258l402 -1464 398 -1466c27,-97 107,-165 201,-181l0 0 2 -1 1 0c35,-6 72,-5 108,5z"/>
      <path class="fil3" d="M3449 5744l934 256 952 259 6 4 286 78c40,11 63,52 52,91l-414 1513 -412 1513c-10,39 -51,62 -91,52l-286 -78 -7 0 -951 -261 -935 -254c-14,-4 -27,-12 -36,-22 -18,-19 -26,-46 -18,-72l414 -1512 412 -1514c7,-26 27,-45 52,-52 13,-4 28,-5 42,-1z"/>
      <path class="fil3" d="M3433 5719l1088 299 1088 296c16,4 30,14 39,26 16,18 22,43 15,67l-412 1505 -414 1521c-10,39 -51,63 -90,52l-186 -50 -7 -1 -902 -247 -896 -243 -6 -4 -185 -51c-40,-10 -63,-51 -52,-91l416 -1520 410 -1505c6,-25 25,-43 47,-51 14,-6 31,-7 47,-3z"/>
      <g>
       <g>
        <path class="fil3" d="M3361 6189c30,8 47,39 39,69 -8,30 -39,47 -69,39 -30,-8 -47,-39 -39,-69 8,-30 39,-47 69,-39z"/>
        <path class="fil3" d="M3361 6189c19,5 33,20 38,37 0,1 0,3 -1,5 -9,33 -43,52 -76,43 -13,-3 -23,-10 -31,-20 -2,-8 -2,-17 1,-26 8,-30 39,-47 69,-39z"/>
       </g>
       <path class="fil3" d="M3220 6216c67,18 127,41 170,62l-10 10 0 0c-40,-20 -98,-41 -163,-59 -128,-35 -237,-44 -244,-20 -5,18 56,52 146,83l-4 13c-101,-35 -171,-77 -164,-102 9,-32 129,-26 269,13z"/>
       <path class="fil3" d="M3234 6165c65,18 123,39 166,61l-1 0 3 16 0 0c-40,-21 -101,-44 -172,-64 -127,-35 -236,-44 -243,-20 -5,19 56,53 146,83l0 0 -4 14c-101,-36 -171,-78 -164,-103 9,-31 129,-26 269,13z"/>
      </g>
      <g>
       <g>
        <path class="fil3" d="M3277 6494c30,8 48,39 40,69 -9,29 -39,47 -69,39 -30,-8 -48,-39 -40,-69 9,-30 39,-48 69,-39z"/>
        <path class="fil3" d="M3277 6494c19,5 33,19 39,37 0,1 -1,3 -1,4 -9,33 -43,53 -76,44 -13,-4 -24,-11 -31,-20 -2,-8 -2,-17 0,-26 9,-30 39,-48 69,-39z"/>
       </g>
       <path class="fil3" d="M3137 6520c67,19 126,41 169,63l-10 10 0 0c-40,-20 -97,-41 -163,-59 -128,-35 -237,-44 -243,-21 -5,19 56,53 145,84l-3 13c-102,-35 -171,-77 -164,-103 8,-31 129,-25 269,13z"/>
       <path class="fil3" d="M3151 6470c65,17 123,39 165,60l0 1 3 15 0 0c-40,-21 -102,-44 -172,-63 -128,-35 -237,-44 -243,-20 -5,18 56,52 145,83l0 0 -3 13c-102,-35 -171,-77 -164,-102 8,-32 129,-26 269,13z"/>
      </g>
      <g>
       <g>
        <path class="fil3" d="M3194 6798c30,9 47,39 39,69 -8,30 -39,48 -69,40 -30,-9 -47,-39 -39,-69 8,-30 39,-48 69,-40z"/>
        <path class="fil3" d="M3194 6798c19,6 33,20 38,37 0,2 0,3 -1,5 -9,33 -43,53 -76,44 -13,-4 -23,-11 -31,-20 -2,-9 -1,-17 1,-26 8,-30 39,-48 69,-40z"/>
       </g>
       <path class="fil3" d="M3053 6825c67,18 127,41 170,63l-10 9 0 0c-40,-19 -98,-40 -163,-58 -128,-35 -237,-45 -243,-21 -6,19 55,53 145,83l-4 14c-101,-36 -171,-78 -164,-103 9,-31 129,-25 269,13z"/>
       <path class="fil3" d="M3067 6774c65,18 123,40 166,61l-1 0 3 16 0 0c-40,-21 -101,-44 -172,-63 -127,-35 -236,-44 -243,-21 -5,19 56,53 146,84l0 0 -4 13c-101,-35 -171,-77 -164,-103 9,-31 129,-25 269,13z"/>
      </g>
      <g>
       <g>
        <path class="fil3" d="M3110 7103c30,8 48,39 40,69 -9,30 -39,47 -69,39 -30,-8 -48,-39 -40,-69 9,-30 40,-47 69,-39z"/>
        <path class="fil3" d="M3110 7103c19,5 33,20 39,37 0,2 -1,3 -1,5 -9,33 -43,52 -76,43 -13,-3 -24,-10 -31,-19 -2,-9 -2,-18 0,-27 9,-30 40,-47 69,-39z"/>
       </g>
       <path class="fil3" d="M2970 7130c67,18 126,41 169,63l-10 9 0 0c-40,-19 -97,-41 -163,-59 -128,-35 -236,-44 -243,-20 -5,19 56,52 145,83l-3 14c-102,-36 -171,-78 -164,-103 8,-31 129,-26 269,13z"/>
       <path class="fil3" d="M2984 7079c65,18 123,40 165,61l0 0 3 16 0 0c-40,-21 -102,-44 -172,-63 -128,-35 -237,-45 -243,-21 -5,19 56,53 145,83l0 0 -3 14c-102,-36 -171,-78 -164,-103 8,-31 129,-25 269,13z"/>
      </g>
      <g>
       <g>
        <path class="fil3" d="M2983 7565c30,9 61,-9 69,-38 9,-30 -8,-61 -38,-70 -30,-8 -61,9 -70,39 -8,29 9,60 39,69z"/>
        <path class="fil3" d="M2983 7565c19,5 38,0 52,-12 1,-1 1,-3 1,-4 10,-33 -9,-67 -42,-77 -13,-4 -25,-3 -37,1 -6,6 -10,14 -13,23 -8,29 9,60 39,69z"/>
       </g>
       <path class="fil3" d="M2877 7469c67,19 129,31 177,35l-4 -14 0 0c-44,-4 -104,-16 -169,-35 -128,-36 -225,-85 -219,-109 6,-18 75,-15 168,5l4 -13c-105,-23 -186,-23 -194,2 -9,31 97,89 237,129z"/>
       <path class="fil3" d="M2862 7520c65,18 126,30 173,34l0 -1 10 -11 0 0c-45,-4 -109,-16 -179,-36 -127,-37 -225,-85 -218,-109 5,-19 75,-16 167,4l0 0 4 -13c-105,-22 -186,-23 -193,3 -9,31 97,88 236,129z"/>
      </g>
      <g>
       <g>
        <path class="fil3" d="M2903 7866c30,7 60,-11 68,-41 8,-30 -10,-60 -40,-68 -30,-8 -61,10 -69,40 -7,30 11,61 41,69z"/>
        <path class="fil3" d="M2903 7866c19,5 38,-1 52,-13 0,-2 1,-3 1,-5 9,-33 -11,-67 -45,-76 -12,-3 -25,-2 -36,2 -6,7 -10,14 -13,23 -7,30 11,61 41,69z"/>
       </g>
       <path class="fil3" d="M2794 7773c67,17 130,27 178,29l-4 -13 0 0c-44,-3 -105,-13 -171,-30 -128,-33 -227,-79 -221,-103 5,-19 75,-18 168,0l3 -13c-105,-20 -186,-18 -193,7 -8,32 99,87 240,123z"/>
       <path class="fil3" d="M2781 7824c65,17 126,26 174,29l0 0 10 -13 0 0c-45,-1 -110,-12 -181,-30 -128,-33 -227,-79 -221,-103 5,-19 75,-18 168,0l0 0 3 -13c-106,-20 -187,-18 -193,7 -8,32 99,87 240,123z"/>
      </g>
      <g>
       <g>
        <path class="fil3" d="M2818 8172c30,8 60,-9 68,-39 9,-30 -9,-61 -39,-69 -30,-8 -61,10 -69,39 -8,30 10,61 40,69z"/>
        <path class="fil3" d="M2818 8172c19,5 38,0 52,-12 0,-1 1,-3 1,-5 9,-33 -10,-67 -44,-76 -12,-3 -25,-3 -36,1 -6,7 -10,15 -13,23 -8,30 10,61 40,69z"/>
       </g>
       <path class="fil3" d="M2710 8078c67,18 130,29 178,32l-4 -14 0 0c-44,-3 -105,-14 -170,-32 -128,-34 -226,-82 -220,-106 5,-18 75,-16 168,2l3 -13c-105,-21 -186,-20 -193,5 -9,32 98,88 238,126z"/>
       <path class="fil3" d="M2696 8129c66,17 126,28 174,31l0 0 10 -12 0 0c-45,-2 -110,-14 -180,-33 -128,-35 -226,-82 -220,-106 5,-18 75,-17 168,2l0 0 3 -13c-105,-21 -186,-20 -193,5 -8,31 98,88 238,126z"/>
      </g>
      <polygon class="fil3" points="3545,6151 5458,6675 5455,6688 3541,6164 "/>
      <polygon class="fil3" points="3503,6303 5417,6828 5413,6840 3499,6316 "/>
      <polygon class="fil3" points="3461,6456 5375,6980 5371,6993 3458,6468 "/>
      <polygon class="fil3" points="3419,6608 5333,7132 5330,7145 3416,6621 "/>
      <polygon class="fil3" points="3378,6761 5291,7285 5288,7297 3374,6773 "/>
      <polygon class="fil3" points="3336,6913 5250,7437 5246,7450 3332,6926 "/>
      <polygon class="fil3" points="3294,7065 5208,7590 5204,7602 3291,7078 "/>
      <polygon class="fil3" points="3252,7218 5166,7742 5163,7755 3249,7230 "/>
      <polygon class="fil3" points="3211,7370 5124,7894 5121,7907 3207,7383 "/>
      <polygon class="fil3" points="3169,7522 5083,8047 5079,8059 3166,7535 "/>
      <polygon class="fil3" points="3127,7675 5041,8199 5037,8212 3124,7687 "/>
      <polygon class="fil3" points="3086,7827 4999,8351 4996,8364 3082,7840 "/>
      <polygon class="fil3" points="3044,7979 4957,8504 4954,8516 3040,7992 "/>
      <polygon class="fil3" points="3002,8132 4916,8656 4912,8669 2999,8144 "/>
      <g>
       <g>
        <path class="fil3" d="M3444 5884c30,8 48,39 40,69 -9,30 -39,48 -69,39 -30,-8 -48,-39 -40,-68 9,-30 39,-48 69,-40z"/>
        <path class="fil3" d="M3444 5884c19,5 33,20 39,37 0,2 -1,3 -1,5 -9,33 -43,52 -77,43 -12,-3 -23,-10 -30,-19 -2,-9 -2,-18 0,-26 9,-30 39,-48 69,-40z"/>
       </g>
       <path class="fil3" d="M3304 5911c67,18 126,41 169,63l-10 9 0 0c-40,-19 -98,-41 -163,-58 -128,-35 -237,-45 -243,-21 -5,19 56,53 145,83l-3 14c-102,-36 -171,-78 -164,-103 8,-31 129,-25 269,13z"/>
       <path class="fil3" d="M3318 5860c65,18 123,40 165,61l0 0 3 16 0 0c-40,-21 -102,-44 -172,-63 -128,-35 -237,-44 -243,-21 -5,19 56,53 145,84l0 0 -4 13c-101,-35 -170,-78 -163,-103 8,-31 129,-25 269,13z"/>
      </g>
      <g>
       <g>
        <path class="fil3" d="M2736 8475c30,8 60,-10 68,-40 8,-30 -10,-61 -40,-68 -30,-8 -61,10 -69,40 -7,30 11,60 41,68z"/>
        <path class="fil3" d="M2736 8475c19,5 38,0 51,-13 1,-1 1,-3 2,-4 8,-33 -11,-67 -45,-76 -12,-3 -25,-2 -36,2 -6,6 -10,14 -13,23 -7,30 11,60 41,68z"/>
       </g>
       <path class="fil3" d="M2627 8382c67,18 130,28 178,30l-4 -13 0 0c-44,-3 -105,-13 -171,-30 -128,-34 -227,-80 -221,-104 5,-18 75,-17 168,0l3 -13c-105,-20 -186,-18 -193,8 -8,31 99,86 240,122z"/>
       <path class="fil3" d="M2614 8433c65,17 126,27 174,30l-1 -1 11 -12 0 0c-45,-2 -110,-12 -181,-31 -128,-33 -227,-79 -221,-103 5,-18 75,-18 168,0l0 0 3 -13c-105,-20 -186,-18 -193,8 -8,31 99,86 240,122z"/>
      </g>
      <g>
       <g>
        <path class="fil3" d="M2651 8782c30,8 60,-10 69,-40 8,-30 -10,-61 -40,-69 -30,-8 -61,10 -69,40 -8,30 10,60 40,69z"/>
        <path class="fil3" d="M2651 8782c19,5 38,-1 52,-13 0,-1 1,-3 1,-4 9,-33 -10,-68 -44,-76 -12,-4 -25,-3 -36,1 -6,6 -10,14 -13,23 -8,30 10,60 40,69z"/>
       </g>
       <path class="fil3" d="M2543 8687c67,19 130,29 178,32l-4 -13 0 0c-44,-4 -105,-15 -170,-32 -128,-35 -226,-82 -220,-106 5,-19 75,-17 167,2l4 -14c-105,-20 -186,-19 -193,6 -9,31 98,87 238,125z"/>
       <path class="fil3" d="M2529 8738c66,18 127,28 174,32l0 -1 10 -12 0 0c-45,-2 -110,-13 -180,-33 -128,-34 -226,-81 -220,-105 5,-19 75,-17 168,2l0 0 3 -14c-105,-21 -186,-20 -193,6 -8,31 98,87 238,125z"/>
      </g>
      <polygon class="fil3" points="2960,8284 4874,8808 4871,8821 2957,8297 "/>
      <polygon class="fil3" points="2919,8436 4832,8961 4829,8973 2915,8449 "/>
      <polygon class="fil3" points="2877,8589 4791,9113 4787,9126 2873,8601 "/>
      <polygon class="fil3" points="2835,8741 4749,9265 4745,9278 2832,8754 "/>
      <polygon class="fil3" points="5619,6643 6087,6770 6051,6902 5583,6775 "/>
      <polygon class="fil3" points="5619,6643 5695,6664 5659,6795 5659,6795 5583,6775 "/>
      <polygon class="fil3" points="5332,7699 5799,7826 5764,7958 5296,7831 "/>
      <polygon class="fil3" points="5332,7699 5407,7720 5372,7851 5372,7851 5296,7831 "/>
     </g>
     <g>
      <g>
       <path class="fil3" d="M10749 4839l4 1 562 164c64,19 131,-18 150,-82l87 -300c29,-99 -286,-351 -339,-379 -19,-10 -173,-53 -272,-80 -22,101 -124,447 -192,676z"/>
       <path class="fil3" d="M10749 4839l4 1 562 164c64,19 130,-16 148,-78l73 -250c28,-95 -289,-341 -341,-368 -19,-10 -171,-53 -270,-80 -37,143 -119,418 -176,611z"/>
      </g>
      <g>
       <g>
        <path class="fil3" d="M10831 4863l145 42 154 -521c9,-30 -8,-62 -38,-70l-94 -28c-38,141 -112,392 -167,577z"/>
        <path class="fil3" d="M10831 4863l145 42 154 -521c9,-30 -8,-62 -38,-70l-94 -28c-38,141 -112,392 -167,577z"/>
       </g>
       <g>
        <path class="fil3" d="M10831 4863l145 42 154 -521c9,-30 -8,-62 -38,-70l-94 -28c-38,141 -112,392 -167,577z"/>
        <path class="fil3" d="M10831 4863l145 42 154 -521c9,-30 -8,-62 -38,-70l-94 -28c-38,141 -112,392 -167,577z"/>
       </g>
       <g>
        <path class="fil3" d="M10992 4309c-7,25 -15,53 -24,84l147 43 15 -53c4,-12 3,-23 -1,-34l-137 -40z"/>
        <path class="fil3" d="M10992 4309c-7,25 -15,53 -24,84l147 43 15 -53c4,-12 3,-23 -1,-34l-137 -40z"/>
       </g>
       <g>
        <path class="fil3" d="M10992 4309c-7,25 -15,53 -24,84l147 43 15 -53c4,-12 3,-23 -1,-34l-137 -40z"/>
        <path class="fil3" d="M10992 4309c-7,25 -15,53 -24,84l147 43 15 -53c4,-12 3,-23 -1,-34l-137 -40z"/>
       </g>
       <g>
        <path class="fil3" d="M11243 4270c-58,-17 -155,-45 -225,-64 -6,27 -18,72 -33,128l186 55c19,6 38,-5 44,-24l28 -95z"/>
        <path class="fil3" d="M11226 4328c-14,-10 -25,-17 -31,-20 -15,-7 -103,-33 -188,-57 -6,23 -14,51 -22,83l186 55c19,6 38,-5 44,-24l11 -37z"/>
       </g>
       <g>
        <path class="fil3" d="M11224 4335c-57,-18 -153,-44 -223,-64 -4,19 -10,40 -16,63l186 55c19,6 38,-5 44,-24l9 -30z"/>
        <path class="fil3" d="M11224 4335c-57,-18 -153,-44 -223,-64 -4,19 -10,40 -16,63l186 55c19,6 38,-5 44,-24l9 -30z"/>
       </g>
       <path class="fil3" d="M11243 4270c-58,-17 -155,-45 -225,-64l-1 2 225 67 1 -5z"/>
      </g>
      <g>
       <path class="fil3" d="M11086 3888l224 67c181,54 374,-51 428,-232l0 0c53,-182 -51,-374 -232,-428l-225 -66c-181,-54 -373,51 -427,232l0 0c-54,181 51,374 232,427z"/>
       <path class="fil3" d="M11086 3888l224 67c151,45 310,-20 390,-148l-821 -243c-13,-3 -26,-7 -39,-10 -2,150 95,290 246,334z"/>
       <path class="fil3" d="M9290 2630c-185,-55 -379,50 -433,235 -55,184 50,378 235,433 184,54 378,-51 433,-235 54,-185 -51,-379 -235,-433z"/>
       <path class="fil3" d="M11066 4228l-136 -41c-31,-9 -65,9 -74,41l-195 657c-10,32 9,66 40,75l136 40c32,10 66,-8 75,-40l195 -658c9,-31 -9,-65 -41,-74z"/>
       <path class="fil3" d="M10876 4197c-9,7 -16,17 -20,29l-17 57 252 74 16 -56c4,-12 3,-24 -1,-35l-230 -69z"/>
       <path class="fil3" d="M9552 1939c0,0 504,815 1670,1196 62,21 120,43 173,66l-226 764c-57,-9 -118,-22 -182,-39 -1185,-315 -2051,94 -2051,94l296 -998 25 -85 295 -998z"/>
       <path class="fil3" d="M9552 1939c0,0 504,815 1670,1196 62,21 120,43 173,66l-21 71c-113,-34 -237,-71 -371,-113 -780,-244 -1297,-658 -1546,-897l95 -323z"/>
       <path class="fil3" d="M11255 3675l-86 290c-57,-9 -118,-22 -182,-39 -1185,-315 -2051,94 -2051,94l176 -593c552,-135 1262,0 1767,137l376 111z"/>
       <path class="fil3" d="M9608 1845l0 0c-70,-20 -144,20 -165,90l-603 2037c-21,70 19,144 89,165l0 0c70,21 144,-19 165,-89l604 -2038c20,-70 -20,-144 -90,-165z"/>
       <path class="fil3" d="M9608 1845l0 0c-70,-20 -144,20 -165,90l-44 149c51,53 123,123 216,204l83 -278c20,-70 -20,-144 -90,-165z"/>
       <path class="fil3" d="M9130 2993l-290 979c-21,70 19,144 89,165l0 0c70,21 144,-19 165,-89l333 -1124c-104,15 -203,37 -297,69z"/>
       <path class="fil3" d="M11233 4029l-334 -99c-20,-6 -41,5 -47,25l-61 207c-6,20 6,41 25,47l334 99c20,5 41,-6 47,-26l61 -207c6,-20 -5,-41 -25,-46z"/>
       <polygon class="fil3" points="10852,3958 10819,4067 11225,4187 11257,4078 "/>
       <path class="fil3" d="M11548 3119l-418 -123c-40,-12 -82,11 -94,50l-255 862c-12,40 11,82 51,94l418 124c40,11 82,-12 94,-51l58 -197 -38 -11c-16,-5 -25,-22 -20,-38l8 -26c5,-16 21,-26 37,-21l38 11 32 -107 -38 -11c-16,-5 -25,-22 -20,-38l8 -26c4,-16 21,-25 37,-21l38 12 31 -108 -37 -11c-16,-4 -25,-21 -20,-37l7 -27c5,-16 22,-25 38,-20l38 11 58 -197c12,-40 -11,-82 -51,-94z"/>
       <path class="fil3" d="M11548 3119l-418 -123c-40,-12 -82,11 -94,50l-33 113c213,66 399,122 562,168l34 -114c12,-40 -11,-82 -51,-94z"/>
       <path class="fil3" d="M10883 3565l-102 343c-12,40 11,82 51,94l418 124c40,11 82,-12 94,-51l58 -197 -38 -11c-16,-5 -25,-22 -20,-38l8 -26c5,-16 21,-26 37,-21l38 11 18 -61 -562 -167z"/>
       <path class="fil3" d="M8798 2593l-440 -317c-19,-14 -46,-9 -60,10l0 0c-13,19 -9,45 10,59l441 317c19,14 45,9 59,-10l0 0c14,-19 9,-45 -10,-59z"/>
       <path class="fil3" d="M8659 2940l-543 10c-23,0 -42,20 -42,43l0 0c1,23 20,42 43,42l543 -10c24,0 42,-20 42,-43l0 0c0,-23 -20,-42 -43,-42z"/>
       <path class="fil3" d="M8758 3274l-484 245c-21,10 -30,36 -19,56l0 0c10,21 36,30 57,19l484 -245c21,-10 30,-36 19,-57l0 0c-10,-21 -36,-29 -57,-18z"/>
       <path class="fil3" d="M9029 2451l-229 -492c-10,-21 -1,-47 20,-57l0 0c21,-9 46,0 56,21l229 492c10,21 1,47 -20,57l0 0c-21,9 -46,0 -56,-21z"/>
       <g>
        <path class="fil3" d="M11344 3259l-246 -73c-17,-5 -36,5 -41,22l0 0c-5,18 5,36 22,41l246 73c17,5 36,-5 41,-22l0 0c5,-18 -5,-36 -22,-41z"/>
        <path class="fil3" d="M11287 3451l-246 -73c-17,-5 -36,5 -41,22l0 0c-5,17 5,36 23,41l245 73c18,5 36,-5 41,-22l0 0c5,-18 -5,-36 -22,-41z"/>
        <path class="fil3" d="M11230 3642l-245 -73c-18,-5 -36,5 -42,23l0 0c-5,17 5,36 23,41l245 73c18,5 36,-5 41,-23l0 0c6,-17 -4,-36 -22,-41z"/>
        <path class="fil3" d="M11173 3834l-245 -73c-18,-5 -36,5 -41,23l0 0c-5,17 5,35 22,41l246 72c17,6 36,-4 41,-22l0 0c5,-17 -5,-36 -23,-41z"/>
       </g>
      </g>
      <g>
       <path class="fil3" d="M10923 4357l-276 -80c-38,-11 -78,11 -89,49l0 0c-11,37 11,77 49,88l276 81c37,11 77,-11 88,-49l0 0c11,-38 -11,-78 -48,-89z"/>
       <path class="fil3" d="M10923 4357l-276 -80c-18,-5 -36,-3 -51,4 2,15 12,29 27,33l350 102c-4,-27 -23,-50 -50,-59z"/>
       <path class="fil3" d="M10895 4647l-350 -102c-38,-11 -59,-51 -48,-89l0 0c11,-37 50,-59 88,-48l350 102c37,11 59,50 48,88l0 0c-11,38 -51,60 -88,49z"/>
       <path class="fil3" d="M10557 4405c9,-1 19,0 28,3l349 102c29,8 48,32 51,60l-402 -117c-20,-6 -32,-27 -26,-47l0 0 0 -1z"/>
       <path class="fil3" d="M10843 4632l-276 -81c-38,-11 -78,11 -89,49l0 0c-11,37 11,77 49,88l276 81c37,11 77,-11 88,-49l0 0c11,-38 -11,-77 -48,-88z"/>
       <path class="fil3" d="M10843 4632l-276 -81c-18,-5 -37,-3 -52,5 0,16 11,32 27,36l352 103c-2,-29 -22,-55 -51,-63z"/>
       <path class="fil3" d="M10909 4368l-22 -6 -32 110 22 6c32,10 65,-8 74,-38l0 0c9,-30 -10,-63 -42,-72z"/>
       <path class="fil3" d="M10920 4520l-22 -6 -32 110 22 6c32,10 65,-8 74,-38l0 0c9,-30 -10,-63 -42,-72z"/>
       <path class="fil3" d="M10829 4642l-22 -6 -32 110 22 6c32,10 65,-7 74,-38l0 0c9,-30 -10,-63 -42,-72z"/>
       <path class="fil3" d="M10720 4893l-233 -68c-38,-11 -60,-50 -49,-88l0 0c11,-38 51,-60 89,-49l233 68c38,11 60,51 49,89l0 0c-11,37 -51,59 -89,48z"/>
       <path class="fil3" d="M10767 4758l-247 -72c-16,-4 -33,-2 -47,7 -1,16 9,31 23,35l316 92c-2,-29 -19,-54 -45,-62z"/>
       <path class="fil3" d="M10711 4876l-22 -6 33 -110 21 6c33,9 52,42 43,72l0 0c-9,30 -43,48 -75,38z"/>
      </g>
      <g>
       <polygon class="fil3" points="11696,4552 11520,4501 11368,5023 11544,5074 "/>
       <polygon class="fil3" points="14400,5300 11648,4498 11475,5095 14400,5947 "/>
       <polygon class="fil3" points="14400,5300 11648,4498 11580,4732 14400,5554 "/>
      </g>
     </g>
     <g>
      <g>
       <path class="fil3" d="M12750 7407l3 -1 447 -108c50,-12 82,-63 70,-114l-58 -238c-19,-79 -331,-128 -378,-126 -17,1 -138,31 -217,51 25,78 90,353 133,536z"/>
       <path class="fil3" d="M12750 7407l3 -1 447 -108c50,-12 82,-62 71,-110l-48 -199c-18,-75 -330,-120 -376,-118 -17,1 -137,31 -215,51 30,112 82,331 118,485z"/>
      </g>
      <g>
       <g>
        <path class="fil3" d="M12815 7391l115 -28 -98 -415c-5,-24 -29,-38 -53,-33l-75 18c29,111 77,311 111,458z"/>
        <path class="fil3" d="M12815 7391l115 -28 -98 -415c-5,-24 -29,-38 -53,-33l-75 18c29,111 77,311 111,458z"/>
       </g>
       <g>
        <path class="fil3" d="M12815 7391l115 -28 -98 -415c-5,-24 -29,-38 -53,-33l-75 18c29,111 77,311 111,458z"/>
        <path class="fil3" d="M12815 7391l115 -28 -98 -415c-5,-24 -29,-38 -53,-33l-75 18c29,111 77,311 111,458z"/>
       </g>
       <g>
        <path class="fil3" d="M12709 6951c5,20 11,42 17,66l116 -27 -10 -43c-2,-9 -7,-16 -14,-22l-109 26z"/>
        <path class="fil3" d="M12709 6951c5,20 11,42 17,66l116 -27 -10 -43c-2,-9 -7,-16 -14,-22l-109 26z"/>
       </g>
       <g>
        <path class="fil3" d="M12709 6951c5,20 11,42 17,66l116 -27 -10 -43c-2,-9 -7,-16 -14,-22l-109 26z"/>
        <path class="fil3" d="M12709 6951c5,20 11,42 17,66l116 -27 -10 -43c-2,-9 -7,-16 -14,-22l-109 26z"/>
       </g>
       <g>
        <path class="fil3" d="M12865 6827c-46,10 -123,30 -179,44 7,21 17,56 28,100l148 -35c15,-4 24,-19 21,-34l-18 -75z"/>
        <path class="fil3" d="M12876 6873c-13,-2 -24,-2 -29,-2 -13,1 -83,18 -150,35 5,18 10,40 17,65l148 -35c15,-4 24,-19 21,-34l-7 -29z"/>
       </g>
       <g>
        <path class="fil3" d="M12877 6878c-46,11 -121,30 -176,43 4,15 8,32 13,50l148 -35c15,-4 24,-19 21,-34l-6 -24z"/>
        <path class="fil3" d="M12877 6878c-46,11 -121,30 -176,43 4,15 8,32 13,50l148 -35c15,-4 24,-19 21,-34l-6 -24z"/>
       </g>
       <path class="fil3" d="M12865 6827c-46,10 -123,30 -179,44l1 2 179 -42 -1 -4z"/>
      </g>
      <g>
       <path class="fil3" d="M12609 6628l179 -42c144,-34 235,-180 201,-325l0 0c-34,-144 -181,-235 -325,-201l-178 43c-145,34 -235,180 -201,324l0 0c34,145 180,235 324,201z"/>
       <path class="fil3" d="M12609 6628l179 -42c120,-29 203,-134 208,-252l-654 154c-10,2 -21,5 -31,8 57,103 178,160 298,132z"/>
       <path class="fil3" d="M10896 6470c-147,35 -238,182 -204,329 35,147 182,238 329,203 147,-34 238,-182 203,-328 -34,-147 -182,-238 -328,-204z"/>
       <path class="fil3" d="M12728 6867l-108 25c-26,6 -41,32 -35,57l123 524c6,25 31,41 57,35l108 -26c25,-6 41,-31 35,-57l-123 -523c-6,-26 -32,-41 -57,-35z"/>
       <path class="fil3" d="M12587 6920c-4,8 -5,18 -3,27l11 46 200 -48 -11 -45c-2,-9 -7,-17 -14,-23l-183 43z"/>
       <path class="fil3" d="M10806 5898c0,0 660,358 1602,164 51,-10 99,-18 144,-23l144 609c-43,16 -89,31 -139,44 -930,247 -1361,863 -1361,863l-187 -795 -16 -67 -187 -795z"/>
       <path class="fil3" d="M10806 5898c0,0 660,358 1602,164 51,-10 99,-18 144,-23l14 57c-91,21 -190,44 -297,67 -626,138 -1140,57 -1403,-8l-60 -257z"/>
       <path class="fil3" d="M12641 6417l55 231c-43,16 -89,31 -139,44 -930,247 -1361,863 -1361,863l-111 -472c323,-307 860,-492 1257,-595l299 -71z"/>
       <path class="fil3" d="M10807 5812l0 0c-56,13 -91,70 -77,125l382 1623c13,56 69,91 125,77l0 0c56,-13 91,-69 78,-125l-383 -1622c-13,-56 -69,-91 -125,-78z"/>
       <path class="fil3" d="M10807 5812l0 0c-56,13 -91,70 -77,125l28 119c55,16 131,36 226,55l-52 -221c-13,-56 -69,-91 -125,-78z"/>
       <path class="fil3" d="M10928 6780l184 780c13,56 70,91 125,77l0 0c56,-13 91,-69 78,-125l-211 -894c-65,50 -124,104 -176,162z"/>
       <path class="fil3" d="M12764 6666l-266 63c-16,4 -26,19 -22,35l39 165c4,16 20,26 35,22l266 -63c16,-3 26,-19 22,-35l-39 -165c-3,-16 -19,-26 -35,-22z"/>
       <polygon class="fil3" points="12477,6767 12497,6853 12820,6777 12800,6691 "/>
       <path class="fil3" d="M12624 5924l-332 79c-32,7 -52,39 -44,71l161 686c8,32 40,51 72,44l332 -78c32,-8 52,-40 44,-72l-37 -156 -29 7c-13,3 -26,-5 -29,-18l-5 -21c-3,-13 5,-26 18,-29l29 -7 -20 -85 -29 7c-13,3 -26,-5 -29,-18l-5 -21c-3,-13 5,-25 18,-28l29 -7 -20 -86 -29 7c-13,3 -26,-5 -29,-17l-5 -22c-3,-12 5,-25 18,-28l29 -7 -36 -157c-8,-32 -40,-51 -72,-44z"/>
       <path class="fil3" d="M12624 5924l-332 79c-32,7 -52,39 -44,71l21 89c170,-37 319,-72 448,-104l-21 -91c-8,-32 -40,-51 -72,-44z"/>
       <path class="fil3" d="M12345 6487l64 273c8,32 40,51 72,44l332 -78c32,-8 52,-40 44,-72l-37 -156 -29 7c-13,3 -26,-5 -29,-18l-5 -21c-3,-13 5,-26 18,-29l29 -7 -11 -49 -448 106z"/>
       <path class="fil3" d="M10547 6637l-424 -45c-18,-1 -35,12 -37,30l0 0c-1,18 12,35 30,37l424 44c18,2 34,-12 36,-30l0 0c2,-18 -11,-34 -29,-36z"/>
       <path class="fil3" d="M10587 6928l-366 218c-16,9 -21,29 -12,45l0 0c10,16 30,21 46,12l366 -218c16,-10 21,-30 12,-46l0 0c-10,-15 -30,-21 -46,-11z"/>
       <path class="fil3" d="M10784 7116l-234 355c-10,16 -6,36 9,46l0 0c15,11 36,6 46,-9l235 -356c10,-15 6,-36 -10,-46l0 0c-15,-10 -35,-5 -46,10z"/>
       <path class="fil3" d="M10648 6450l-348 -246c-15,-10 -18,-31 -8,-46l0 0c11,-15 32,-19 47,-8l348 246c15,11 18,31 8,46l0 0c-11,15 -32,19 -47,8z"/>
       <g>
        <path class="fil3" d="M12540 6099l-196 46c-14,3 -23,17 -19,31l0 0c3,14 17,22 31,19l196 -46c13,-3 22,-17 19,-31l0 0c-3,-14 -17,-23 -31,-19z"/>
        <path class="fil3" d="M12576 6251l-196 46c-14,4 -23,18 -19,32l0 0c3,14 17,22 31,19l196 -46c13,-3 22,-17 19,-31l0 0c-3,-14 -17,-23 -31,-20z"/>
        <path class="fil3" d="M12612 6404l-196 46c-14,3 -23,17 -19,31l0 0c3,14 17,23 31,20l196 -46c13,-4 22,-18 19,-32l0 0c-3,-14 -17,-22 -31,-19z"/>
        <path class="fil3" d="M12648 6557l-196 46c-14,3 -23,17 -19,31l0 0c3,14 17,23 31,19l196 -46c13,-3 22,-17 19,-31l0 0c-3,-14 -17,-22 -31,-19z"/>
       </g>
      </g>
      <g>
       <path class="fil3" d="M12681 7011l-219 53c-30,7 -49,37 -42,67l0 0c7,30 38,49 68,42l219 -53c30,-7 49,-38 41,-68l0 0c-7,-30 -37,-48 -67,-41z"/>
       <path class="fil3" d="M12681 7011l-219 53c-14,3 -26,11 -33,22 7,10 19,15 31,12l278 -67c-13,-17 -35,-25 -57,-20z"/>
       <path class="fil3" d="M12774 7219l-277 67c-30,7 -61,-12 -68,-42l0 0c-7,-30 12,-60 42,-67l277 -67c30,-7 60,11 68,41l0 0c7,30 -12,61 -42,68z"/>
       <path class="fil3" d="M12451 7186c5,-4 12,-7 20,-9l277 -67c23,-5 45,4 58,21l-320 77c-15,4 -32,-6 -35,-22l0 0 0 0z"/>
       <path class="fil3" d="M12733 7229l-219 53c-30,7 -49,37 -41,67l0 0c7,30 37,49 67,41l219 -52c30,-7 49,-38 42,-68l0 0c-8,-30 -38,-48 -68,-41z"/>
       <path class="fil3" d="M12733 7229l-219 53c-14,3 -26,12 -34,23 7,11 20,17 33,14l280 -67c-13,-19 -37,-29 -60,-23z"/>
       <path class="fil3" d="M12675 7024l-17 4 21 87 17 -4c26,-6 42,-31 36,-55l0 0c-5,-24 -31,-39 -57,-32z"/>
       <path class="fil3" d="M12742 7123l-17 4 21 88 17 -5c26,-6 42,-31 36,-55l0 0c-6,-24 -31,-38 -57,-32z"/>
       <path class="fil3" d="M12728 7241l-18 5 22 87 17 -4c25,-6 42,-31 36,-55l0 0c-6,-24 -32,-39 -57,-33z"/>
       <path class="fil3" d="M12751 7455l-185 44c-30,8 -60,-11 -67,-41l0 0c-7,-30 11,-60 41,-68l185 -44c30,-7 61,11 68,41l0 0c7,30 -12,61 -42,68z"/>
       <path class="fil3" d="M12731 7345l-196 47c-13,3 -24,11 -30,22 6,12 18,18 30,15l250 -60c-12,-19 -33,-29 -54,-24z"/>
       <path class="fil3" d="M12739 7447l-17 4 -22 -88 18 -4c25,-6 51,9 57,33l0 0c6,24 -11,48 -36,55z"/>
      </g>
      <g>
       <polygon class="fil3" points="13284,6842 13144,6876 13244,7291 13383,7257 "/>
       <polygon class="fil3" points="14400,6542 13230,6824 13344,7298 14400,7044 "/>
       <polygon class="fil3" points="14400,6542 13230,6824 13275,7010 14400,6740 "/>
      </g>
     </g>
     <g>
      <path class="fil3" d="M6663 1131l1390 193c30,4 51,32 47,61l-104 752c-4,30 -32,51 -62,47l-1390 -193c-30,-4 -51,-32 -46,-61l104 -752c4,-30 32,-51 61,-47z"/>
      <path class="fil3" d="M6663 1131l695 97 -119 860 -695 -97c-30,-4 -51,-32 -46,-61l104 -752c4,-30 32,-51 61,-47z"/>
     </g>
     <g>
      <g>
       <polygon class="fil3" points="4453,4006 4451,4440 4256,4382 "/>
       <polygon class="fil3" points="4453,4006 4452,4167 4380,4145 "/>
      </g>
      <polygon class="fil3" points="4453,4006 4452,4179 4393,4420 4321,4399 4387,4131 "/>
      <polygon class="fil3" points="4453,4006 4452,4167 4384,4146 4387,4131 "/>
      <polygon class="fil3" points="3651,6848 3845,6906 4451,4438 4257,4380 "/>
      <path class="fil3" d="M3691 7108l0 0c54,16 109,-15 122,-70l8 -34c14,-54 -19,-112 -73,-127l0 0c-53,-16 -108,15 -121,69l-9 34c-13,55 20,112 73,128z"/>
      <polygon class="fil3" points="3651,6848 3845,6906 3824,6992 3629,6934 "/>
      <polygon class="fil3" points="3781,6886 3716,6867 4321,4399 4386,4419 "/>
      <polygon class="fil3" points="3800,6892 3845,6906 4451,4438 4406,4424 "/>
      <polygon class="fil3" points="3651,6848 3696,6861 4302,4393 4257,4380 "/>
     </g>
     <g>
      <path class="fil3" d="M9659 4221l300 80c31,9 50,41 41,72l-202 757c-9,31 -41,50 -72,41l-300 -80c-31,-8 -50,-41 -42,-72l203 -756c8,-32 41,-50 72,-42z"/>
      <path class="fil3" d="M9932 4630l-133 494c-9,34 -42,56 -73,47l-300 -80c-31,-8 -49,-43 -40,-78l132 -494 414 111z"/>
      <path class="fil3" d="M9436 4917l368 99c13,3 20,16 17,28l-32 120c-4,12 -17,20 -29,17l-368 -99c-13,-3 -20,-16 -17,-29l32 -120c4,-12 17,-19 29,-16z"/>
      <path class="fil3" d="M9806 5097l-6 24c-3,12 -16,20 -29,16l-368 -98c-12,-4 -20,-17 -16,-29l6 -23c-3,12 4,25 17,28l368 99c12,3 25,-4 28,-17z"/>
     </g>
     <g>
      <g>
       <polygon class="fil3" points="11321,1350 11608,1676 11424,1762 "/>
       <polygon class="fil3" points="11321,1350 11428,1471 11359,1503 "/>
      </g>
      <polygon class="fil3" points="11321,1350 11436,1480 11552,1700 11484,1731 11356,1487 "/>
      <polygon class="fil3" points="11321,1350 11428,1471 11363,1501 11356,1487 "/>
      <polygon class="fil3" points="12610,4007 12794,3921 11607,1674 11423,1760 "/>
      <path class="fil3" d="M12813 4175l0 0c51,-24 71,-84 45,-133l-17 -31c-26,-50 -89,-71 -139,-47l0 0c-51,24 -71,83 -45,133l17 31c26,49 89,70 139,47z"/>
      <polygon class="fil3" points="12610,4007 12794,3921 12836,4000 12652,4086 "/>
      <polygon class="fil3" points="12732,3950 12671,3978 11484,1731 11546,1703 "/>
      <polygon class="fil3" points="12751,3941 12794,3921 11607,1674 11564,1694 "/>
      <polygon class="fil3" points="12610,4007 12653,3987 11466,1740 11423,1760 "/>
     </g>
    </g>
    <g>
     <g>
      <g>
       <path class="fil4" d="M4637 4836l1185 -137c57,496 16,938 710,1079l-1079 124 -198 23 -1079 124c648,-297 518,-716 461,-1213z"/>
       <polygon class="fil5" points="4176,6049 6532,5778 6540,5852 4185,6123 "/>
       <g>
        <path class="fil6" d="M2370 1784l4952 -570c102,-12 195,62 206,164l365 3171c12,102 -62,195 -163,207l-4953 570c-102,11 -194,-62 -206,-164l-365 -3172c-12,-101 62,-194 164,-206z"/>
        <path class="fil7" d="M2845 1729l4453 -512c115,-13 219,59 230,161l365 3171c12,102 -72,196 -187,209l-739 85 -4122 -3114z"/>
        <path class="fil8" d="M7854 4210l54 463c3,33 -87,72 -202,85l-4905 565c-115,13 -212,-4 -216,-38l-53 -462 5322 -613z"/>
        <path class="fil9" d="M7854 4210l54 463c3,33 -87,72 -202,85l-675 78c-147,-149 -337,-318 -560,-466l1383 -160zm-5070 1115c-107,9 -195,-8 -199,-40l-53 -462 993 -114c-324,229 -564,437 -741,616z"/>
        <g>
         <path class="fil10" d="M7364 4548c51,-6 88,-47 83,-93 -5,-45 -51,-77 -102,-71 -52,5 -89,47 -84,93 6,45 51,77 103,71z"/>
         <path class="fil10" d="M7064 4583c51,-6 88,-48 83,-93 -5,-46 -51,-78 -102,-72 -52,6 -89,48 -84,93 5,46 51,78 103,72z"/>
         <path class="fil10" d="M6763 4617c52,-5 89,-47 84,-93 -6,-45 -51,-77 -103,-71 -51,6 -88,47 -83,93 5,45 51,77 102,71z"/>
        </g>
       </g>
      </g>
      <path class="fil9" d="M5850 4972c3,32 7,64 11,95l-1180 138c-2,-32 -6,-65 -10,-97l0 0 1179 -136z"/>
     </g>
     <g>
      <polygon class="fil11" points="5852,5576 9420,4888 10215,9010 6647,9698 "/>
      <polygon class="fil12" points="6065,5688 9263,5071 9383,5689 6184,6306 "/>
      <path class="fil13" d="M6350 6076l-46 -237 112 -22c31,-6 55,-4 71,6 16,9 26,28 32,57l3 15c5,28 2,50 -9,65 -11,15 -32,26 -63,32l-48 9 12 63 -64 12zm42 -128l44 -9c10,-2 17,-5 20,-9 2,-5 3,-13 0,-24l-2 -14c-2,-9 -6,-15 -11,-19 -5,-3 -12,-3 -23,-1l-42 8 14 68zm233 -52l36 -7c11,-2 18,-5 21,-10 3,-4 3,-11 1,-21l-1 -10c-2,-10 -6,-16 -10,-19 -5,-3 -12,-4 -23,-2l-36 7 12 62zm-40 135l-45 -238 95 -18c37,-7 63,-7 78,0 16,7 26,22 31,47l3 19c3,16 2,29 -4,40 -6,10 -16,18 -31,23 16,-1 29,3 38,9 9,7 15,17 18,32l9 49 -65 13 -8 -43c-2,-10 -6,-17 -10,-20 -5,-3 -12,-3 -23,-1l-35 7 13 69 -64 12zm235 -45l-46 -238 179 -34 10 53 -115 22 8 41 112 -21 8 45 -111 22 9 45 117 -23 10 53 -181 35zm200 -115l61 -12 1 3c1,8 5,14 10,16 5,3 14,3 25,1l16 -3c10,-2 16,-5 20,-8 3,-3 4,-8 3,-15l-2 -10c-1,-6 -3,-10 -7,-12 -4,-1 -11,-2 -22,-1l-53 4c-19,2 -35,-2 -45,-10 -11,-8 -19,-22 -22,-42l-3 -14c-2,-11 -2,-22 -1,-31 2,-9 6,-17 12,-24 4,-6 11,-11 19,-14 7,-4 19,-7 36,-10l38 -8c24,-4 43,-3 57,4 14,7 23,20 27,38l3 16 -61 12 -1 -2c-1,-8 -4,-12 -7,-14 -4,-2 -11,-3 -19,-1l-15 3c-10,2 -17,4 -20,7 -4,4 -5,8 -4,14l2 10c2,9 12,12 29,11l0 0 48 -4c21,-2 37,1 49,9 12,8 20,20 23,37l4 23c4,20 1,37 -9,51 -10,14 -25,23 -46,27l-52 10c-27,6 -49,5 -63,-2 -15,-8 -24,-22 -28,-43l-3 -16zm227 -44l61 -11 0 2c2,9 5,14 11,17 5,2 13,2 25,0l16 -3c9,-2 16,-4 19,-8 4,-3 5,-8 3,-15l-2 -10c-1,-6 -3,-9 -6,-11 -4,-2 -11,-3 -22,-2l-53 4c-20,2 -35,-1 -46,-9 -11,-9 -18,-23 -22,-42l-3 -15c-2,-11 -2,-21 0,-31 2,-9 5,-17 11,-24 5,-6 11,-11 19,-14 8,-4 20,-7 36,-10l38 -7c24,-5 43,-4 58,3 14,8 23,20 26,38l4 17 -62 11 0 -2c-1,-7 -4,-12 -8,-14 -4,-2 -10,-2 -19,-1l-15 3c-10,2 -16,5 -20,8 -3,3 -4,7 -3,13l2 10c2,9 11,13 29,11l0 0 48 -4c21,-1 37,2 49,9 12,8 19,20 23,38l4 22c4,20 1,37 -9,51 -10,14 -26,24 -46,28l-52 10c-28,5 -49,4 -64,-3 -14,-7 -23,-21 -27,-42l-3 -17zm405 -129l36 -7c11,-2 17,-5 21,-10 3,-4 3,-11 1,-21l-1 -10c-2,-10 -6,-16 -10,-19 -5,-3 -12,-4 -23,-2l-36 7 12 62zm-40 135l-46 -238 96 -18c37,-7 63,-7 78,0 16,7 26,23 31,47l3 19c3,16 2,29 -4,40 -6,10 -17,18 -31,23 16,0 29,3 38,9 9,7 15,17 17,32l10 49 -65 13 -8 -43c-2,-10 -6,-17 -10,-20 -5,-3 -12,-3 -23,-1l-35 7 13 69 -64 12zm235 -45l-46 -238 179 -34 10 53 -115 22 8 41 112 -21 8 45 -111 22 9 45 117 -23 10 53 -181 35zm225 -43l-46 -238 65 -13 35 183 106 -21 11 56 -171 33zm200 -39l-46 -238 178 -34 11 53 -115 22 8 41 111 -21 9 46 -111 21 8 45 118 -23 10 53 -181 35zm280 -147l52 -10 -43 -94 -4 1 -5 103zm-74 107l23 -251 98 -19 112 225 -68 13 -19 -39 -74 14 -3 44 -69 13zm233 -121l61 -12 1 3c1,8 5,14 10,16 5,3 14,3 25,1l16 -3c10,-2 17,-5 20,-8 3,-3 4,-8 3,-15l-2 -10c-1,-6 -3,-10 -7,-12 -3,-2 -11,-2 -22,-1l-53 4c-19,2 -35,-2 -45,-10 -11,-8 -18,-22 -22,-42l-3 -14c-2,-11 -2,-22 0,-31 1,-9 5,-17 11,-24 5,-6 11,-11 19,-14 7,-4 20,-7 36,-10l38 -8c24,-4 43,-3 57,4 15,7 24,20 27,38l3 16 -61 12 0 -2c-2,-8 -4,-12 -8,-14 -4,-2 -11,-3 -19,-1l-15 3c-10,2 -17,4 -20,7 -3,4 -5,8 -3,14l1 10c2,9 12,12 29,11l0 0 48 -4c21,-2 37,1 49,9 12,8 20,20 23,37l5 23c3,20 0,37 -10,51 -10,14 -25,23 -46,27l-52 10c-27,6 -48,5 -63,-2 -14,-8 -24,-22 -28,-43l-3 -16zm251 28l-45 -238 178 -34 10 53 -114 22 7 41 112 -21 9 45 -112 22 9 45 117 -23 11 53 -182 35z"/>
      <polygon class="fil14" points="6226,6522 9424,5905 9404,5802 6206,6419 "/>
      <polygon class="fil15" points="6242,6605 9440,5989 9432,5947 6234,6564 "/>
      <g>
       <polygon class="fil8" points="7500,6475 8371,6307 8386,6384 7515,6551 "/>
       <polygon class="fil8" points="6291,6861 8399,6454 8414,6531 6306,6937 "/>
       <polygon class="fil8" points="6320,7011 8428,6605 8443,6681 6335,7088 "/>
       <polygon class="fil8" points="6349,7158 8457,6752 8471,6829 6364,7235 "/>
       <polygon class="fil8" points="6378,7309 8486,6902 8500,6979 6393,7385 "/>
       <polygon class="fil8" points="6406,7456 8514,7050 8529,7126 6421,7533 "/>
       <polygon class="fil8" points="6435,7606 8543,7200 8558,7277 6450,7683 "/>
       <polygon class="fil8" points="6464,7754 8281,7403 8296,7480 6478,7830 "/>
      </g>
      <polygon class="fil16" points="8678,6434 9334,6307 9480,7066 8824,7192 "/>
      <polygon class="fil16" points="8941,7797 9596,7671 9743,8430 9087,8556 "/>
      <g>
       <polygon class="fil8" points="7763,7839 8634,7671 8649,7747 7778,7915 "/>
       <polygon class="fil8" points="6554,8224 8662,7818 8677,7895 6569,8301 "/>
       <polygon class="fil8" points="6583,8375 8691,7968 8706,8045 6598,8451 "/>
       <polygon class="fil8" points="6612,8522 8720,8116 8734,8192 6627,8599 "/>
       <polygon class="fil8" points="6641,8672 8749,8266 8763,8343 6656,8749 "/>
       <polygon class="fil8" points="6669,8820 8777,8413 8792,8490 6684,8896 "/>
       <polygon class="fil8" points="6698,8970 8806,8564 8821,8640 6713,9047 "/>
       <polygon class="fil8" points="6727,9117 8544,8767 8559,8844 6741,9194 "/>
      </g>
      <polygon class="fil12" points="6788,9439 9987,8822 9967,8719 6769,9336 "/>
     </g>
     <g>
      <path class="fil9" d="M3358 5561l628 172 638 174 4 2 717 196c133,37 212,176 176,309l-402 1467 -398 1462c-36,133 -175,212 -308,176l-717 -195 -5 0 -642 -176 -624 -170c-34,-9 -64,-25 -90,-46 -78,-60 -116,-164 -89,-264l402 -1465 398 -1465c28,-101 113,-171 211,-183 33,-5 67,-3 101,6z"/>
      <path class="fil8" d="M3346 5507l683 187 693 189 5 3 606 166c133,36 212,175 176,308l-401 1464 -399 1465c-36,134 -175,213 -308,177l-607 -165 -5 0 -689 -189 -687 -187c-36,-10 -69,-28 -96,-51l0 0 -2 -2 0 0c-72,-61 -107,-161 -80,-258l401 -1464 399 -1466c26,-97 107,-165 200,-181l0 0 3 -1 0 0c35,-6 72,-5 108,5z"/>
      <path class="fil17" d="M3229 5655l934 256 952 259 7 4 286 78c39,11 62,52 52,91l-415 1513 -411 1513c-11,39 -52,62 -91,52l-287 -78 -7 0 -951 -261 -935 -254c-14,-4 -26,-12 -36,-22 -17,-18 -25,-45 -18,-72l414 -1512 412 -1514c7,-26 28,-45 52,-52 13,-4 28,-4 42,-1z"/>
      <path class="fil11" d="M3213 5631l1088 298 1089 296c16,4 29,14 39,26 15,18 21,43 15,67l-413 1505 -413 1521c-11,39 -52,63 -91,52l-186 -50 -7 0 -901 -248 -897 -243 -6 -4 -185 -51c-40,-10 -63,-51 -52,-91l416 -1520 410 -1505c7,-25 25,-43 47,-51 15,-6 31,-7 47,-2z"/>
      <g>
       <g>
        <path class="fil18" d="M3141 6100c30,8 47,39 39,69 -8,30 -39,47 -69,39 -29,-8 -47,-39 -39,-69 8,-30 39,-47 69,-39z"/>
        <path class="fil19" d="M3141 6100c19,5 33,20 39,37 -1,2 -1,3 -1,5 -10,33 -44,52 -77,43 -12,-3 -23,-10 -31,-20 -1,-8 -1,-17 1,-26 8,-30 39,-47 69,-39z"/>
       </g>
       <path class="fil15" d="M3000 6127c68,18 127,41 170,63l-10 9 0 0c-40,-20 -98,-41 -163,-59 -128,-35 -237,-44 -243,-20 -5,19 56,52 145,83l-4 14c-101,-36 -170,-78 -163,-103 8,-31 128,-26 268,13z"/>
       <path class="fil15" d="M3014 6076c66,18 124,40 166,61l0 0 2 16 0 0c-40,-21 -101,-44 -171,-63 -128,-35 -237,-45 -243,-21 -6,19 55,53 145,83l0 0 -4 14c-101,-36 -170,-78 -164,-103 9,-31 129,-25 269,13z"/>
      </g>
      <g>
       <g>
        <path class="fil18" d="M3058 6405c29,8 47,39 39,69 -8,30 -39,47 -69,39 -30,-8 -48,-39 -39,-69 8,-30 39,-47 69,-39z"/>
        <path class="fil19" d="M3058 6405c19,5 33,19 38,37 0,1 -1,3 -1,4 -9,34 -43,53 -76,44 -13,-4 -23,-11 -31,-20 -2,-8 -2,-17 1,-26 8,-30 39,-47 69,-39z"/>
       </g>
       <path class="fil15" d="M2917 6431c67,19 127,41 169,63l-10 10 0 0c-40,-20 -97,-41 -163,-59 -127,-35 -236,-44 -243,-21 -5,19 56,53 145,84l-3 13c-102,-35 -171,-77 -164,-103 9,-31 129,-25 269,13z"/>
       <path class="fil15" d="M2931 6381c65,17 123,39 165,61l0 0 3 15 0 0c-40,-20 -101,-43 -172,-63 -128,-35 -236,-44 -243,-20 -5,18 56,52 145,83l0 0 -3 13c-102,-35 -171,-77 -164,-102 9,-32 129,-26 269,13z"/>
      </g>
      <g>
       <g>
        <path class="fil18" d="M2974 6709c30,9 48,40 39,69 -8,30 -39,48 -69,40 -29,-9 -47,-39 -39,-69 8,-30 39,-48 69,-40z"/>
        <path class="fil19" d="M2974 6709c19,6 33,20 39,37 -1,2 -1,4 -1,5 -9,33 -44,53 -77,44 -12,-4 -23,-11 -31,-20 -1,-8 -1,-17 1,-26 8,-30 39,-48 69,-40z"/>
       </g>
       <path class="fil15" d="M2834 6736c67,19 126,41 169,63l-10 10 0 0c-40,-20 -98,-41 -163,-59 -128,-35 -237,-44 -243,-21 -5,19 56,53 145,84l-4 13c-101,-35 -170,-78 -163,-103 8,-31 129,-25 269,13z"/>
       <path class="fil15" d="M2847 6685c66,18 124,40 166,61l0 0 2 16 0 0c-40,-21 -101,-44 -171,-63 -128,-35 -237,-44 -243,-21 -6,19 56,53 145,84l0 0 -4 13c-101,-35 -170,-77 -164,-103 9,-31 129,-25 269,13z"/>
      </g>
      <g>
       <g>
        <path class="fil18" d="M2891 7014c29,8 47,39 39,69 -8,30 -39,48 -69,39 -30,-8 -48,-39 -39,-69 8,-29 39,-47 69,-39z"/>
        <path class="fil19" d="M2891 7014c19,5 33,20 38,37 0,2 0,3 -1,5 -9,33 -43,52 -76,43 -13,-3 -23,-10 -31,-19 -2,-9 -2,-18 1,-27 8,-29 39,-47 69,-39z"/>
       </g>
       <path class="fil15" d="M2750 7041c67,18 127,41 169,63l-10 9 0 0c-40,-19 -97,-41 -163,-59 -127,-35 -236,-44 -243,-20 -5,19 56,53 146,83l-4 14c-102,-36 -171,-78 -164,-103 9,-31 129,-26 269,13z"/>
       <path class="fil15" d="M2764 6990c65,18 123,40 166,61l-1 0 3 16 0 0c-40,-21 -101,-44 -172,-63 -128,-35 -236,-45 -243,-21 -5,19 56,53 145,83l0 0 -3 14c-102,-36 -171,-78 -164,-103 9,-31 129,-25 269,13z"/>
      </g>
      <g>
       <g>
        <path class="fil18" d="M2763 7476c30,9 61,-9 69,-38 9,-30 -8,-61 -38,-70 -30,-8 -61,9 -69,39 -9,29 8,60 38,69z"/>
        <path class="fil19" d="M2763 7476c19,5 38,1 52,-11 1,-2 1,-3 2,-5 9,-33 -10,-67 -43,-77 -12,-3 -25,-3 -37,1 -5,6 -10,14 -12,23 -9,29 8,60 38,69z"/>
       </g>
       <path class="fil15" d="M2657 7380c67,19 129,31 177,35l-3 -14 0 0c-45,-4 -105,-16 -170,-34 -128,-37 -225,-86 -218,-110 5,-18 75,-15 167,5l4 -13c-105,-23 -186,-23 -194,2 -8,31 97,89 237,129z"/>
       <path class="fil15" d="M2642 7431c65,18 126,30 173,34l0 0 11 -12 0 0c-45,-3 -110,-16 -180,-36 -127,-37 -225,-85 -218,-109 5,-19 75,-16 167,5l0 0 4 -14c-105,-22 -186,-23 -193,3 -9,31 97,89 236,129z"/>
      </g>
      <g>
       <g>
        <path class="fil18" d="M2683 7777c30,7 61,-11 68,-41 8,-30 -10,-60 -40,-68 -30,-8 -61,10 -68,40 -8,30 10,61 40,69z"/>
        <path class="fil19" d="M2683 7777c19,5 38,-1 52,-13 0,-2 1,-3 1,-5 9,-33 -11,-67 -45,-75 -12,-4 -25,-3 -36,1 -6,7 -10,15 -12,23 -8,30 10,61 40,69z"/>
       </g>
       <path class="fil15" d="M2574 7684c68,17 130,27 178,29l-4 -13 0 0c-44,-3 -105,-13 -170,-30 -129,-33 -228,-79 -222,-103 5,-19 75,-18 168,0l3 -13c-105,-20 -186,-18 -193,8 -8,31 100,86 240,122z"/>
       <path class="fil15" d="M2561 7735c65,17 127,27 174,29l0 0 10 -12 0 0c-45,-2 -110,-13 -180,-31 -129,-33 -228,-79 -222,-103 5,-19 75,-18 168,0l0 0 3 -13c-105,-20 -186,-18 -193,8 -8,31 99,86 240,122z"/>
      </g>
      <g>
       <g>
        <path class="fil18" d="M2598 8083c30,8 61,-9 69,-39 8,-30 -10,-61 -40,-69 -30,-8 -60,10 -69,39 -8,30 10,61 40,69z"/>
        <path class="fil19" d="M2598 8083c19,6 38,0 52,-12 0,-1 1,-3 1,-4 9,-34 -10,-68 -43,-77 -13,-3 -26,-2 -37,2 -6,6 -10,14 -13,22 -8,30 10,61 40,69z"/>
       </g>
       <path class="fil15" d="M2490 7989c67,18 130,29 178,32l-4 -13 0 0c-44,-4 -105,-15 -170,-33 -128,-34 -226,-82 -220,-105 5,-19 75,-17 168,2l3 -14c-105,-21 -186,-20 -193,6 -8,31 98,87 238,125z"/>
       <path class="fil15" d="M2476 8040c66,18 127,28 174,31l0 0 10 -12 0 0c-45,-2 -109,-14 -180,-33 -128,-35 -226,-82 -220,-106 5,-18 75,-17 168,2l0 0 4 -13c-106,-21 -187,-20 -194,5 -8,32 98,88 238,126z"/>
      </g>
      <polygon class="fil5" points="3325,6062 5239,6586 5235,6599 3321,6075 "/>
      <polygon class="fil5" points="3283,6215 5197,6739 5193,6752 3280,6227 "/>
      <polygon class="fil5" points="3241,6367 5155,6891 5152,6904 3238,6380 "/>
      <polygon class="fil5" points="3200,6519 5113,7044 5110,7056 3196,6532 "/>
      <polygon class="fil5" points="3158,6672 5072,7196 5068,7209 3154,6684 "/>
      <polygon class="fil5" points="3116,6824 5030,7348 5026,7361 3113,6837 "/>
      <polygon class="fil5" points="3074,6976 4988,7501 4985,7513 3071,6989 "/>
      <polygon class="fil5" points="3033,7129 4946,7653 4943,7666 3029,7141 "/>
      <polygon class="fil5" points="2991,7281 4905,7805 4901,7818 2987,7294 "/>
      <polygon class="fil5" points="2949,7433 4863,7958 4859,7970 2946,7446 "/>
      <polygon class="fil5" points="2907,7586 4821,8110 4818,8123 2904,7598 "/>
      <polygon class="fil5" points="2866,7738 4779,8262 4776,8275 2862,7751 "/>
      <polygon class="fil5" points="2824,7890 4738,8415 4734,8427 2820,7903 "/>
      <polygon class="fil5" points="2782,8043 4696,8567 4692,8580 2779,8055 "/>
      <g>
       <g>
        <path class="fil18" d="M3225 5795c29,9 47,39 39,69 -8,30 -39,48 -69,40 -30,-9 -48,-39 -39,-69 8,-30 39,-48 69,-40z"/>
        <path class="fil19" d="M3225 5795c18,6 32,20 38,37 0,2 -1,3 -1,5 -9,33 -43,53 -76,43 -13,-3 -23,-10 -31,-19 -2,-9 -2,-18 1,-26 8,-30 39,-48 69,-40z"/>
       </g>
       <path class="fil15" d="M3084 5822c67,18 126,41 169,63l-10 9 0 0c-40,-19 -97,-40 -163,-58 -128,-35 -236,-45 -243,-21 -5,19 56,53 145,83l-3 14c-102,-36 -171,-78 -164,-103 9,-31 129,-25 269,13z"/>
       <path class="fil15" d="M3098 5771c65,18 123,40 165,61l0 0 3 16 0 0c-40,-21 -102,-44 -172,-63 -128,-35 -236,-44 -243,-21 -5,19 56,53 145,84l0 0 -3 13c-102,-35 -171,-77 -164,-103 8,-31 129,-25 269,13z"/>
      </g>
      <g>
       <g>
        <path class="fil18" d="M2516 8386c30,8 60,-10 68,-40 8,-30 -10,-61 -40,-68 -30,-8 -61,10 -68,40 -8,30 10,61 40,68z"/>
        <path class="fil19" d="M2516 8386c19,5 38,0 52,-13 0,-1 1,-3 1,-4 9,-33 -11,-67 -44,-76 -13,-3 -26,-2 -37,2 -6,6 -10,14 -12,23 -8,30 10,61 40,68z"/>
       </g>
       <path class="fil15" d="M2407 8293c68,18 130,28 178,30l-4 -13 0 0c-44,-3 -105,-13 -170,-30 -129,-34 -228,-80 -221,-103 5,-19 74,-18 167,-1l4 -13c-106,-20 -187,-18 -194,8 -8,31 100,86 240,122z"/>
       <path class="fil15" d="M2394 8344c65,17 126,27 174,30l0 -1 10 -12 0 0c-45,-2 -110,-12 -181,-30 -128,-34 -227,-80 -221,-104 5,-18 75,-17 168,0l0 0 3 -13c-105,-20 -186,-18 -193,8 -8,31 99,86 240,122z"/>
      </g>
      <g>
       <g>
        <path class="fil18" d="M2431 8693c30,8 61,-10 69,-40 8,-30 -10,-60 -40,-69 -30,-8 -60,10 -69,40 -8,30 10,61 40,69z"/>
        <path class="fil19" d="M2431 8693c19,5 38,0 52,-13 0,-1 1,-3 1,-4 9,-33 -10,-67 -43,-76 -13,-4 -26,-3 -37,1 -6,6 -10,14 -13,23 -8,30 10,61 40,69z"/>
       </g>
       <path class="fil15" d="M2323 8598c68,19 130,29 178,32l-4 -13 0 0c-44,-3 -104,-14 -170,-32 -128,-35 -226,-82 -220,-106 5,-19 75,-17 168,2l3 -13c-105,-21 -186,-20 -193,5 -8,31 98,87 238,125z"/>
       <path class="fil15" d="M2310 8649c65,18 126,29 173,32l0 -1 10 -12 0 0c-45,-2 -109,-13 -180,-32 -128,-35 -226,-82 -220,-106 5,-19 75,-17 168,2l0 0 4 -14c-106,-21 -187,-19 -194,6 -8,31 98,87 239,125z"/>
      </g>
      <polygon class="fil5" points="2740,8195 4654,8719 4651,8732 2737,8208 "/>
      <polygon class="fil5" points="2699,8348 4612,8872 4609,8884 2695,8360 "/>
      <polygon class="fil5" points="2657,8500 4571,9024 4567,9037 2654,8513 "/>
      <polygon class="fil5" points="2615,8652 4529,9177 4525,9189 2612,8665 "/>
      <polygon class="fil16" points="5399,6554 5867,6681 5831,6813 5364,6686 "/>
      <polygon class="fil20" points="5399,6554 5475,6575 5439,6706 5439,6706 5364,6686 "/>
      <polygon class="fil16" points="5112,7610 5580,7737 5544,7869 5076,7742 "/>
      <polygon class="fil20" points="5112,7610 5187,7631 5152,7762 5152,7762 5076,7742 "/>
     </g>
     <g>
      <g>
       <path class="fil21" d="M10529 4750l4 1 562 164c64,19 131,-18 150,-82l87 -300c29,-99 -286,-351 -338,-379 -19,-10 -173,-53 -273,-80 -22,101 -124,447 -192,676z"/>
       <path class="fil22" d="M10529 4750l4 1 562 164c64,19 131,-16 148,-78l73 -250c28,-95 -289,-341 -341,-368 -19,-10 -171,-52 -270,-80 -37,143 -118,418 -176,611z"/>
      </g>
      <g>
       <g>
        <path class="fil21" d="M10611 4774l145 42 154 -521c9,-30 -8,-62 -38,-70l-94 -28c-38,141 -112,392 -167,577z"/>
        <path class="fil22" d="M10611 4774l145 42 154 -521c9,-30 -8,-62 -38,-70l-94 -28c-38,141 -112,392 -167,577z"/>
       </g>
       <g>
        <path class="fil21" d="M10611 4774l145 42 154 -521c9,-30 -8,-62 -38,-70l-94 -28c-38,141 -112,392 -167,577z"/>
        <path class="fil23" d="M10611 4774l145 42 154 -521c9,-30 -8,-62 -38,-70l-94 -28c-38,141 -112,392 -167,577z"/>
       </g>
       <g>
        <path class="fil21" d="M10772 4220c-7,25 -15,53 -24,84l147 43 16 -53c3,-12 2,-23 -2,-34l-137 -40z"/>
        <path class="fil22" d="M10772 4220c-7,25 -15,53 -24,84l147 43 16 -53c3,-12 2,-23 -2,-34l-137 -40z"/>
       </g>
       <g>
        <path class="fil21" d="M10772 4220c-7,25 -15,53 -24,84l147 43 16 -53c3,-12 2,-23 -2,-34l-137 -40z"/>
        <path class="fil21" d="M10772 4220c-7,25 -15,53 -24,84l147 43 16 -53c3,-12 2,-23 -2,-34l-137 -40z"/>
       </g>
       <g>
        <path class="fil21" d="M11023 4182c-58,-18 -155,-46 -225,-65 -6,27 -18,72 -33,128l186 55c19,6 39,-5 44,-24l28 -94z"/>
        <path class="fil21" d="M11006 4239c-14,-10 -25,-17 -31,-20 -14,-7 -103,-33 -188,-57 -6,23 -14,51 -22,83l186 55c19,6 39,-5 44,-24l11 -37z"/>
       </g>
       <g>
        <path class="fil21" d="M11004 4246c-57,-18 -153,-44 -222,-64 -5,19 -11,40 -17,63l186 55c19,6 39,-5 44,-24l9 -30z"/>
        <path class="fil21" d="M11004 4246c-57,-18 -153,-44 -222,-64 -5,19 -11,40 -17,63l186 55c19,6 39,-5 44,-24l9 -30z"/>
       </g>
       <path class="fil21" d="M11023 4182c-58,-18 -155,-46 -225,-65l-1 3 225 66 1 -4z"/>
      </g>
      <g>
       <path class="fil24" d="M10866 3800l224 66c182,54 374,-51 428,-232l0 0c54,-182 -51,-374 -232,-428l-224 -66c-182,-54 -374,51 -428,232l0 0c-54,181 51,374 232,428z"/>
       <path class="fil25" d="M10866 3800l224 66c151,45 310,-20 390,-148l-821 -243c-13,-3 -26,-7 -39,-10 -2,150 96,290 246,335z"/>
       <path class="fil8" d="M9070 2541c-185,-55 -378,50 -433,235 -55,184 50,378 235,433 184,54 378,-51 433,-235 55,-185 -51,-379 -235,-433z"/>
       <path class="fil12" d="M10847 4139l-137 -41c-31,-9 -65,9 -74,41l-195 657c-9,32 9,66 41,75l136 40c31,10 65,-8 74,-40l195 -658c10,-31 -9,-65 -40,-74z"/>
       <path class="fil26" d="M10657 4109c-10,7 -17,16 -21,28l-17 57 252 74 17 -56c3,-12 2,-24 -2,-35l-229 -68z"/>
       <path class="fil24" d="M9333 1850c0,0 503,815 1669,1196 62,21 120,43 174,66l-227 764c-57,-9 -118,-22 -181,-39 -1186,-315 -2052,94 -2052,94l296 -998 25 -85 296 -998z"/>
       <path class="fil11" d="M9333 1850c0,0 503,815 1669,1196 62,21 120,43 174,66l-21 71c-114,-34 -238,-71 -372,-113 -779,-244 -1296,-658 -1546,-897l96 -323z"/>
       <path class="fil25" d="M11035 3587l-86 289c-57,-9 -118,-22 -181,-39 -1186,-315 -2052,94 -2052,94l176 -592c552,-136 1262,-1 1767,136l376 112z"/>
       <path class="fil27" d="M9388 1757l0 0c-70,-21 -144,19 -165,89l-603 2037c-21,70 19,144 89,165l0 0c70,21 144,-19 165,-89l604 -2038c20,-70 -20,-144 -90,-164z"/>
       <path class="fil16" d="M9388 1757l0 0c-70,-21 -144,19 -165,89l-44 150c51,52 123,123 217,203l82 -278c20,-70 -20,-144 -90,-164z"/>
       <path class="fil20" d="M8910 2904l-290 979c-21,70 19,144 89,165l0 0c70,21 144,-19 165,-89l333 -1123c-104,14 -203,37 -297,68z"/>
       <path class="fil27" d="M11013 3940l-334 -99c-20,-6 -40,5 -46,25l-62 207c-6,20 6,41 26,47l333 99c20,6 41,-6 47,-26l61 -207c6,-20 -5,-40 -25,-46z"/>
       <polygon class="fil28" points="10632,3869 10600,3978 11005,4098 11037,3990 "/>
       <path class="fil27" d="M11328 3030l-418 -123c-39,-12 -82,11 -93,51l-256 861c-11,40 12,82 51,94l418 124c40,11 82,-11 94,-51l58 -197 -37 -11c-16,-5 -26,-22 -21,-38l8 -26c5,-16 22,-25 38,-21l37 11 32 -107 -38 -11c-16,-5 -25,-22 -20,-38l8 -26c5,-16 21,-25 37,-20l38 11 32 -108 -38 -11c-16,-4 -25,-21 -20,-37l8 -27c4,-16 21,-25 37,-20l38 11 58 -197c12,-40 -11,-82 -51,-94z"/>
       <path class="fil16" d="M11328 3030l-418 -123c-39,-12 -82,11 -93,51l-34 112c213,66 400,122 562,168l34 -114c12,-40 -11,-82 -51,-94z"/>
       <path class="fil20" d="M10663 3476l-102 343c-11,40 12,82 51,94l418 124c40,11 82,-11 94,-51l58 -197 -37 -11c-16,-5 -26,-22 -21,-38l8 -26c5,-16 22,-25 38,-21l37 11 18 -61 -562 -167z"/>
       <path class="fil8" d="M8579 2504l-441 -317c-19,-13 -46,-9 -59,10l0 0c-14,19 -10,45 9,59l441 317c19,14 46,9 59,-10l0 0c14,-19 10,-45 -9,-59z"/>
       <path class="fil8" d="M8439 2852l-543 9c-23,0 -42,20 -42,43l0 0c1,23 20,42 44,42l543 -10c23,0 42,-20 41,-43l0 0c0,-23 -20,-42 -43,-41z"/>
       <path class="fil8" d="M8538 3185l-484 245c-21,10 -29,36 -19,56l0 0c11,21 36,30 57,19l485 -245c20,-10 29,-36 18,-57l0 0c-10,-20 -36,-29 -57,-18z"/>
       <path class="fil8" d="M8809 2362l-229 -492c-10,-21 -1,-47 20,-56l0 0c21,-10 47,-1 56,20l230 492c10,21 0,47 -21,57l0 0c-21,9 -46,0 -56,-21z"/>
       <g>
        <path class="fil11" d="M11124 3170l-246 -73c-17,-5 -36,5 -41,22l0 0c-5,18 5,36 23,41l245 73c18,5 36,-5 41,-22l0 0c5,-18 -5,-36 -22,-41z"/>
        <path class="fil11" d="M11067 3362l-245 -73c-18,-5 -36,5 -42,22l0 0c-5,18 5,36 23,41l245 73c18,5 36,-5 42,-22l0 0c5,-18 -5,-36 -23,-41z"/>
        <path class="fil11" d="M11010 3553l-245 -72c-18,-6 -36,4 -41,22l0 0c-5,17 5,36 22,41l246 73c17,5 36,-5 41,-23l0 0c5,-17 -5,-35 -23,-41z"/>
        <path class="fil11" d="M10954 3745l-246 -73c-17,-5 -36,5 -41,23l0 0c-5,17 5,36 22,41l246 72c17,6 36,-4 41,-22l0 0c5,-17 -5,-36 -22,-41z"/>
       </g>
      </g>
      <g>
       <path class="fil22" d="M10703 4269l-276 -81c-38,-11 -77,11 -88,49l0 0c-11,37 10,77 48,88l276 81c38,11 77,-11 88,-49l0 0c11,-38 -10,-77 -48,-88z"/>
       <path class="fil21" d="M10703 4269l-276 -81c-17,-5 -35,-3 -51,4 2,15 12,29 27,33l350 102c-3,-27 -23,-50 -50,-58z"/>
       <path class="fil22" d="M10675 4558l-350 -102c-37,-11 -59,-51 -48,-89l0 0c11,-37 51,-59 88,-48l350 102c37,11 59,51 48,88l0 0c-11,38 -51,60 -88,49z"/>
       <path class="fil21" d="M10337 4317c10,-2 19,-1 28,2l350 102c28,8 47,33 51,60l-403 -117c-20,-6 -32,-27 -26,-47l0 0 0 0z"/>
       <path class="fil22" d="M10623 4543l-276 -81c-38,-11 -77,11 -88,49l0 0c-11,38 10,77 48,88l276 81c38,11 78,-11 88,-49l0 0c11,-37 -10,-77 -48,-88z"/>
       <path class="fil21" d="M10623 4543l-276 -81c-18,-5 -36,-3 -52,5 0,17 11,32 27,37l352 102c-2,-29 -22,-55 -51,-63z"/>
       <path class="fil8" d="M10689 4279l-22 -6 -32 110 22 6c32,10 65,-7 74,-38l0 0c9,-30 -10,-63 -42,-72z"/>
       <path class="fil8" d="M10700 4431l-22 -6 -32 110 22 6c32,10 66,-7 74,-38l0 0c9,-30 -10,-63 -42,-72z"/>
       <path class="fil8" d="M10609 4553l-22 -6 -32 110 22 6c32,10 66,-7 74,-38l0 0c9,-30 -10,-62 -42,-72z"/>
       <path class="fil22" d="M10500 4804l-233 -68c-37,-11 -59,-50 -48,-88l0 0c11,-38 50,-60 88,-49l233 68c38,11 60,51 49,89l0 0c-11,38 -51,59 -89,48z"/>
       <path class="fil21" d="M10547 4669l-247 -72c-16,-4 -33,-2 -47,7 -1,16 9,31 23,35l316 92c-1,-29 -18,-54 -45,-62z"/>
       <path class="fil8" d="M10491 4787l-21 -6 32 -110 22 6c32,9 51,42 42,72l0 0c-9,31 -42,48 -75,38z"/>
      </g>
      <g>
       <polygon class="fil4" points="11476,4463 11301,4412 11148,4934 11324,4986 "/>
       <polygon class="fil29" points="14400,5275 11429,4409 11255,5006 14400,5922 "/>
       <polygon class="fil15" points="14400,5275 11429,4409 11360,4643 14400,5529 "/>
      </g>
     </g>
     <g>
      <g>
       <path class="fil21" d="M12530 7318l3 -1 447 -107c51,-13 82,-64 70,-115l-57 -238c-19,-79 -332,-128 -379,-126 -16,1 -138,31 -216,51 24,78 90,353 132,536z"/>
       <path class="fil22" d="M12530 7318l3 -1 447 -107c51,-13 82,-62 71,-111l-48 -199c-18,-75 -330,-120 -376,-118 -17,1 -137,31 -215,51 30,112 82,331 118,485z"/>
      </g>
      <g>
       <g>
        <path class="fil21" d="M12595 7302l115 -28 -97 -415c-6,-23 -30,-38 -54,-33l-75 18c30,111 77,311 111,458z"/>
        <path class="fil22" d="M12595 7302l115 -28 -97 -415c-6,-23 -30,-38 -54,-33l-75 18c30,111 77,311 111,458z"/>
       </g>
       <g>
        <path class="fil21" d="M12595 7302l115 -28 -97 -415c-6,-23 -30,-38 -54,-33l-75 18c30,111 77,311 111,458z"/>
        <path class="fil23" d="M12595 7302l115 -28 -97 -415c-6,-23 -30,-38 -54,-33l-75 18c30,111 77,311 111,458z"/>
       </g>
       <g>
        <path class="fil21" d="M12489 6862c5,20 11,42 17,66l116 -27 -10 -43c-2,-9 -7,-16 -14,-22l-109 26z"/>
        <path class="fil22" d="M12489 6862c5,20 11,42 17,66l116 -27 -10 -43c-2,-9 -7,-16 -14,-22l-109 26z"/>
       </g>
       <g>
        <path class="fil21" d="M12489 6862c5,20 11,42 17,66l116 -27 -10 -43c-2,-9 -7,-16 -14,-22l-109 26z"/>
        <path class="fil21" d="M12489 6862c5,20 11,42 17,66l116 -27 -10 -43c-2,-9 -7,-16 -14,-22l-109 26z"/>
       </g>
       <g>
        <path class="fil21" d="M12645 6738c-46,10 -123,30 -178,44 6,21 16,56 27,100l148 -35c15,-4 25,-19 21,-33l-18 -76z"/>
        <path class="fil21" d="M12656 6784c-13,-1 -23,-2 -29,-2 -13,1 -83,18 -150,35 5,18 11,40 17,65l148 -35c15,-4 25,-19 21,-33l-7 -30z"/>
       </g>
       <g>
        <path class="fil21" d="M12657 6789c-45,11 -121,30 -176,44 4,14 8,31 13,49l148 -35c15,-4 25,-19 21,-33l-6 -25z"/>
        <path class="fil21" d="M12657 6789c-45,11 -121,30 -176,44 4,14 8,31 13,49l148 -35c15,-4 25,-19 21,-33l-6 -25z"/>
       </g>
       <path class="fil21" d="M12645 6738c-46,10 -123,30 -178,44l0 2 179 -42 -1 -4z"/>
      </g>
      <g>
       <path class="fil9" d="M12390 6539l178 -42c145,-34 235,-180 201,-325l0 0c-34,-144 -180,-234 -325,-200l-178 42c-145,34 -235,180 -201,324l0 0c34,145 180,235 325,201z"/>
       <path class="fil30" d="M12390 6539l178 -42c120,-28 203,-134 208,-252l-654 154c-10,2 -20,5 -31,8 58,103 179,160 299,132z"/>
       <path class="fil8" d="M10676 6381c-147,35 -238,182 -204,329 35,147 182,238 329,203 147,-34 238,-181 203,-328 -34,-147 -181,-238 -328,-204z"/>
       <path class="fil24" d="M12508 6778l-108 25c-25,6 -41,32 -35,57l123 524c6,25 32,41 57,35l108 -26c26,-6 41,-31 35,-57l-123 -523c-6,-26 -31,-41 -57,-35z"/>
       <path class="fil31" d="M12367 6831c-4,9 -5,18 -3,28l11 45 200 -48 -10 -45c-3,-9 -8,-17 -15,-23l-183 43z"/>
       <path class="fil9" d="M10586 5809c0,0 660,358 1603,164 50,-10 98,-18 144,-23l143 609c-43,16 -89,31 -139,44 -930,247 -1361,863 -1361,863l-187 -795 -16 -67 -187 -795z"/>
       <path class="fil4" d="M10586 5809c0,0 660,358 1603,164 50,-10 98,-18 144,-23l13 57c-91,21 -190,44 -297,67 -626,138 -1140,57 -1403,-8l-60 -257z"/>
       <path class="fil30" d="M12422 6328l54 231c-43,16 -89,31 -139,44 -930,247 -1361,863 -1361,863l-111 -472c323,-307 860,-492 1257,-595l300 -71z"/>
       <path class="fil14" d="M10587 5723l0 0c-56,13 -90,70 -77,125l382 1623c13,56 70,91 125,77l0 0c56,-13 91,-69 78,-125l-383 -1622c-13,-56 -69,-91 -125,-78z"/>
       <path class="fil32" d="M10587 5723l0 0c-56,13 -90,70 -77,125l28 119c55,17 131,36 226,55l-52 -221c-13,-56 -69,-91 -125,-78z"/>
       <path class="fil33" d="M10708 6691l184 780c13,56 70,91 125,77l0 0c56,-13 91,-69 78,-125l-211 -894c-65,50 -124,104 -176,162z"/>
       <path class="fil33" d="M12544 6577l-266 63c-15,4 -25,20 -22,35l39 165c4,16 20,26 36,22l266 -63c15,-3 25,-19 21,-35l-38 -165c-4,-16 -20,-25 -36,-22z"/>
       <polygon class="fil34" points="12257,6678 12277,6764 12601,6688 12580,6602 "/>
       <path class="fil14" d="M12405 5835l-333 79c-32,7 -52,39 -44,71l162 686c7,32 39,52 71,44l332 -78c32,-8 52,-40 44,-72l-36 -156 -30 7c-13,3 -26,-5 -29,-18l-5 -21c-3,-13 5,-26 18,-29l30 -7 -20 -85 -30 7c-13,3 -26,-5 -29,-18l-5 -21c-3,-12 5,-25 18,-28l30 -7 -20 -86 -30 7c-13,3 -26,-5 -29,-17l-5 -21c-3,-13 5,-26 18,-29l30 -7 -37 -157c-8,-31 -40,-51 -71,-44z"/>
       <path class="fil32" d="M12405 5835l-333 79c-32,7 -52,39 -44,71l21 89c171,-37 319,-72 448,-104l-21 -91c-8,-31 -40,-51 -71,-44z"/>
       <path class="fil33" d="M12125 6398l65 273c7,32 39,52 71,44l332 -78c32,-8 52,-40 44,-72l-36 -156 -30 7c-13,3 -26,-5 -29,-18l-5 -21c-3,-13 5,-26 18,-29l30 -7 -12 -49 -448 106z"/>
       <path class="fil8" d="M10327 6548l-424 -44c-18,-2 -34,11 -36,29l0 0c-2,18 11,35 29,37l424 44c18,2 35,-12 37,-30l0 0c1,-18 -12,-34 -30,-36z"/>
       <path class="fil8" d="M10367 6839l-366 218c-16,9 -21,29 -12,45l0 0c10,16 30,21 46,12l366 -218c16,-10 21,-30 12,-46l0 0c-10,-15 -30,-21 -46,-11z"/>
       <path class="fil8" d="M10565 7027l-235 356c-10,15 -6,35 9,46l0 0c16,10 36,5 46,-10l235 -356c10,-15 6,-35 -9,-46l0 0c-16,-10 -36,-5 -46,10z"/>
       <path class="fil8" d="M10428 6361l-347 -246c-15,-10 -19,-31 -8,-46l0 0c10,-15 31,-19 46,-8l348 246c15,11 18,31 8,46l0 0c-11,15 -32,19 -47,8z"/>
       <g>
        <path class="fil4" d="M12320 6010l-196 46c-14,3 -22,17 -19,31l0 0c3,14 17,23 31,19l196 -46c14,-3 22,-17 19,-31l0 0c-3,-14 -17,-23 -31,-19z"/>
        <path class="fil4" d="M12356 6162l-196 47c-14,3 -22,17 -19,31l0 0c3,14 17,22 31,19l196 -46c14,-3 22,-17 19,-31l0 0c-3,-14 -17,-23 -31,-20z"/>
        <path class="fil4" d="M12392 6315l-196 46c-14,4 -22,18 -19,31l0 0c3,14 17,23 31,20l196 -46c14,-4 22,-18 19,-32l0 0c-3,-13 -17,-22 -31,-19z"/>
        <path class="fil4" d="M12428 6468l-196 46c-14,3 -22,17 -19,31l0 0c3,14 17,23 31,19l196 -46c14,-3 22,-17 19,-31l0 0c-3,-14 -17,-22 -31,-19z"/>
       </g>
      </g>
      <g>
       <path class="fil22" d="M12461 6922l-219 53c-30,7 -49,37 -42,67l0 0c8,30 38,49 68,42l219 -53c30,-7 49,-38 42,-68l0 0c-8,-30 -38,-48 -68,-41z"/>
       <path class="fil21" d="M12461 6922l-219 53c-14,3 -25,11 -33,22 7,10 19,15 31,12l278 -67c-13,-17 -35,-25 -57,-20z"/>
       <path class="fil22" d="M12555 7130l-278 67c-30,7 -60,-12 -68,-42l0 0c-7,-30 12,-60 42,-67l277 -67c30,-7 61,12 68,41l0 0c7,30 -12,61 -41,68z"/>
       <path class="fil21" d="M12231 7097c6,-4 12,-7 20,-9l277 -67c23,-5 46,4 59,21l-320 77c-16,4 -32,-6 -36,-22l0 0 0 0z"/>
       <path class="fil22" d="M12513 7140l-219 53c-30,7 -48,37 -41,67l0 0c7,30 37,49 67,42l220 -53c29,-7 48,-38 41,-68l0 0c-7,-30 -38,-48 -68,-41z"/>
       <path class="fil21" d="M12513 7140l-219 53c-14,3 -26,12 -33,23 6,11 19,17 32,14l280 -67c-13,-19 -36,-29 -60,-23z"/>
       <path class="fil8" d="M12456 6935l-18 4 21 87 18 -4c25,-6 41,-31 36,-55l0 0c-6,-24 -32,-39 -57,-32z"/>
       <path class="fil8" d="M12522 7034l-17 4 21 88 17 -5c26,-6 42,-30 36,-55l0 0c-6,-24 -31,-38 -57,-32z"/>
       <path class="fil8" d="M12508 7152l-17 5 21 87 17 -4c26,-6 42,-31 36,-55l0 0c-6,-24 -32,-39 -57,-33z"/>
       <path class="fil22" d="M12532 7366l-185 44c-30,8 -61,-11 -68,-41l0 0c-7,-30 11,-60 41,-67l185 -45c30,-7 61,11 68,41l0 0c7,30 -11,61 -41,68z"/>
       <path class="fil21" d="M12511 7256l-196 47c-13,3 -23,11 -30,23 6,11 18,17 30,14l250 -60c-12,-19 -33,-29 -54,-24z"/>
       <path class="fil8" d="M12519 7358l-17 4 -21 -88 17 -4c25,-6 51,9 57,33l0 0c6,24 -10,49 -36,55z"/>
      </g>
      <g>
       <polygon class="fil4" points="13064,6753 12924,6787 13024,7202 13163,7168 "/>
       <polygon class="fil26" points="14400,6401 13010,6735 13124,7209 14400,6902 "/>
       <polygon class="fil12" points="14400,6401 13010,6735 13055,6921 14400,6598 "/>
      </g>
     </g>
     <g>
      <path class="fil24" d="M6444 1042l1389 193c30,4 51,32 47,62l-104 751c-4,30 -32,51 -62,47l-1390 -193c-29,-4 -50,-32 -46,-61l104 -752c4,-30 32,-51 62,-47z"/>
      <path class="fil11" d="M6444 1042l695 97 -120 860 -695 -97c-29,-4 -50,-32 -46,-61l104 -752c4,-30 32,-51 62,-47z"/>
     </g>
     <g>
      <g>
       <polygon class="fil35" points="4233,3917 4231,4351 4036,4293 "/>
       <polygon class="fil36" points="4233,3917 4232,4078 4160,4056 "/>
      </g>
      <polygon class="fil37" points="4233,3917 4232,4091 4173,4332 4102,4310 4167,4042 "/>
      <polygon class="fil36" points="4233,3917 4232,4078 4164,4058 4167,4042 "/>
      <polygon class="fil8" points="3431,6759 3626,6817 4231,4349 4037,4291 "/>
      <path class="fil8" d="M3471 7019l0 0c54,16 109,-15 122,-70l8 -34c14,-54 -19,-111 -73,-127l0 0c-53,-16 -108,15 -121,69l-9 35c-13,54 20,111 73,127z"/>
      <polygon class="fil18" points="3431,6759 3626,6817 3604,6903 3410,6846 "/>
      <polygon class="fil20" points="3561,6797 3496,6778 4102,4310 4167,4330 "/>
      <polygon class="fil16" points="3580,6803 3626,6817 4231,4349 4186,4335 "/>
      <polygon class="fil16" points="3431,6759 3476,6772 4082,4305 4037,4291 "/>
     </g>
     <g>
      <path class="fil24" d="M9439 4132l300 81c31,8 50,40 42,71l-203 757c-8,31 -41,50 -72,42l-300 -81c-31,-8 -50,-41 -41,-72l202 -756c9,-32 41,-50 72,-42z"/>
      <path class="fil14" d="M9712 4541l-133 494c-9,35 -42,56 -73,48l-300 -81c-31,-8 -49,-43 -40,-78l132 -494 414 111z"/>
      <path class="fil33" d="M9216 4828l368 99c13,3 20,16 17,28l-32 120c-4,13 -16,20 -29,17l-368 -99c-13,-3 -20,-16 -17,-29l32 -119c4,-13 17,-20 29,-17z"/>
      <path class="fil8" d="M9587 5008l-7 24c-3,12 -16,20 -28,16l-368 -98c-13,-4 -20,-17 -17,-29l6 -23c-3,12 4,25 17,28l368 99c12,3 25,-4 29,-17z"/>
     </g>
     <g>
      <g>
       <polygon class="fil35" points="11101,1261 11388,1587 11204,1673 "/>
       <polygon class="fil36" points="11101,1261 11208,1382 11140,1414 "/>
      </g>
      <polygon class="fil37" points="11101,1261 11216,1392 11332,1611 11265,1643 11136,1399 "/>
      <polygon class="fil36" points="11101,1261 11208,1382 11143,1412 11136,1399 "/>
      <polygon class="fil8" points="12390,3918 12574,3832 11387,1585 11203,1671 "/>
      <path class="fil8" d="M12593 4086l0 0c51,-24 71,-84 45,-133l-17 -31c-26,-50 -88,-71 -139,-47l0 0c-51,24 -71,84 -45,133l17 31c26,49 89,71 139,47z"/>
      <polygon class="fil18" points="12390,3918 12574,3832 12616,3911 12432,3997 "/>
      <polygon class="fil26" points="12513,3861 12451,3889 11265,1643 11326,1614 "/>
      <polygon class="fil12" points="12531,3852 12574,3832 11387,1585 11344,1605 "/>
      <polygon class="fil12" points="12390,3918 12433,3898 11246,1651 11203,1671 "/>
     </g>
    </g>
   </g>
   <path class="fil38" d="M1288 3986c112,0 203,91 203,203 0,112 -91,203 -203,203 -112,0 -203,-91 -203,-203 0,-112 91,-203 203,-203z"/>
   <path class="fil38" d="M1667 2840c78,0 142,63 142,141 0,78 -64,141 -142,141 -78,0 -141,-63 -141,-141 0,-78 63,-141 141,-141z"/>
   <path class="fil38" d="M3237 1182c39,0 71,31 71,70 0,39 -32,71 -71,71 -39,0 -70,-32 -70,-71 0,-39 31,-70 70,-70z"/>
   <path class="fil38" d="M4401 1040c59,0 106,48 106,106 0,59 -47,106 -106,106 -58,0 -105,-47 -105,-106 0,-58 47,-106 105,-106z"/>
   <path class="fil38" d="M2047 5468c53,0 97,43 97,97 0,53 -44,97 -97,97 -54,0 -97,-44 -97,-97 0,-54 43,-97 97,-97z"/>
   <path class="fil38" d="M1632 7249c88,0 159,71 159,159 0,88 -71,159 -159,159 -88,0 -159,-71 -159,-159 0,-88 71,-159 159,-159z"/>
   <path class="fil38" d="M5742 9207c49,0 88,40 88,88 0,49 -39,89 -88,89 -49,0 -88,-40 -88,-89 0,-48 39,-88 88,-88z"/>
   <path class="fil38" d="M6139 8343c44,0 79,35 79,79 0,44 -35,80 -79,80 -44,0 -79,-36 -79,-80 0,-44 35,-79 79,-79z"/>
   <path class="fil38" d="M5962 7267c54,0 97,43 97,97 0,54 -43,97 -97,97 -53,0 -97,-43 -97,-97 0,-54 44,-97 97,-97z"/>
   <path class="fil38" d="M8600 4409c97,0 176,79 176,177 0,97 -79,176 -176,176 -98,0 -177,-79 -177,-176 0,-98 79,-177 177,-177z"/>
   <path class="fil38" d="M13574 6103c29,0 53,24 53,53 0,29 -24,53 -53,53 -30,0 -53,-24 -53,-53 0,-29 23,-53 53,-53z"/>
   <path class="fil38" d="M8838 1129c63,0 114,51 114,114 0,64 -51,115 -114,115 -64,0 -115,-51 -115,-115 0,-63 51,-114 115,-114z"/>
   <path class="fil38" d="M12692 1993c87,0 158,71 158,159 0,87 -71,158 -158,158 -88,0 -159,-71 -159,-158 0,-88 71,-159 159,-159z"/>
   <path class="fil38" d="M10769 2275c88,0 159,71 159,159 0,88 -71,159 -159,159 -88,0 -159,-71 -159,-159 0,-88 71,-159 159,-159z"/>
   <path class="fil38" d="M12507 1270c73,0 132,59 132,132 0,73 -59,132 -132,132 -74,0 -133,-59 -133,-132 0,-73 59,-132 133,-132z"/>
   <path class="fil38" d="M11695 873c24,0 44,20 44,44 0,24 -20,44 -44,44 -24,0 -44,-20 -44,-44 0,-24 20,-44 44,-44z"/>
   <path class="fil38" d="M13785 1570c39,0 71,31 71,70 0,39 -32,71 -71,71 -39,0 -70,-32 -70,-71 0,-39 31,-70 70,-70z"/>
   <path class="fil38" d="M13230 3228c121,0 220,98 220,220 0,122 -99,221 -220,221 -122,0 -221,-99 -221,-221 0,-122 99,-220 221,-220z"/>
   <path class="fil38" d="M13433 4462c39,0 70,32 70,71 0,39 -31,70 -70,70 -39,0 -71,-31 -71,-70 0,-39 32,-71 71,-71z"/>
   <path class="fil38" d="M11334 5415c97,0 176,79 176,176 0,98 -79,177 -176,177 -98,0 -177,-79 -177,-177 0,-97 79,-176 177,-176z"/>
   <path class="fil38" d="M11686 7937c107,0 194,87 194,194 0,107 -87,194 -194,194 -107,0 -194,-87 -194,-194 0,-107 87,-194 194,-194z"/>
   <path class="fil38" d="M12577 8096c63,0 115,51 115,115 0,63 -52,114 -115,114 -63,0 -115,-51 -115,-114 0,-64 52,-115 115,-115z"/>
   <path class="fil38" d="M13600 7920c44,0 80,35 80,79 0,44 -36,79 -80,79 -44,0 -79,-35 -79,-79 0,-44 35,-79 79,-79z"/>
   <path class="fil38" d="M10866 8484c24,0 44,20 44,44 0,25 -20,44 -44,44 -24,0 -44,-19 -44,-44 0,-24 20,-44 44,-44z"/>
   <path class="fil38" d="M12260 8925c102,0 185,83 185,185 0,103 -83,185 -185,185 -103,0 -186,-82 -186,-185 0,-102 83,-185 186,-185z"/>
   <path class="fil38" d="M13494 8978c64,0 115,51 115,115 0,63 -51,114 -115,114 -63,0 -114,-51 -114,-114 0,-64 51,-115 114,-115z"/>
   <path class="fil38" d="M10990 9331c53,0 97,43 97,97 0,53 -44,97 -97,97 -54,0 -97,-44 -97,-97 0,-54 43,-97 97,-97z"/>
   <path class="fil38" d="M1870 9154c73,0 133,60 133,133 0,73 -60,132 -133,132 -73,0 -132,-59 -132,-132 0,-73 59,-133 132,-133z"/>
   <path class="fil38" d="M1129 8378c73,0 133,59 133,133 0,73 -60,132 -133,132 -73,0 -132,-59 -132,-132 0,-74 59,-133 132,-133z"/>
   <path class="fil38" d="M1368 6350c68,0 123,55 123,123 0,68 -55,124 -123,124 -69,0 -124,-56 -124,-124 0,-68 55,-123 124,-123z"/>
   <path class="fil38" d="M1244 1834c132,0 238,107 238,238 0,132 -106,238 -238,238 -131,0 -238,-106 -238,-238 0,-131 107,-238 238,-238z"/>
   <path class="fil38" d="M10196 1349c-73,0 -132,59 -132,132 0,73 59,133 132,133 73,0 132,-60 132,-133 0,-73 -59,-132 -132,-132z"/>
   <path class="fil38" d="M1831 1076c80,0 145,65 145,145 0,81 -65,146 -145,146 -81,0 -146,-65 -146,-146 0,-80 65,-145 146,-145z"/>
   <path class="fil38" d="M13556 2522c68,0 124,55 124,124 0,68 -56,123 -124,123 -68,0 -123,-55 -123,-123 0,-69 55,-124 123,-124z"/>
   <path class="fil38" d="M1235 5203c44,0 80,36 80,80 0,43 -36,79 -80,79 -44,0 -79,-36 -79,-79 0,-44 35,-80 79,-80z"/>
  </g>
 </g>
</svg>
