<svg id="Capa_1" enable-background="new 0 0 512.684 512.684" height="512" viewBox="0 0 512.684 512.684" width="512" xmlns="http://www.w3.org/2000/svg"><g><g><g><path d="m392.432 291.618 80.86-69.87c5.65-4.88 14.03-4.86 19.66.04 3.38 2.95 5.15 7.11 5.15 11.33 0 2.83-.8 5.68-2.45 8.2l-67.01 102.4c-7.47 11.41-18.4 20.13-31.18 24.89l-21.98 8.19v89.36h-97.96v-92.58c0-17.54 7.84-34.15 21.38-45.3l62.37-51.36c3.53-2.91 7.83-4.35 12.11-4.35 4.89 0 9.77 1.88 13.47 5.58 3.72 3.72 5.58 8.6 5.58 13.47z" fill="#ffe6c6"/></g><g><path d="m120.252 291.618c0-4.87 1.86-9.75 5.58-13.47 6.94-6.94 18.01-7.47 25.58-1.23l62.37 51.36c13.54 11.15 21.38 27.76 21.38 45.3v92.57s-96.9-1.06-97.96 0 0-89.35 0-89.35l-21.98-8.19c-12.78-4.76-23.71-13.48-31.18-24.89l-67.01-102.4c-1.65-2.52-2.45-5.37-2.45-8.2 0-4.22 1.77-8.38 5.15-11.33 5.63-4.9 14.01-4.92 19.66-.04z" fill="#ffe6c6"/></g><path d="m230.199 405.811h-58.952c-8.609 0-15.567-7.025-15.49-15.634.025-2.798.05-5.44.073-7.865.086-8.827-5.368-16.754-13.64-19.836l-8.185-3.05c-12.78-4.76-23.71-13.48-31.18-24.89l-67.01-102.4c-1.65-2.52-2.45-5.37-2.45-8.2 0-1.731.319-3.458.903-5.089-4.894-1.604-10.443-.622-14.536 2.941-3.38 2.95-5.15 7.11-5.15 11.33 0 2.83.8 5.68 2.45 8.2l67.01 102.4c7.47 11.41 18.4 20.13 31.18 24.89l21.98 8.19s-1.06 90.41 0 89.35c.262-.262 6.376-.394 15.426-.445.362-.002.73-.004 1.101-.006.122 0 .244-.001.366-.002 14.654-.067 36.148.06 53.323.196h.011c8.848.07 16.546.143 21.573.193.542.005 1.046.01 1.524.015.289.003.569.006.834.008.068.001.135.001.202.002 1.083.011 1.942.02 2.549.026.395.004.672.007.845.009.131.001.206.002.206.002v-9.363-50.502c-1.609-.304-3.267-.47-4.963-.47z" fill="#f8d3aa"/><path d="m241.742 497.015v-64.661c0-6.375-5.168-11.543-11.543-11.543h-91.585c-6.375 0-11.543 5.168-11.543 11.543v64.661c0 4.512 3.657 8.169 8.169 8.169h98.334c4.511 0 8.168-3.658 8.168-8.169z" fill="#f9f7f7"/><path d="m171.943 488.974c-10.506 0-19.023-8.517-19.023-19.023v-49.141h-14.307c-6.375 0-11.543 5.168-11.543 11.543v64.661c0 4.512 3.657 8.169 8.169 8.169h98.334c4.512 0 8.169-3.657 8.169-8.169v-8.041h-69.799z" fill="#f2eae7"/><g><g id="XMLID_179_"><g><g id="XMLID_180_"><g><path d="m405.515 280.313-13.083 11.305c0-.009-.001-.019-.001-.028l-68.249 59.142c12.265 10.165 30.283 9.196 41.388-2.226l31.888-32.801c6.432-6.431 9.974-14.985 9.974-24.087 0-3.911-.659-7.72-1.917-11.305z" fill="#f8d3aa"/><path d="m386.852 278.148c3.72 3.72 5.58 8.6 5.58 13.47 0 4.88-1.86 9.76-5.58 13.48l-67.62 69.97-36.46-25.74c3.65-8.06 9.13-15.28 16.13-21.05l62.37-51.36c3.53-2.91 7.83-4.35 12.11-4.35 4.89 0 9.77 1.88 13.47 5.58z" fill="#ffe6c6"/></g></g></g></g><g id="XMLID_177_"><g><g id="XMLID_178_"><g><path d="m178.683 350.164-59.273-59.272-12.242-10.578c-1.258 3.584-1.917 7.393-1.917 11.304 0 9.102 3.542 17.656 9.976 24.089l33.135 33.536c8.244 8.344 21.586 8.749 30.321.921z" fill="#f8d3aa"/><path d="m226.982 343.688-35.47 31.38-41.07-45.37-24.61-24.6c-3.72-3.72-5.58-8.6-5.58-13.48 0-4.87 1.86-9.75 5.58-13.47 6.94-6.94 18.01-7.47 25.58-1.23l62.37 51.36c5.32 4.39 9.77 9.62 13.2 15.41z" fill="#ffe6c6"/></g></g></g></g><circle cx="129.912" cy="118.799" fill="#9de5d1" r="111.299"/><g><path d="m118.879 164.579c-3.707 0-7.417-1.365-10.316-4.112l-24.849-23.549c-1.709-1.619-1.781-4.318-.162-6.027l14.772-15.587c1.62-1.709 4.318-1.781 6.027-.162l11.084 10.505c1.69 1.602 4.352 1.551 5.98-.114l46.094-47.133c1.646-1.683 4.345-1.713 6.028-.067l15.353 15.014c1.683 1.646 1.714 4.345.067 6.028l-59.352 60.69c-2.936 3.003-6.828 4.514-10.726 4.514z" fill="#f9f7f7"/></g><circle cx="382.772" cy="118.799" fill="#ee878a" r="111.299"/><path d="m58.811 120.849c0-56.556 42.179-103.264 96.799-110.367-8.252-1.951-16.85-2.981-25.698-2.981-61.469-.001-111.299 49.829-111.299 111.298s49.83 111.299 111.299 111.299c4.913 0 9.741-.316 14.485-.933-49.075-11.603-85.586-55.695-85.586-108.316z" fill="#82dec5"/><path d="m311.671 120.849c0-56.556 42.194-103.26 96.814-110.364-8.251-1.951-16.865-2.985-25.713-2.985-61.469 0-111.299 49.83-111.299 111.299s49.83 111.299 111.299 111.299c4.913 0 9.73-.314 14.474-.931-49.075-11.603-85.575-55.697-85.575-108.318z" fill="#ec6e73"/><path d="m406.444 118.799 31.901-31.15c1.668-1.629 1.7-4.302.071-5.97l-17.203-17.617c-1.629-1.668-4.302-1.7-5.97-.071l-32.464 31.7-32.477-31.713c-1.668-1.629-4.341-1.597-5.97.071l-17.203 17.617c-1.629 1.668-1.597 4.341.071 5.97l31.914 31.163-31.914 31.163c-1.668 1.629-1.7 4.302-.071 5.97l17.203 17.617c1.629 1.668 4.302 1.7 5.97.071l32.477-31.713 32.464 31.7c1.668 1.629 4.341 1.597 5.97-.071l17.203-17.617c1.629-1.668 1.597-4.341-.071-5.97z" fill="#f9f7f7"/></g><path d="m321.719 336.141 62.37-51.36c1.684-1.388 3.555-2.453 5.503-3.176-.762-1.235-1.67-2.387-2.74-3.457-3.7-3.7-8.58-5.58-13.47-5.58-4.28 0-8.58 1.44-12.11 4.35l-62.37 51.36c-13.54 11.15-21.38 27.76-21.38 45.3v92.58h18.045 4.772 75.143v-60.309c-.468-.025-62.309-.038-62.309-.038-7.088 0-12.834-5.746-12.834-12.834v-11.534c0-17.537 7.843-34.154 21.38-45.302z" fill="#f8d3aa"/><path d="m385.613 497.015v-64.661c0-6.375-5.168-11.543-11.543-11.543h-91.585c-6.375 0-11.543 5.168-11.543 11.543v64.661c0 4.512 3.657 8.169 8.169 8.169h98.334c4.511 0 8.168-3.658 8.168-8.169z" fill="#f9f7f7"/><path d="m313.13 488.974c-9.023 0-16.338-7.315-16.338-16.338v-51.825h-14.307c-6.375 0-11.543 5.168-11.543 11.543v64.661c0 4.512 3.657 8.169 8.169 8.169h98.334c4.512 0 8.169-3.657 8.169-8.169v-8.041z" fill="#f2eae7"/></g><g><path d="m497.881 216.136c-8.392-7.309-21.07-7.334-29.49-.059l-72.031 62.237c-1.146-1.972-2.551-3.812-4.207-5.468-9.718-9.718-25.046-10.458-35.654-1.721l-62.37 51.363c-15.322 12.619-24.11 31.24-24.11 51.089v44.413c-4.021 3.494-6.579 8.631-6.579 14.364v72.83c0 4.142 3.358 7.5 7.5 7.5s7.5-3.358 7.5-7.5v-72.83c0-2.229 1.814-4.043 4.043-4.043h91.585c2.229 0 4.043 1.814 4.043 4.043v72.83c0 4.142 3.358 7.5 7.5 7.5s7.5-3.358 7.5-7.5v-72.83c0-7.28-4.11-13.613-10.128-16.816v-33.533l17.092-6.364c14.385-5.356 26.432-14.976 34.838-27.82l67.016-102.394c6.125-9.356 4.383-21.948-4.048-29.291zm-8.501 21.076-67.016 102.394c-6.641 10.146-16.157 17.746-27.521 21.977l-29.821 11.104c-3.882 1.445-5.857 5.764-4.412 9.646 1.125 3.019 3.987 4.885 7.03 4.885.115 0 .23-.01.346-.015v26.108h-82.966v-39.733c0-15.351 6.796-29.752 18.646-39.51l62.369-51.363c4.615-3.8 11.285-3.479 15.512.749 4.504 4.504 4.504 11.833 0 16.337l-24.606 24.606c-2.929 2.929-2.929 7.678 0 10.606 2.929 2.929 7.678 2.929 10.606 0l24.606-24.606c4.144-4.144 6.744-9.417 7.525-15.125l78.52-67.844c2.808-2.425 7.034-2.417 9.832.02 2.811 2.448 3.391 6.646 1.35 9.764z"/><path d="m242.664 417.99v-44.413c0-19.585-8.607-38.05-23.616-50.661-3.171-2.665-7.902-2.254-10.567.917s-2.254 7.902.917 10.567c11.608 9.753 18.265 24.033 18.265 39.176v39.733h-82.965v-26.108c.115.005.231.015.346.015 3.043 0 5.905-1.866 7.03-4.885 1.445-3.882-.53-8.201-4.412-9.646l-29.821-11.104c-11.364-4.231-20.881-11.831-27.521-21.977l-67.016-102.391c-2.042-3.119-1.461-7.317 1.35-9.766 2.798-2.437 7.024-2.446 9.832-.02l78.535 67.856c.764 5.532 3.265 10.868 7.51 15.112l24.606 24.606c1.464 1.464 3.384 2.197 5.303 2.197s3.839-.732 5.303-2.197c2.929-2.929 2.929-7.678 0-10.606l-24.606-24.606c-4.504-4.504-4.504-11.833 0-16.337 4.229-4.227 10.897-4.549 15.512-.749l37.599 30.963c3.197 2.634 7.924 2.175 10.557-1.022s2.176-7.924-1.022-10.557l-37.599-30.963c-10.61-8.737-25.938-7.997-35.654 1.721-1.672 1.672-3.07 3.516-4.202 5.472l-72.036-62.24c-8.421-7.277-21.1-7.251-29.49.058-8.431 7.343-10.172 19.935-4.049 29.292l67.016 102.393c8.406 12.844 20.453 22.464 34.838 27.82l17.092 6.364v33.533c-6.018 3.204-10.128 9.536-10.128 16.816v72.83c0 4.142 3.358 7.5 7.5 7.5s7.5-3.358 7.5-7.5v-72.83c0-2.229 1.813-4.043 4.043-4.043h91.585c2.229 0 4.043 1.814 4.043 4.043v72.83c0 4.142 3.358 7.5 7.5 7.5s7.5-3.358 7.5-7.5v-72.83c0-5.732-2.557-10.868-6.578-14.363z"/><path d="m129.912 237.598c65.506 0 118.799-53.293 118.799-118.799s-53.294-118.799-118.799-118.799-118.799 53.293-118.799 118.799 53.293 118.799 118.799 118.799zm0-222.598c57.235 0 103.799 46.564 103.799 103.799s-46.564 103.799-103.799 103.799-103.799-46.564-103.799-103.799 46.564-103.799 103.799-103.799z"/><path d="m103.405 165.911c4.198 3.978 9.693 6.168 15.475 6.168 6.105 0 11.818-2.404 16.089-6.769l15.93-16.29c2.896-2.961 2.843-7.709-.119-10.606-2.961-2.896-7.709-2.843-10.606.119l-15.929 16.289c-1.424 1.456-3.33 2.257-5.365 2.257-1.926 0-3.758-.73-5.157-2.056l-22.5-21.322 10.319-10.888 8.735 8.279c4.635 4.391 12.037 4.251 16.501-.313l43.832-44.818 10.724 10.487-18.81 19.234c-2.896 2.961-2.843 7.709.119 10.606 2.961 2.896 7.709 2.843 10.606-.119l21.073-21.548c2.197-2.247 3.388-5.214 3.353-8.356s-1.292-6.082-3.539-8.278l-15.353-15.013c-2.247-2.197-5.21-3.39-8.356-3.353-3.142.035-6.082 1.292-8.278 3.538l-43.866 44.854-8.771-8.312c-2.281-2.163-5.267-3.31-8.408-3.222-3.141.084-6.061 1.387-8.222 3.667l-14.772 15.587c-4.461 4.707-4.261 12.167.447 16.63z"/><path d="m382.772 237.598c27.876 0 54.977-9.857 76.31-27.755 3.173-2.663 3.587-7.393.925-10.566s-7.393-3.586-10.566-.925c-18.636 15.636-42.312 24.247-66.668 24.247-57.235 0-103.799-46.564-103.799-103.799s46.563-103.8 103.798-103.8 103.799 46.564 103.799 103.799c0 20.474-5.958 40.282-17.23 57.281-2.289 3.452-1.347 8.106 2.105 10.396 3.451 2.289 8.106 1.346 10.396-2.105 12.907-19.465 19.729-42.139 19.729-65.571 0-65.507-53.293-118.8-118.799-118.8s-118.799 53.293-118.799 118.799 53.293 118.799 118.799 118.799z"/><path d="m443.781 76.439-17.202-17.617c-2.188-2.241-5.117-3.495-8.248-3.532-3.131-.04-6.088 1.146-8.329 3.334l-27.224 26.584-27.238-26.597c-2.24-2.188-5.194-3.378-8.329-3.333-3.131.037-6.06 1.292-8.247 3.532l-17.202 17.616c-2.188 2.24-3.372 5.199-3.335 8.33.038 3.13 1.292 6.059 3.532 8.247l26.418 25.797-26.419 25.797c-2.24 2.188-3.494 5.116-3.531 8.247s1.147 6.089 3.334 8.329l17.202 17.616c2.188 2.241 5.117 3.495 8.248 3.532.048 0 .096.001.144.001 3.077 0 5.979-1.181 8.186-3.335l27.237-26.597 27.225 26.584c2.24 2.188 5.213 3.351 8.329 3.333 3.131-.037 6.06-1.292 8.247-3.532l17.202-17.617c4.515-4.624 4.427-12.059-.197-16.577l-26.405-25.784 26.406-25.785c4.623-4.514 4.711-11.95.196-16.573zm-42.577 36.994c-1.445 1.412-2.26 3.346-2.26 5.366s.815 3.955 2.26 5.366l29.555 28.859-12.623 12.927-30.118-29.41c-2.914-2.846-7.566-2.845-10.479 0l-30.132 29.423-12.622-12.926 29.568-28.873c1.445-1.412 2.26-3.346 2.26-5.366s-.815-3.955-2.26-5.366l-29.568-28.873 12.622-12.926 30.132 29.423c2.914 2.845 7.565 2.845 10.479 0l30.118-29.41 12.623 12.927z"/></g></g></svg>